%TF.GenerationSoftware,KiCad,Pcbnew,7.0.2*%
%TF.CreationDate,2023-05-23T14:15:23+02:00*%
%TF.ProjectId,robot2,726f626f-7432-42e6-9b69-6361645f7063,rev?*%
%TF.SameCoordinates,Original*%
%TF.FileFunction,Copper,L2,Bot*%
%TF.FilePolarity,Positive*%
%FSLAX46Y46*%
G04 Gerber Fmt 4.6, Leading zero omitted, Abs format (unit mm)*
G04 Created by KiCad (PCBNEW 7.0.2) date 2023-05-23 14:15:23*
%MOMM*%
%LPD*%
G01*
G04 APERTURE LIST*
G04 Aperture macros list*
%AMRoundRect*
0 Rectangle with rounded corners*
0 $1 Rounding radius*
0 $2 $3 $4 $5 $6 $7 $8 $9 X,Y pos of 4 corners*
0 Add a 4 corners polygon primitive as box body*
4,1,4,$2,$3,$4,$5,$6,$7,$8,$9,$2,$3,0*
0 Add four circle primitives for the rounded corners*
1,1,$1+$1,$2,$3*
1,1,$1+$1,$4,$5*
1,1,$1+$1,$6,$7*
1,1,$1+$1,$8,$9*
0 Add four rect primitives between the rounded corners*
20,1,$1+$1,$2,$3,$4,$5,0*
20,1,$1+$1,$4,$5,$6,$7,0*
20,1,$1+$1,$6,$7,$8,$9,0*
20,1,$1+$1,$8,$9,$2,$3,0*%
%AMHorizOval*
0 Thick line with rounded ends*
0 $1 width*
0 $2 $3 position (X,Y) of the first rounded end (center of the circle)*
0 $4 $5 position (X,Y) of the second rounded end (center of the circle)*
0 Add line between two ends*
20,1,$1,$2,$3,$4,$5,0*
0 Add two circle primitives to create the rounded ends*
1,1,$1,$2,$3*
1,1,$1,$4,$5*%
G04 Aperture macros list end*
%ADD10C,0.300000*%
%TA.AperFunction,NonConductor*%
%ADD11C,0.300000*%
%TD*%
%TA.AperFunction,ComponentPad*%
%ADD12C,2.540000*%
%TD*%
%TA.AperFunction,ComponentPad*%
%ADD13RoundRect,0.250000X0.725000X-0.600000X0.725000X0.600000X-0.725000X0.600000X-0.725000X-0.600000X0*%
%TD*%
%TA.AperFunction,ComponentPad*%
%ADD14O,1.950000X1.700000*%
%TD*%
%TA.AperFunction,ComponentPad*%
%ADD15R,1.700000X1.700000*%
%TD*%
%TA.AperFunction,ComponentPad*%
%ADD16O,1.700000X1.700000*%
%TD*%
%TA.AperFunction,ComponentPad*%
%ADD17RoundRect,0.250000X-0.600000X-0.725000X0.600000X-0.725000X0.600000X0.725000X-0.600000X0.725000X0*%
%TD*%
%TA.AperFunction,ComponentPad*%
%ADD18O,1.700000X1.950000*%
%TD*%
%TA.AperFunction,ComponentPad*%
%ADD19RoundRect,0.250000X-0.936916X-0.088388X-0.088388X-0.936916X0.936916X0.088388X0.088388X0.936916X0*%
%TD*%
%TA.AperFunction,ComponentPad*%
%ADD20HorizOval,1.700000X-0.088388X-0.088388X0.088388X0.088388X0*%
%TD*%
%TA.AperFunction,ComponentPad*%
%ADD21C,5.600000*%
%TD*%
%TA.AperFunction,ComponentPad*%
%ADD22R,1.905000X2.000000*%
%TD*%
%TA.AperFunction,ComponentPad*%
%ADD23O,1.905000X2.000000*%
%TD*%
%TA.AperFunction,ComponentPad*%
%ADD24C,1.524000*%
%TD*%
%TA.AperFunction,ComponentPad*%
%ADD25RoundRect,0.250000X0.088388X-0.936916X0.936916X-0.088388X-0.088388X0.936916X-0.936916X0.088388X0*%
%TD*%
%TA.AperFunction,ComponentPad*%
%ADD26HorizOval,1.700000X-0.088388X0.088388X0.088388X-0.088388X0*%
%TD*%
%TA.AperFunction,ComponentPad*%
%ADD27C,1.550000*%
%TD*%
%TA.AperFunction,ComponentPad*%
%ADD28C,1.527000*%
%TD*%
%TA.AperFunction,ViaPad*%
%ADD29C,1.200000*%
%TD*%
%TA.AperFunction,Conductor*%
%ADD30C,0.500000*%
%TD*%
G04 APERTURE END LIST*
D10*
D11*
X173472857Y-125320714D02*
X173258571Y-125392142D01*
X173258571Y-125392142D02*
X173187142Y-125463571D01*
X173187142Y-125463571D02*
X173115714Y-125606428D01*
X173115714Y-125606428D02*
X173115714Y-125820714D01*
X173115714Y-125820714D02*
X173187142Y-125963571D01*
X173187142Y-125963571D02*
X173258571Y-126035000D01*
X173258571Y-126035000D02*
X173401428Y-126106428D01*
X173401428Y-126106428D02*
X173972857Y-126106428D01*
X173972857Y-126106428D02*
X173972857Y-124606428D01*
X173972857Y-124606428D02*
X173472857Y-124606428D01*
X173472857Y-124606428D02*
X173330000Y-124677857D01*
X173330000Y-124677857D02*
X173258571Y-124749285D01*
X173258571Y-124749285D02*
X173187142Y-124892142D01*
X173187142Y-124892142D02*
X173187142Y-125035000D01*
X173187142Y-125035000D02*
X173258571Y-125177857D01*
X173258571Y-125177857D02*
X173330000Y-125249285D01*
X173330000Y-125249285D02*
X173472857Y-125320714D01*
X173472857Y-125320714D02*
X173972857Y-125320714D01*
D12*
%TO.P,J8,1,Pin_1*%
%TO.N,+9V*%
X112170000Y-127650000D03*
%TO.P,J8,2,Pin_2*%
%TO.N,GND*%
X112170000Y-131150000D03*
%TD*%
D13*
%TO.P,J5,1,Pin_1*%
%TO.N,GND*%
X110955000Y-117930000D03*
D14*
%TO.P,J5,2,Pin_2*%
%TO.N,Echo1*%
X110955000Y-115430000D03*
%TO.P,J5,3,Pin_3*%
%TO.N,Trig1*%
X110955000Y-112930000D03*
%TO.P,J5,4,Pin_4*%
%TO.N,+5V*%
X110955000Y-110430000D03*
%TD*%
D15*
%TO.P,M1,1,PWM*%
%TO.N,SERVO*%
X173070000Y-97200000D03*
D16*
%TO.P,M1,2,+*%
%TO.N,+5V*%
X173070000Y-99740000D03*
%TO.P,M1,3,-*%
%TO.N,GND*%
X173070000Y-102280000D03*
%TD*%
D17*
%TO.P,J6,1,Pin_1*%
%TO.N,GND*%
X138430000Y-69945000D03*
D18*
%TO.P,J6,2,Pin_2*%
%TO.N,Echo2*%
X140930000Y-69945000D03*
%TO.P,J6,3,Pin_3*%
%TO.N,Trig2*%
X143430000Y-69945000D03*
%TO.P,J6,4,Pin_4*%
%TO.N,+5V*%
X145930000Y-69945000D03*
%TD*%
D13*
%TO.P,J7,1,Pin_1*%
%TO.N,GND*%
X172810000Y-117220000D03*
D14*
%TO.P,J7,2,Pin_2*%
%TO.N,Echo3*%
X172810000Y-114720000D03*
%TO.P,J7,3,Pin_3*%
%TO.N,Trig3*%
X172810000Y-112220000D03*
%TO.P,J7,4,Pin_4*%
%TO.N,+5V*%
X172810000Y-109720000D03*
%TD*%
D19*
%TO.P,J1,1,Pin_1*%
%TO.N,GND*%
X158879581Y-74477119D03*
D20*
%TO.P,J1,2,Pin_2*%
%TO.N,+5V*%
X160647348Y-76244886D03*
%TO.P,J1,3,Pin_3*%
%TO.N,unconnected-(J1-Pin_3-Pad3)*%
X162415115Y-78012653D03*
%TO.P,J1,4,Pin_4*%
%TO.N,TX*%
X164182882Y-79780420D03*
%TD*%
D21*
%TO.P,H1,1,1*%
%TO.N,GND*%
X123020000Y-134010000D03*
%TD*%
D17*
%TO.P,J4,1,Pin_1*%
%TO.N,1B_M1*%
X131570000Y-133330000D03*
D18*
%TO.P,J4,2,Pin_2*%
%TO.N,1A_M1*%
X134070000Y-133330000D03*
%TO.P,J4,3,Pin_3*%
%TO.N,2A_M1*%
X136570000Y-133330000D03*
%TO.P,J4,4,Pin_4*%
%TO.N,2B_M1*%
X139070000Y-133330000D03*
%TD*%
D21*
%TO.P,H2,1,1*%
%TO.N,GND*%
X160580000Y-133910000D03*
%TD*%
D22*
%TO.P,U3,1,IN*%
%TO.N,+9V*%
X144650000Y-101245000D03*
D23*
%TO.P,U3,2,GND*%
%TO.N,GND*%
X142110000Y-101245000D03*
%TO.P,U3,3,OUT*%
%TO.N,+5V*%
X139570000Y-101245000D03*
%TD*%
D17*
%TO.P,J3,1,Pin_1*%
%TO.N,1B_M2*%
X145890000Y-133380000D03*
D18*
%TO.P,J3,2,Pin_2*%
%TO.N,1A_M2*%
X148390000Y-133380000D03*
%TO.P,J3,3,Pin_3*%
%TO.N,2A_M2*%
X150890000Y-133380000D03*
%TO.P,J3,4,Pin_4*%
%TO.N,2B_M2*%
X153390000Y-133380000D03*
%TD*%
D24*
%TO.P,A2,1,GND*%
%TO.N,GND*%
X143690000Y-127500000D03*
%TO.P,A2,2,VDD*%
%TO.N,+5V*%
X146230000Y-127500000D03*
%TO.P,A2,3,1B*%
%TO.N,1B_M2*%
X148770000Y-127500000D03*
%TO.P,A2,4,1A*%
%TO.N,1A_M2*%
X151310000Y-127500000D03*
%TO.P,A2,5,2A*%
%TO.N,2A_M2*%
X153850000Y-127500000D03*
%TO.P,A2,6,2B*%
%TO.N,2B_M2*%
X156390000Y-127500000D03*
%TO.P,A2,7,GND*%
%TO.N,GND*%
X158930000Y-127500000D03*
%TO.P,A2,8,VMOT*%
%TO.N,+9V*%
X161470000Y-127500000D03*
%TO.P,A2,9,~{ENABLE}*%
%TO.N,ENABLE_M2*%
X143690000Y-114800000D03*
%TO.P,A2,10,MS1*%
%TO.N,unconnected-(A2-MS1-Pad10)*%
X146230000Y-114800000D03*
%TO.P,A2,11,MS2*%
%TO.N,unconnected-(A2-MS2-Pad11)*%
X148770000Y-114800000D03*
%TO.P,A2,12,MS3*%
%TO.N,unconnected-(A2-MS3-Pad12)*%
X151310000Y-114800000D03*
%TO.P,A2,13,~{RESET}*%
%TO.N,unconnected-(A2-~{RESET}-Pad13)*%
X153850000Y-114800000D03*
%TO.P,A2,14,~{SLEEP}*%
%TO.N,unconnected-(A2-~{SLEEP}-Pad14)*%
X156390000Y-114800000D03*
%TO.P,A2,15,STEP*%
%TO.N,STEP_M2*%
X158930000Y-114800000D03*
%TO.P,A2,16,DIR*%
%TO.N,DIR_M2*%
X161470000Y-114800000D03*
%TD*%
D25*
%TO.P,J2,1,Pin_1*%
%TO.N,GND*%
X120496699Y-80533301D03*
D26*
%TO.P,J2,2,Pin_2*%
%TO.N,+5V*%
X122264466Y-78765534D03*
%TO.P,J2,3,Pin_3*%
%TO.N,unconnected-(J2-Pin_3-Pad3)*%
X124032233Y-76997767D03*
%TO.P,J2,4,Pin_4*%
%TO.N,RX*%
X125800000Y-75230000D03*
%TD*%
D24*
%TO.P,A1,1,GND*%
%TO.N,GND*%
X122390000Y-127460000D03*
%TO.P,A1,2,VDD*%
%TO.N,+5V*%
X124930000Y-127460000D03*
%TO.P,A1,3,1B*%
%TO.N,1B_M1*%
X127470000Y-127460000D03*
%TO.P,A1,4,1A*%
%TO.N,1A_M1*%
X130010000Y-127460000D03*
%TO.P,A1,5,2A*%
%TO.N,2A_M1*%
X132550000Y-127460000D03*
%TO.P,A1,6,2B*%
%TO.N,2B_M1*%
X135090000Y-127460000D03*
%TO.P,A1,7,GND*%
%TO.N,GND*%
X137630000Y-127460000D03*
%TO.P,A1,8,VMOT*%
%TO.N,+9V*%
X140170000Y-127460000D03*
%TO.P,A1,9,~{ENABLE}*%
%TO.N,ENABLE_M1*%
X122390000Y-114760000D03*
%TO.P,A1,10,MS1*%
%TO.N,unconnected-(A1-MS1-Pad10)*%
X124930000Y-114760000D03*
%TO.P,A1,11,MS2*%
%TO.N,unconnected-(A1-MS2-Pad11)*%
X127470000Y-114760000D03*
%TO.P,A1,12,MS3*%
%TO.N,unconnected-(A1-MS3-Pad12)*%
X130010000Y-114760000D03*
%TO.P,A1,13,~{RESET}*%
%TO.N,unconnected-(A1-~{RESET}-Pad13)*%
X132550000Y-114760000D03*
%TO.P,A1,14,~{SLEEP}*%
%TO.N,unconnected-(A1-~{SLEEP}-Pad14)*%
X135090000Y-114760000D03*
%TO.P,A1,15,STEP*%
%TO.N,STEP_M1*%
X137630000Y-114760000D03*
%TO.P,A1,16,DIR*%
%TO.N,DIR_M1*%
X140170000Y-114760000D03*
%TD*%
%TO.P,U1,8,PC0*%
%TO.N,unconnected-(U1-PC0-Pad8)*%
X118150000Y-132240000D03*
D27*
%TO.P,U1,9,PC1*%
%TO.N,unconnected-(U1-PC1-Pad9)*%
X118150000Y-129700000D03*
D24*
%TO.P,U1,13,VREF+*%
%TO.N,unconnected-(U1-VREF+-Pad13)*%
X166410000Y-92620000D03*
%TO.P,U1,14,PA0*%
%TO.N,Echo1*%
X118150000Y-119540000D03*
%TO.P,U1,15,PA1*%
%TO.N,Trig1*%
X118150000Y-122080000D03*
%TO.P,U1,16,PA2*%
%TO.N,TX*%
X166410000Y-129700000D03*
%TO.P,U1,17,PA3*%
%TO.N,RX*%
X166410000Y-132240000D03*
%TO.P,U1,18,VSS*%
%TO.N,GND*%
X118150000Y-109380000D03*
%TO.P,U1,20,PA4*%
%TO.N,ENABLE_M2*%
X118150000Y-124620000D03*
%TO.P,U1,21,PA5*%
%TO.N,unconnected-(U1-PA5-Pad21)*%
X166410000Y-97700000D03*
%TO.P,U1,22,PA6*%
%TO.N,unconnected-(U1-PA6-Pad22)*%
X166410000Y-100240000D03*
%TO.P,U1,23,PA7*%
%TO.N,STEP_M1*%
X166410000Y-102780000D03*
%TO.P,U1,26,PB0*%
%TO.N,unconnected-(U1-PB0-Pad26)*%
X118150000Y-127160000D03*
%TO.P,U1,29,PB10*%
%TO.N,SERVO*%
X166410000Y-117000000D03*
%TO.P,U1,38,PC7*%
%TO.N,ENABLE_M1*%
X166410000Y-107860000D03*
%TO.P,U1,40,PC9*%
%TO.N,unconnected-(U1-PC9-Pad40)*%
X166410000Y-85000000D03*
%TO.P,U1,41,PA8*%
%TO.N,Echo2*%
X166410000Y-114460000D03*
%TO.P,U1,42,PA9*%
%TO.N,Trig2*%
X166410000Y-110400000D03*
%TO.P,U1,43,PA10*%
%TO.N,Trig3*%
X166410000Y-127160000D03*
%TO.P,U1,47,VSS*%
%TO.N,GND*%
X166410000Y-95160000D03*
%TO.P,U1,49,PA14*%
%TO.N,unconnected-(U1-PA14-Pad49)*%
X118150000Y-104300000D03*
%TO.P,U1,51,PC10*%
%TO.N,unconnected-(U1-PC10-Pad51)*%
X118150000Y-96680000D03*
%TO.P,U1,52,PC11*%
%TO.N,unconnected-(U1-PC11-Pad52)*%
X118150000Y-99220000D03*
%TO.P,U1,53,PC12*%
%TO.N,unconnected-(U1-PC12-Pad53)*%
X118150000Y-101760000D03*
%TO.P,U1,54,PD2*%
%TO.N,unconnected-(U1-PD2-Pad54)*%
X118150000Y-114460000D03*
%TO.P,U1,55,PB3*%
%TO.N,STEP_M2*%
X166410000Y-124620000D03*
%TO.P,U1,56,PB4*%
%TO.N,DIR_M2*%
X166410000Y-119540000D03*
D28*
%TO.P,U1,57,PB5*%
%TO.N,Echo3*%
X166410000Y-122080000D03*
D24*
%TO.P,U1,58,PB6*%
%TO.N,DIR_M1*%
X166410000Y-105320000D03*
%TO.P,U1,61,PB8*%
%TO.N,unconnected-(U1-PB8-Pad61)*%
X166410000Y-87540000D03*
%TO.P,U1,62,PB9*%
%TO.N,unconnected-(U1-PB9-Pad62)*%
X166410000Y-90080000D03*
%TO.P,U1,63,VSS*%
%TO.N,GND*%
X118150000Y-111920000D03*
%TO.P,U1,64,VDD*%
%TO.N,+5V*%
X118150000Y-106840000D03*
%TD*%
D29*
%TO.N,+9V*%
X144030000Y-108000000D03*
%TD*%
D30*
%TO.N,+9V*%
X142660000Y-108000000D02*
X141890000Y-108770000D01*
X144030000Y-108000000D02*
X142660000Y-108000000D01*
X141890000Y-108770000D02*
X141890000Y-117210000D01*
X141890000Y-117210000D02*
X140170000Y-118930000D01*
X140170000Y-118930000D02*
X140170000Y-127460000D01*
%TO.N,+5V*%
X143900000Y-129830000D02*
X127300000Y-129830000D01*
X111270000Y-110430000D02*
X110955000Y-110430000D01*
X146230000Y-127500000D02*
X143900000Y-129830000D01*
X124930000Y-127460000D02*
X124930000Y-124090000D01*
X127300000Y-129830000D02*
X124930000Y-127460000D01*
X124930000Y-124090000D02*
X111270000Y-110430000D01*
%TO.N,TX*%
X166410000Y-129700000D02*
X168930000Y-127180000D01*
X168930000Y-84527538D02*
X164182882Y-79780420D01*
X168930000Y-127180000D02*
X168930000Y-84527538D01*
%TO.N,RX*%
X163340000Y-110560000D02*
X150390000Y-97610000D01*
X166410000Y-132240000D02*
X163340000Y-129170000D01*
X150390000Y-97610000D02*
X147660000Y-97610000D01*
X147660000Y-97610000D02*
X125800000Y-75750000D01*
X125800000Y-75750000D02*
X125800000Y-75230000D01*
X163340000Y-129170000D02*
X163340000Y-110560000D01*
%TO.N,Echo2*%
X164540000Y-112590000D02*
X164540000Y-110140000D01*
X166410000Y-114460000D02*
X164540000Y-112590000D01*
X140930000Y-86530000D02*
X140930000Y-69945000D01*
X164540000Y-110140000D02*
X140930000Y-86530000D01*
%TO.N,Trig2*%
X166410000Y-110400000D02*
X164230000Y-108220000D01*
X143430000Y-80740000D02*
X143430000Y-69945000D01*
X164230000Y-101540000D02*
X143430000Y-80740000D01*
X164230000Y-108220000D02*
X164230000Y-101540000D01*
%TD*%
%TA.AperFunction,Conductor*%
%TO.N,GND*%
G36*
X160267863Y-115253435D02*
G01*
X160312381Y-115304811D01*
X160355756Y-115397827D01*
X160372466Y-115433662D01*
X160499174Y-115614620D01*
X160655380Y-115770826D01*
X160836338Y-115897534D01*
X161036550Y-115990894D01*
X161249932Y-116048070D01*
X161396644Y-116060905D01*
X161469999Y-116067323D01*
X161469999Y-116067322D01*
X161470000Y-116067323D01*
X161690068Y-116048070D01*
X161903450Y-115990894D01*
X162103662Y-115897534D01*
X162284620Y-115770826D01*
X162377821Y-115677624D01*
X162439140Y-115644142D01*
X162508832Y-115649126D01*
X162564766Y-115690997D01*
X162589183Y-115756461D01*
X162589499Y-115765308D01*
X162589499Y-126534691D01*
X162569814Y-126601730D01*
X162517010Y-126647485D01*
X162447852Y-126657429D01*
X162384296Y-126628404D01*
X162377818Y-126622372D01*
X162284620Y-126529174D01*
X162103662Y-126402466D01*
X161903451Y-126309106D01*
X161690065Y-126251929D01*
X161470000Y-126232676D01*
X161249934Y-126251929D01*
X161036548Y-126309106D01*
X160836338Y-126402466D01*
X160655379Y-126529174D01*
X160499174Y-126685379D01*
X160372467Y-126866336D01*
X160312105Y-126995782D01*
X160265932Y-127048221D01*
X160198738Y-127067372D01*
X160131857Y-127047156D01*
X160087341Y-126995780D01*
X160027099Y-126866590D01*
X159981740Y-126801811D01*
X159314903Y-127468648D01*
X159314949Y-127468102D01*
X159283734Y-127344838D01*
X159214187Y-127238388D01*
X159113843Y-127160287D01*
X158993578Y-127119000D01*
X158957447Y-127119000D01*
X159628187Y-126448258D01*
X159563406Y-126402898D01*
X159363281Y-126309579D01*
X159149978Y-126252424D01*
X158929999Y-126233178D01*
X158710021Y-126252424D01*
X158496719Y-126309578D01*
X158296589Y-126402900D01*
X158231812Y-126448258D01*
X158231811Y-126448258D01*
X158902554Y-127119000D01*
X158898431Y-127119000D01*
X158804579Y-127134661D01*
X158692749Y-127195180D01*
X158606629Y-127288731D01*
X158555552Y-127405177D01*
X158549894Y-127473447D01*
X157878258Y-126801811D01*
X157878258Y-126801812D01*
X157832900Y-126866590D01*
X157772657Y-126995781D01*
X157726484Y-127048220D01*
X157659291Y-127067372D01*
X157592409Y-127047156D01*
X157547893Y-126995780D01*
X157547617Y-126995189D01*
X157487534Y-126866339D01*
X157360826Y-126685380D01*
X157204620Y-126529174D01*
X157023662Y-126402466D01*
X156974896Y-126379726D01*
X156823451Y-126309106D01*
X156610065Y-126251929D01*
X156390000Y-126232676D01*
X156169934Y-126251929D01*
X155956548Y-126309106D01*
X155756338Y-126402466D01*
X155575379Y-126529174D01*
X155419174Y-126685379D01*
X155292466Y-126866338D01*
X155232382Y-126995189D01*
X155186209Y-127047628D01*
X155119016Y-127066780D01*
X155052135Y-127046564D01*
X155007618Y-126995189D01*
X154969500Y-126913445D01*
X154947534Y-126866339D01*
X154820826Y-126685380D01*
X154664620Y-126529174D01*
X154483662Y-126402466D01*
X154434896Y-126379726D01*
X154283451Y-126309106D01*
X154070065Y-126251929D01*
X153849999Y-126232676D01*
X153629934Y-126251929D01*
X153416548Y-126309106D01*
X153216338Y-126402466D01*
X153035379Y-126529174D01*
X152879174Y-126685379D01*
X152752467Y-126866336D01*
X152692381Y-126995190D01*
X152646208Y-127047629D01*
X152579014Y-127066780D01*
X152512133Y-127046564D01*
X152467617Y-126995188D01*
X152449241Y-126955781D01*
X152407534Y-126866339D01*
X152280826Y-126685380D01*
X152124620Y-126529174D01*
X151943662Y-126402466D01*
X151894896Y-126379726D01*
X151743451Y-126309106D01*
X151530065Y-126251929D01*
X151310000Y-126232676D01*
X151089934Y-126251929D01*
X150876548Y-126309106D01*
X150676338Y-126402466D01*
X150495379Y-126529174D01*
X150339174Y-126685379D01*
X150212466Y-126866338D01*
X150152382Y-126995189D01*
X150106209Y-127047628D01*
X150039016Y-127066780D01*
X149972135Y-127046564D01*
X149927618Y-126995189D01*
X149889500Y-126913445D01*
X149867534Y-126866339D01*
X149740826Y-126685380D01*
X149584620Y-126529174D01*
X149403662Y-126402466D01*
X149354896Y-126379726D01*
X149203451Y-126309106D01*
X148990065Y-126251929D01*
X148769999Y-126232676D01*
X148549934Y-126251929D01*
X148336548Y-126309106D01*
X148136338Y-126402466D01*
X147955379Y-126529174D01*
X147799174Y-126685379D01*
X147672466Y-126866338D01*
X147612382Y-126995189D01*
X147566209Y-127047628D01*
X147499016Y-127066780D01*
X147432135Y-127046564D01*
X147387618Y-126995189D01*
X147349500Y-126913445D01*
X147327534Y-126866339D01*
X147200826Y-126685380D01*
X147044620Y-126529174D01*
X146863662Y-126402466D01*
X146814896Y-126379726D01*
X146663451Y-126309106D01*
X146450065Y-126251929D01*
X146230000Y-126232676D01*
X146009934Y-126251929D01*
X145796548Y-126309106D01*
X145596338Y-126402466D01*
X145415379Y-126529174D01*
X145259174Y-126685379D01*
X145132467Y-126866336D01*
X145072105Y-126995782D01*
X145025932Y-127048221D01*
X144958738Y-127067372D01*
X144891857Y-127047156D01*
X144847341Y-126995780D01*
X144787099Y-126866590D01*
X144741740Y-126801811D01*
X144074903Y-127468648D01*
X144074949Y-127468102D01*
X144043734Y-127344838D01*
X143974187Y-127238388D01*
X143873843Y-127160287D01*
X143753578Y-127119000D01*
X143717447Y-127119000D01*
X144388187Y-126448258D01*
X144323406Y-126402898D01*
X144123281Y-126309579D01*
X143909978Y-126252424D01*
X143689999Y-126233178D01*
X143470021Y-126252424D01*
X143256719Y-126309578D01*
X143056589Y-126402900D01*
X142991812Y-126448258D01*
X142991811Y-126448258D01*
X143662554Y-127119000D01*
X143658431Y-127119000D01*
X143564579Y-127134661D01*
X143452749Y-127195180D01*
X143366629Y-127288731D01*
X143315552Y-127405177D01*
X143309894Y-127473447D01*
X142638258Y-126801811D01*
X142638258Y-126801812D01*
X142592900Y-126866589D01*
X142499578Y-127066719D01*
X142442424Y-127280021D01*
X142423178Y-127499999D01*
X142442424Y-127719978D01*
X142499579Y-127933281D01*
X142592898Y-128133406D01*
X142638258Y-128198187D01*
X143305096Y-127531349D01*
X143305051Y-127531898D01*
X143336266Y-127655162D01*
X143405813Y-127761612D01*
X143506157Y-127839713D01*
X143626422Y-127881000D01*
X143662553Y-127881000D01*
X142991812Y-128551740D01*
X143056593Y-128597101D01*
X143256718Y-128690420D01*
X143470021Y-128747575D01*
X143619862Y-128760685D01*
X143684931Y-128786137D01*
X143725910Y-128842728D01*
X143729788Y-128912490D01*
X143696737Y-128971894D01*
X143625451Y-129043181D01*
X143564128Y-129076666D01*
X143537769Y-129079500D01*
X127662230Y-129079500D01*
X127595191Y-129059815D01*
X127574549Y-129043181D01*
X127463724Y-128932356D01*
X127430239Y-128871033D01*
X127435223Y-128801341D01*
X127477095Y-128745408D01*
X127540598Y-128721147D01*
X127628874Y-128713423D01*
X127690068Y-128708070D01*
X127903450Y-128650894D01*
X128103662Y-128557534D01*
X128284620Y-128430826D01*
X128440826Y-128274620D01*
X128567534Y-128093662D01*
X128627617Y-127964811D01*
X128673790Y-127912372D01*
X128740984Y-127893220D01*
X128807865Y-127913436D01*
X128852382Y-127964811D01*
X128912466Y-128093662D01*
X129039174Y-128274620D01*
X129195380Y-128430826D01*
X129376338Y-128557534D01*
X129576550Y-128650894D01*
X129789932Y-128708070D01*
X129936644Y-128720905D01*
X130009999Y-128727323D01*
X130009999Y-128727322D01*
X130010000Y-128727323D01*
X130230068Y-128708070D01*
X130443450Y-128650894D01*
X130643662Y-128557534D01*
X130824620Y-128430826D01*
X130980826Y-128274620D01*
X131107534Y-128093662D01*
X131167617Y-127964811D01*
X131213790Y-127912372D01*
X131280984Y-127893220D01*
X131347865Y-127913436D01*
X131392382Y-127964811D01*
X131452466Y-128093662D01*
X131579174Y-128274620D01*
X131735380Y-128430826D01*
X131916338Y-128557534D01*
X132116550Y-128650894D01*
X132329932Y-128708070D01*
X132550000Y-128727323D01*
X132770068Y-128708070D01*
X132983450Y-128650894D01*
X133183662Y-128557534D01*
X133364620Y-128430826D01*
X133520826Y-128274620D01*
X133647534Y-128093662D01*
X133707617Y-127964811D01*
X133753790Y-127912372D01*
X133820984Y-127893220D01*
X133887865Y-127913436D01*
X133932382Y-127964811D01*
X133992466Y-128093662D01*
X134119174Y-128274620D01*
X134275380Y-128430826D01*
X134456338Y-128557534D01*
X134656550Y-128650894D01*
X134869932Y-128708070D01*
X135016643Y-128720905D01*
X135089999Y-128727323D01*
X135089999Y-128727322D01*
X135090000Y-128727323D01*
X135310068Y-128708070D01*
X135523450Y-128650894D01*
X135723662Y-128557534D01*
X135904620Y-128430826D01*
X136060826Y-128274620D01*
X136187534Y-128093662D01*
X136247894Y-127964218D01*
X136294066Y-127911779D01*
X136361259Y-127892627D01*
X136428141Y-127912842D01*
X136472658Y-127964219D01*
X136532898Y-128093406D01*
X136578258Y-128158187D01*
X137245096Y-127491349D01*
X137245051Y-127491898D01*
X137276266Y-127615162D01*
X137345813Y-127721612D01*
X137446157Y-127799713D01*
X137566422Y-127841000D01*
X137602553Y-127841000D01*
X136931812Y-128511740D01*
X136996593Y-128557101D01*
X137196718Y-128650420D01*
X137410021Y-128707575D01*
X137629999Y-128726821D01*
X137849978Y-128707575D01*
X138063281Y-128650420D01*
X138263408Y-128557100D01*
X138328187Y-128511740D01*
X137657448Y-127841000D01*
X137661569Y-127841000D01*
X137755421Y-127825339D01*
X137867251Y-127764820D01*
X137953371Y-127671269D01*
X138004448Y-127554823D01*
X138010105Y-127486552D01*
X138681740Y-128158186D01*
X138727098Y-128093411D01*
X138787340Y-127964220D01*
X138833512Y-127911780D01*
X138900705Y-127892627D01*
X138967587Y-127912842D01*
X139012105Y-127964218D01*
X139031034Y-128004811D01*
X139072466Y-128093662D01*
X139199174Y-128274620D01*
X139355380Y-128430826D01*
X139536338Y-128557534D01*
X139736550Y-128650894D01*
X139949932Y-128708070D01*
X140096643Y-128720905D01*
X140169999Y-128727323D01*
X140169999Y-128727322D01*
X140170000Y-128727323D01*
X140390068Y-128708070D01*
X140603450Y-128650894D01*
X140803662Y-128557534D01*
X140984620Y-128430826D01*
X141140826Y-128274620D01*
X141267534Y-128093662D01*
X141360894Y-127893450D01*
X141418070Y-127680068D01*
X141437323Y-127460000D01*
X141418070Y-127239932D01*
X141360894Y-127026550D01*
X141267534Y-126826339D01*
X141140826Y-126645380D01*
X140984620Y-126489174D01*
X140973374Y-126481299D01*
X140929750Y-126426721D01*
X140920500Y-126379726D01*
X140920500Y-119292228D01*
X140940185Y-119225189D01*
X140956814Y-119204552D01*
X142375638Y-117785727D01*
X142389256Y-117773957D01*
X142408530Y-117759610D01*
X142440372Y-117721661D01*
X142447686Y-117713681D01*
X142448267Y-117713099D01*
X142451590Y-117709777D01*
X142470837Y-117685433D01*
X142473031Y-117682738D01*
X142521302Y-117625214D01*
X142521303Y-117625210D01*
X142522119Y-117624239D01*
X142532575Y-117607825D01*
X142533109Y-117606679D01*
X142533111Y-117606677D01*
X142564816Y-117538682D01*
X142566369Y-117535475D01*
X142600040Y-117468433D01*
X142600040Y-117468429D01*
X142600610Y-117467296D01*
X142606999Y-117448917D01*
X142610192Y-117433451D01*
X142622431Y-117374171D01*
X142623186Y-117370767D01*
X142640500Y-117297721D01*
X142640500Y-117297717D01*
X142640790Y-117296494D01*
X142642769Y-117277123D01*
X142642732Y-117275859D01*
X142642733Y-117275856D01*
X142640552Y-117200888D01*
X142640500Y-117197283D01*
X142640500Y-115835308D01*
X142660185Y-115768269D01*
X142712989Y-115722514D01*
X142782147Y-115712570D01*
X142845703Y-115741595D01*
X142852181Y-115747627D01*
X142875380Y-115770826D01*
X143056338Y-115897534D01*
X143256550Y-115990894D01*
X143469932Y-116048070D01*
X143616644Y-116060905D01*
X143689999Y-116067323D01*
X143689999Y-116067322D01*
X143690000Y-116067323D01*
X143910068Y-116048070D01*
X144123450Y-115990894D01*
X144323662Y-115897534D01*
X144504620Y-115770826D01*
X144660826Y-115614620D01*
X144787534Y-115433662D01*
X144845185Y-115310027D01*
X144847618Y-115304811D01*
X144893790Y-115252372D01*
X144960984Y-115233220D01*
X145027865Y-115253436D01*
X145072382Y-115304811D01*
X145110500Y-115386555D01*
X145132466Y-115433662D01*
X145259174Y-115614620D01*
X145415380Y-115770826D01*
X145596338Y-115897534D01*
X145796550Y-115990894D01*
X146009932Y-116048070D01*
X146230000Y-116067323D01*
X146450068Y-116048070D01*
X146663450Y-115990894D01*
X146863662Y-115897534D01*
X147044620Y-115770826D01*
X147200826Y-115614620D01*
X147327534Y-115433662D01*
X147385185Y-115310027D01*
X147387618Y-115304811D01*
X147433790Y-115252372D01*
X147500984Y-115233220D01*
X147567865Y-115253436D01*
X147612382Y-115304811D01*
X147650500Y-115386555D01*
X147672466Y-115433662D01*
X147799174Y-115614620D01*
X147955380Y-115770826D01*
X148136338Y-115897534D01*
X148336550Y-115990894D01*
X148549932Y-116048070D01*
X148770000Y-116067323D01*
X148990068Y-116048070D01*
X149203450Y-115990894D01*
X149403662Y-115897534D01*
X149584620Y-115770826D01*
X149740826Y-115614620D01*
X149867534Y-115433662D01*
X149925185Y-115310027D01*
X149927618Y-115304811D01*
X149973790Y-115252372D01*
X150040984Y-115233220D01*
X150107865Y-115253436D01*
X150152382Y-115304811D01*
X150190500Y-115386555D01*
X150212466Y-115433662D01*
X150339174Y-115614620D01*
X150495380Y-115770826D01*
X150676338Y-115897534D01*
X150876550Y-115990894D01*
X151089932Y-116048070D01*
X151236643Y-116060905D01*
X151309999Y-116067323D01*
X151309999Y-116067322D01*
X151310000Y-116067323D01*
X151530068Y-116048070D01*
X151743450Y-115990894D01*
X151943662Y-115897534D01*
X152124620Y-115770826D01*
X152280826Y-115614620D01*
X152407534Y-115433662D01*
X152465185Y-115310027D01*
X152467618Y-115304811D01*
X152513790Y-115252372D01*
X152580984Y-115233220D01*
X152647865Y-115253436D01*
X152692382Y-115304811D01*
X152730500Y-115386555D01*
X152752466Y-115433662D01*
X152879174Y-115614620D01*
X153035380Y-115770826D01*
X153216338Y-115897534D01*
X153416550Y-115990894D01*
X153629932Y-116048070D01*
X153776643Y-116060905D01*
X153849999Y-116067323D01*
X153849999Y-116067322D01*
X153850000Y-116067323D01*
X154070068Y-116048070D01*
X154283450Y-115990894D01*
X154483662Y-115897534D01*
X154664620Y-115770826D01*
X154820826Y-115614620D01*
X154947534Y-115433662D01*
X155005185Y-115310027D01*
X155007618Y-115304811D01*
X155053790Y-115252372D01*
X155120984Y-115233220D01*
X155187865Y-115253436D01*
X155232382Y-115304811D01*
X155270500Y-115386555D01*
X155292466Y-115433662D01*
X155419174Y-115614620D01*
X155575380Y-115770826D01*
X155756338Y-115897534D01*
X155956550Y-115990894D01*
X156169932Y-116048070D01*
X156390000Y-116067323D01*
X156610068Y-116048070D01*
X156823450Y-115990894D01*
X157023662Y-115897534D01*
X157204620Y-115770826D01*
X157360826Y-115614620D01*
X157487534Y-115433662D01*
X157545185Y-115310027D01*
X157547618Y-115304811D01*
X157593790Y-115252372D01*
X157660984Y-115233220D01*
X157727865Y-115253436D01*
X157772382Y-115304811D01*
X157810500Y-115386555D01*
X157832466Y-115433662D01*
X157959174Y-115614620D01*
X158115380Y-115770826D01*
X158296338Y-115897534D01*
X158496550Y-115990894D01*
X158709932Y-116048070D01*
X158930000Y-116067323D01*
X159150068Y-116048070D01*
X159363450Y-115990894D01*
X159563662Y-115897534D01*
X159744620Y-115770826D01*
X159900826Y-115614620D01*
X160027534Y-115433662D01*
X160087618Y-115304810D01*
X160133789Y-115252372D01*
X160200982Y-115233220D01*
X160267863Y-115253435D01*
G37*
%TD.AperFunction*%
%TA.AperFunction,Conductor*%
G36*
X167782346Y-84450895D02*
G01*
X167815846Y-84474751D01*
X168143181Y-84802086D01*
X168176666Y-84863409D01*
X168179500Y-84889767D01*
X168179500Y-126817769D01*
X168159815Y-126884808D01*
X168143181Y-126905450D01*
X167882356Y-127166275D01*
X167821033Y-127199760D01*
X167751341Y-127194776D01*
X167695408Y-127152904D01*
X167671147Y-127089401D01*
X167659457Y-126955782D01*
X167658070Y-126939932D01*
X167600894Y-126726550D01*
X167507534Y-126526339D01*
X167380826Y-126345380D01*
X167224620Y-126189174D01*
X167043662Y-126062466D01*
X166914811Y-126002382D01*
X166862372Y-125956210D01*
X166843220Y-125889016D01*
X166863436Y-125822135D01*
X166914811Y-125777618D01*
X166920027Y-125775185D01*
X167043662Y-125717534D01*
X167224620Y-125590826D01*
X167380826Y-125434620D01*
X167507534Y-125253662D01*
X167600894Y-125053450D01*
X167658070Y-124840068D01*
X167677323Y-124620000D01*
X167658070Y-124399932D01*
X167600894Y-124186550D01*
X167507534Y-123986339D01*
X167380826Y-123805380D01*
X167224620Y-123649174D01*
X167043662Y-123522466D01*
X167043661Y-123522465D01*
X166916584Y-123463208D01*
X166864145Y-123417035D01*
X166844993Y-123349842D01*
X166865209Y-123282961D01*
X166916583Y-123238445D01*
X167044414Y-123178837D01*
X167225587Y-123051979D01*
X167381979Y-122895587D01*
X167508837Y-122714414D01*
X167602308Y-122513965D01*
X167659552Y-122300330D01*
X167678828Y-122080000D01*
X167659552Y-121859670D01*
X167602308Y-121646035D01*
X167508837Y-121445586D01*
X167381979Y-121264413D01*
X167225587Y-121108021D01*
X167044414Y-120981163D01*
X166916583Y-120921554D01*
X166864145Y-120875383D01*
X166844993Y-120808189D01*
X166865209Y-120741308D01*
X166916584Y-120696791D01*
X167043662Y-120637534D01*
X167224620Y-120510826D01*
X167380826Y-120354620D01*
X167507534Y-120173662D01*
X167600894Y-119973450D01*
X167658070Y-119760068D01*
X167677323Y-119540000D01*
X167658070Y-119319932D01*
X167600894Y-119106550D01*
X167507534Y-118906339D01*
X167380826Y-118725380D01*
X167224620Y-118569174D01*
X167043662Y-118442466D01*
X166914811Y-118382382D01*
X166862372Y-118336210D01*
X166843220Y-118269016D01*
X166863436Y-118202135D01*
X166914811Y-118157618D01*
X166920027Y-118155185D01*
X167043662Y-118097534D01*
X167224620Y-117970826D01*
X167380826Y-117814620D01*
X167507534Y-117633662D01*
X167600894Y-117433450D01*
X167658070Y-117220068D01*
X167677323Y-117000000D01*
X167658070Y-116779932D01*
X167600894Y-116566550D01*
X167507534Y-116366339D01*
X167380826Y-116185380D01*
X167224620Y-116029174D01*
X167043662Y-115902466D01*
X166947305Y-115857534D01*
X166914811Y-115842382D01*
X166862372Y-115796210D01*
X166843220Y-115729016D01*
X166863436Y-115662135D01*
X166914811Y-115617618D01*
X166921240Y-115614620D01*
X167043662Y-115557534D01*
X167224620Y-115430826D01*
X167380826Y-115274620D01*
X167507534Y-115093662D01*
X167600894Y-114893450D01*
X167658070Y-114680068D01*
X167677323Y-114460000D01*
X167658070Y-114239932D01*
X167600894Y-114026550D01*
X167507534Y-113826339D01*
X167380826Y-113645380D01*
X167224620Y-113489174D01*
X167043662Y-113362466D01*
X166843451Y-113269106D01*
X166630065Y-113211929D01*
X166409999Y-113192676D01*
X166278213Y-113204205D01*
X166209713Y-113190438D01*
X166179726Y-113168358D01*
X165326819Y-112315451D01*
X165293334Y-112254128D01*
X165290500Y-112227770D01*
X165290500Y-111365308D01*
X165310185Y-111298269D01*
X165362989Y-111252514D01*
X165432147Y-111242570D01*
X165495703Y-111271595D01*
X165502181Y-111277627D01*
X165595380Y-111370826D01*
X165776338Y-111497534D01*
X165976550Y-111590894D01*
X166189932Y-111648070D01*
X166307870Y-111658388D01*
X166409999Y-111667323D01*
X166409999Y-111667322D01*
X166410000Y-111667323D01*
X166630068Y-111648070D01*
X166843450Y-111590894D01*
X167043662Y-111497534D01*
X167224620Y-111370826D01*
X167380826Y-111214620D01*
X167507534Y-111033662D01*
X167600894Y-110833450D01*
X167658070Y-110620068D01*
X167677323Y-110400000D01*
X167658070Y-110179932D01*
X167600894Y-109966550D01*
X167507534Y-109766339D01*
X167380826Y-109585380D01*
X167224620Y-109429174D01*
X167043662Y-109302466D01*
X166944738Y-109256337D01*
X166914811Y-109242382D01*
X166862372Y-109196210D01*
X166843220Y-109129016D01*
X166863436Y-109062135D01*
X166914811Y-109017618D01*
X166921152Y-109014661D01*
X167043662Y-108957534D01*
X167224620Y-108830826D01*
X167380826Y-108674620D01*
X167507534Y-108493662D01*
X167600894Y-108293450D01*
X167658070Y-108080068D01*
X167677323Y-107860000D01*
X167658070Y-107639932D01*
X167600894Y-107426550D01*
X167507534Y-107226339D01*
X167380826Y-107045380D01*
X167224620Y-106889174D01*
X167043662Y-106762466D01*
X166914811Y-106702382D01*
X166862372Y-106656210D01*
X166843220Y-106589016D01*
X166863436Y-106522135D01*
X166914811Y-106477618D01*
X166920027Y-106475185D01*
X167043662Y-106417534D01*
X167224620Y-106290826D01*
X167380826Y-106134620D01*
X167507534Y-105953662D01*
X167600894Y-105753450D01*
X167658070Y-105540068D01*
X167677323Y-105320000D01*
X167658070Y-105099932D01*
X167600894Y-104886550D01*
X167507534Y-104686339D01*
X167380826Y-104505380D01*
X167224620Y-104349174D01*
X167043662Y-104222466D01*
X166914811Y-104162382D01*
X166862372Y-104116210D01*
X166843220Y-104049016D01*
X166863436Y-103982135D01*
X166914811Y-103937618D01*
X166920027Y-103935185D01*
X167043662Y-103877534D01*
X167224620Y-103750826D01*
X167380826Y-103594620D01*
X167507534Y-103413662D01*
X167600894Y-103213450D01*
X167658070Y-103000068D01*
X167677323Y-102780000D01*
X167658070Y-102559932D01*
X167600894Y-102346550D01*
X167507534Y-102146339D01*
X167380826Y-101965380D01*
X167224620Y-101809174D01*
X167043662Y-101682466D01*
X166914811Y-101622382D01*
X166862372Y-101576210D01*
X166843220Y-101509016D01*
X166863436Y-101442135D01*
X166914811Y-101397618D01*
X166959633Y-101376717D01*
X167043662Y-101337534D01*
X167224620Y-101210826D01*
X167380826Y-101054620D01*
X167507534Y-100873662D01*
X167600894Y-100673450D01*
X167658070Y-100460068D01*
X167677323Y-100240000D01*
X167658070Y-100019932D01*
X167600894Y-99806550D01*
X167507534Y-99606339D01*
X167380826Y-99425380D01*
X167224620Y-99269174D01*
X167043662Y-99142466D01*
X166914811Y-99082382D01*
X166862372Y-99036210D01*
X166843220Y-98969016D01*
X166863436Y-98902135D01*
X166914811Y-98857618D01*
X166920027Y-98855185D01*
X167043662Y-98797534D01*
X167224620Y-98670826D01*
X167380826Y-98514620D01*
X167507534Y-98333662D01*
X167600894Y-98133450D01*
X167658070Y-97920068D01*
X167677323Y-97700000D01*
X167658070Y-97479932D01*
X167600894Y-97266550D01*
X167507534Y-97066339D01*
X167380826Y-96885380D01*
X167224620Y-96729174D01*
X167043662Y-96602466D01*
X167016974Y-96590021D01*
X166914218Y-96542105D01*
X166861779Y-96495932D01*
X166842627Y-96428739D01*
X166862843Y-96361858D01*
X166914220Y-96317340D01*
X167043411Y-96257098D01*
X167108187Y-96211740D01*
X166437448Y-95541000D01*
X166441569Y-95541000D01*
X166535421Y-95525339D01*
X166647251Y-95464820D01*
X166733371Y-95371269D01*
X166784448Y-95254823D01*
X166790105Y-95186552D01*
X167461740Y-95858186D01*
X167507100Y-95793408D01*
X167600420Y-95593281D01*
X167657575Y-95379978D01*
X167676821Y-95160000D01*
X167657575Y-94940021D01*
X167600421Y-94726720D01*
X167507098Y-94526589D01*
X167461740Y-94461811D01*
X166794903Y-95128648D01*
X166794949Y-95128102D01*
X166763734Y-95004838D01*
X166694187Y-94898388D01*
X166593843Y-94820287D01*
X166473578Y-94779000D01*
X166437447Y-94779000D01*
X167108187Y-94108258D01*
X167043406Y-94062898D01*
X166914219Y-94002658D01*
X166861779Y-93956486D01*
X166842627Y-93889293D01*
X166862843Y-93822411D01*
X166914219Y-93777894D01*
X167043662Y-93717534D01*
X167224620Y-93590826D01*
X167380826Y-93434620D01*
X167507534Y-93253662D01*
X167600894Y-93053450D01*
X167658070Y-92840068D01*
X167677323Y-92620000D01*
X167658070Y-92399932D01*
X167600894Y-92186550D01*
X167507534Y-91986339D01*
X167380826Y-91805380D01*
X167224620Y-91649174D01*
X167043662Y-91522466D01*
X166914811Y-91462382D01*
X166862372Y-91416210D01*
X166843220Y-91349016D01*
X166863436Y-91282135D01*
X166914811Y-91237618D01*
X166920027Y-91235185D01*
X167043662Y-91177534D01*
X167224620Y-91050826D01*
X167380826Y-90894620D01*
X167507534Y-90713662D01*
X167600894Y-90513450D01*
X167658070Y-90300068D01*
X167677323Y-90080000D01*
X167658070Y-89859932D01*
X167600894Y-89646550D01*
X167507534Y-89446339D01*
X167380826Y-89265380D01*
X167224620Y-89109174D01*
X167043662Y-88982466D01*
X166914811Y-88922382D01*
X166862372Y-88876210D01*
X166843220Y-88809016D01*
X166863436Y-88742135D01*
X166914811Y-88697618D01*
X166920027Y-88695185D01*
X167043662Y-88637534D01*
X167224620Y-88510826D01*
X167380826Y-88354620D01*
X167507534Y-88173662D01*
X167600894Y-87973450D01*
X167658070Y-87760068D01*
X167677323Y-87540000D01*
X167658070Y-87319932D01*
X167600894Y-87106550D01*
X167507534Y-86906339D01*
X167380826Y-86725380D01*
X167224620Y-86569174D01*
X167043662Y-86442466D01*
X166914811Y-86382382D01*
X166862372Y-86336210D01*
X166843220Y-86269016D01*
X166863436Y-86202135D01*
X166914811Y-86157618D01*
X166920027Y-86155185D01*
X167043662Y-86097534D01*
X167224620Y-85970826D01*
X167380826Y-85814620D01*
X167507534Y-85633662D01*
X167600894Y-85433450D01*
X167658070Y-85220068D01*
X167677323Y-85000000D01*
X167658070Y-84779932D01*
X167608390Y-84594525D01*
X167610053Y-84524676D01*
X167649215Y-84466813D01*
X167713443Y-84439309D01*
X167782346Y-84450895D01*
G37*
%TD.AperFunction*%
%TA.AperFunction,Conductor*%
G36*
X143415694Y-65142089D02*
G01*
X144058808Y-65162211D01*
X144314204Y-65174590D01*
X144598550Y-65188373D01*
X144739100Y-65197404D01*
X145240791Y-65229641D01*
X145694160Y-65266754D01*
X145779197Y-65273716D01*
X145870244Y-65282580D01*
X146419771Y-65336086D01*
X146956342Y-65398022D01*
X147594757Y-65481455D01*
X148128696Y-65561152D01*
X148764214Y-65665566D01*
X149295022Y-65762931D01*
X149927002Y-65888235D01*
X150453970Y-66003122D01*
X151081807Y-66149216D01*
X151604316Y-66281466D01*
X152141610Y-66425270D01*
X152227376Y-66448226D01*
X152744854Y-66597671D01*
X153362448Y-66784937D01*
X153874208Y-66951349D01*
X154484698Y-67158616D01*
X154486913Y-67159394D01*
X154991272Y-67342149D01*
X155595042Y-67569540D01*
X155597201Y-67570379D01*
X156094748Y-67769613D01*
X156546473Y-67956926D01*
X156691182Y-68016932D01*
X156693559Y-68017947D01*
X156789709Y-68060209D01*
X157183391Y-68233249D01*
X157772042Y-68500352D01*
X157774302Y-68501407D01*
X158256129Y-68732594D01*
X158836277Y-69019207D01*
X158838641Y-69020407D01*
X159072174Y-69142170D01*
X159311736Y-69267076D01*
X159882852Y-69572991D01*
X159885136Y-69574247D01*
X160349009Y-69836074D01*
X160910569Y-70161074D01*
X160912777Y-70162386D01*
X161328113Y-70415379D01*
X161366913Y-70439013D01*
X161918192Y-70782748D01*
X161920479Y-70784211D01*
X162364216Y-71075154D01*
X162904788Y-71437433D01*
X162907076Y-71439005D01*
X162995463Y-71501254D01*
X163339952Y-71743871D01*
X163483822Y-71847304D01*
X163869152Y-72124331D01*
X163871499Y-72126060D01*
X164292939Y-72444343D01*
X164810414Y-72842825D01*
X164812694Y-72844625D01*
X164970853Y-72972544D01*
X165222114Y-73175763D01*
X165370925Y-73298357D01*
X165727358Y-73591997D01*
X165729653Y-73593935D01*
X166126646Y-73937466D01*
X166619003Y-74371036D01*
X166621265Y-74373077D01*
X167005404Y-74728488D01*
X167087795Y-74805998D01*
X167484529Y-75179230D01*
X167486692Y-75181316D01*
X167650518Y-75343324D01*
X167857422Y-75547932D01*
X168322776Y-76015503D01*
X168324959Y-76017753D01*
X168681818Y-76394924D01*
X169133039Y-76879150D01*
X169135071Y-76881388D01*
X169420868Y-77204308D01*
X169477615Y-77268426D01*
X169914223Y-77769011D01*
X169916263Y-77771414D01*
X170244075Y-78167596D01*
X170665543Y-78684178D01*
X170667574Y-78686736D01*
X170955790Y-79059636D01*
X170980212Y-79091233D01*
X171386274Y-79623772D01*
X171388246Y-79626431D01*
X171685293Y-80038361D01*
X172075529Y-80586641D01*
X172077436Y-80589400D01*
X172259108Y-80859848D01*
X172342979Y-80984704D01*
X172358605Y-81007965D01*
X172732556Y-81571733D01*
X172734396Y-81574590D01*
X172999305Y-81998759D01*
X173356708Y-82578076D01*
X173358475Y-82581030D01*
X173606692Y-83009546D01*
X173947253Y-83604499D01*
X173948942Y-83607548D01*
X174180148Y-84039165D01*
X174503564Y-84649915D01*
X174505171Y-84653058D01*
X174719000Y-85086242D01*
X175024992Y-85713104D01*
X175026513Y-85716338D01*
X175222671Y-86149427D01*
X175511007Y-86792986D01*
X175512438Y-86796309D01*
X175690576Y-87227174D01*
X175961040Y-87888293D01*
X175962377Y-87891702D01*
X176122221Y-88317918D01*
X176374654Y-88997964D01*
X176375892Y-89001457D01*
X176516990Y-89419448D01*
X176751366Y-90120723D01*
X176752500Y-90124296D01*
X176874533Y-90529821D01*
X177090745Y-91255282D01*
X177091772Y-91258933D01*
X177194362Y-91646039D01*
X177392429Y-92400416D01*
X177393346Y-92404142D01*
X177475968Y-92763779D01*
X177656107Y-93554953D01*
X177656909Y-93558749D01*
X177718823Y-93876271D01*
X177881474Y-94717555D01*
X177882157Y-94721420D01*
X177922210Y-94970681D01*
X178068280Y-95886945D01*
X178068842Y-95890873D01*
X178084424Y-96013799D01*
X178215978Y-97059084D01*
X178216421Y-97063138D01*
X178324638Y-98232163D01*
X178324947Y-98236230D01*
X178394567Y-99406622D01*
X178394786Y-99413889D01*
X178419461Y-131391490D01*
X178417940Y-131396684D01*
X178419420Y-131437801D01*
X178419500Y-131442214D01*
X178419604Y-131718542D01*
X178419308Y-131926560D01*
X178418965Y-131935602D01*
X178399648Y-132194699D01*
X178381414Y-132422808D01*
X178380430Y-132431359D01*
X178342325Y-132684840D01*
X178305679Y-132914659D01*
X178304128Y-132922675D01*
X178247483Y-133171305D01*
X178192549Y-133399254D01*
X178190506Y-133406700D01*
X178115623Y-133649804D01*
X178042695Y-133873732D01*
X178040239Y-133880582D01*
X177947487Y-134117184D01*
X177857005Y-134335321D01*
X177854213Y-134341558D01*
X177744713Y-134569166D01*
X177743439Y-134571738D01*
X177636561Y-134781333D01*
X177633506Y-134786960D01*
X177507422Y-135005545D01*
X177505729Y-135008392D01*
X177382663Y-135209157D01*
X177379425Y-135214164D01*
X177237425Y-135422617D01*
X177235265Y-135425687D01*
X177096818Y-135616260D01*
X177093475Y-135620653D01*
X176936348Y-135817847D01*
X176933678Y-135821083D01*
X176780668Y-136000316D01*
X176777293Y-136004110D01*
X176605917Y-136188960D01*
X176602701Y-136192302D01*
X176436120Y-136359018D01*
X176432781Y-136362236D01*
X176248044Y-136533787D01*
X176244253Y-136537166D01*
X176065170Y-136690300D01*
X176061935Y-136692973D01*
X175864857Y-136850269D01*
X175860467Y-136853615D01*
X175670005Y-136992217D01*
X175666937Y-136994380D01*
X175458601Y-137136548D01*
X175453597Y-137139789D01*
X175252939Y-137263015D01*
X175250093Y-137264711D01*
X175031600Y-137390978D01*
X175025976Y-137394037D01*
X174816490Y-137501074D01*
X174813918Y-137502351D01*
X174586388Y-137612040D01*
X174580144Y-137614840D01*
X174362079Y-137705502D01*
X174125550Y-137798448D01*
X174118704Y-137800909D01*
X173894870Y-137874006D01*
X173651794Y-137949099D01*
X173644350Y-137951146D01*
X173416466Y-138006260D01*
X173167859Y-138063114D01*
X173159845Y-138064671D01*
X172930108Y-138101494D01*
X172676608Y-138139814D01*
X172668058Y-138140804D01*
X172439888Y-138159229D01*
X172180916Y-138178748D01*
X172171872Y-138179099D01*
X171961148Y-138179566D01*
X171687711Y-138179684D01*
X171683429Y-138179612D01*
X171650800Y-138178498D01*
X171636764Y-138179676D01*
X113316493Y-138179499D01*
X113313528Y-138178628D01*
X113267567Y-138179457D01*
X113262986Y-138179455D01*
X112997029Y-138174420D01*
X112784742Y-138170006D01*
X112775604Y-138169478D01*
X112520051Y-138145223D01*
X112295022Y-138122575D01*
X112286422Y-138121404D01*
X112036629Y-138078441D01*
X111810468Y-138037335D01*
X111802445Y-138035600D01*
X111557817Y-137974171D01*
X111334016Y-137914808D01*
X111326603Y-137912592D01*
X111087836Y-137833008D01*
X110989751Y-137798448D01*
X110868513Y-137755729D01*
X110861737Y-137753115D01*
X110631117Y-137656308D01*
X110628747Y-137655284D01*
X110416801Y-137561080D01*
X110410683Y-137558158D01*
X110275623Y-137489019D01*
X110188305Y-137444319D01*
X110185608Y-137442896D01*
X109981531Y-137332009D01*
X109976053Y-137328848D01*
X109763109Y-137198631D01*
X109760142Y-137196760D01*
X109565373Y-137069925D01*
X109560535Y-137066608D01*
X109358155Y-136920737D01*
X109354956Y-136918353D01*
X109170803Y-136776400D01*
X109166602Y-136773013D01*
X109012742Y-136643357D01*
X108975857Y-136612274D01*
X108972515Y-136609353D01*
X108800180Y-136453193D01*
X108796595Y-136449813D01*
X108618593Y-136275148D01*
X108615145Y-136271628D01*
X108537338Y-136188960D01*
X108455738Y-136102262D01*
X108452757Y-136098978D01*
X108288450Y-135911323D01*
X108284984Y-135907186D01*
X108139585Y-135725768D01*
X108137141Y-135722616D01*
X108041579Y-135595188D01*
X107987449Y-135523009D01*
X107984045Y-135518239D01*
X107919166Y-135422617D01*
X107853546Y-135325903D01*
X107851661Y-135323037D01*
X107717392Y-135112522D01*
X107714124Y-135107096D01*
X107599426Y-134905210D01*
X107597952Y-134902539D01*
X107479915Y-134682334D01*
X107476874Y-134676267D01*
X107378641Y-134466068D01*
X107377668Y-134463929D01*
X107276429Y-134234990D01*
X107273713Y-134228325D01*
X107193364Y-134013356D01*
X119715335Y-134013356D01*
X119734343Y-134363958D01*
X119735069Y-134370630D01*
X119791874Y-134717130D01*
X119793317Y-134723684D01*
X119887251Y-135062001D01*
X119889396Y-135068368D01*
X120019360Y-135394552D01*
X120022169Y-135400626D01*
X120186649Y-135710868D01*
X120190102Y-135716606D01*
X120387147Y-136007225D01*
X120391207Y-136012566D01*
X120516441Y-136160003D01*
X120516442Y-136160004D01*
X121722266Y-134954180D01*
X121885130Y-135144870D01*
X122075818Y-135307732D01*
X120867255Y-136516295D01*
X120878047Y-136526518D01*
X120883157Y-136530858D01*
X121162694Y-136743357D01*
X121168240Y-136747117D01*
X121469099Y-136928137D01*
X121475038Y-136931285D01*
X121793695Y-137078712D01*
X121799937Y-137081199D01*
X122132684Y-137193315D01*
X122139129Y-137195104D01*
X122482053Y-137270588D01*
X122488677Y-137271674D01*
X122837740Y-137309636D01*
X122844437Y-137310000D01*
X123195563Y-137310000D01*
X123202259Y-137309636D01*
X123551322Y-137271674D01*
X123557946Y-137270588D01*
X123900870Y-137195104D01*
X123907315Y-137193315D01*
X124240062Y-137081199D01*
X124246304Y-137078712D01*
X124564961Y-136931285D01*
X124570900Y-136928137D01*
X124871759Y-136747117D01*
X124877305Y-136743357D01*
X125156846Y-136530856D01*
X125161950Y-136526519D01*
X125172742Y-136516296D01*
X125172743Y-136516295D01*
X123964180Y-135307733D01*
X124154870Y-135144870D01*
X124317733Y-134954180D01*
X125523556Y-136160003D01*
X125523557Y-136160003D01*
X125648792Y-136012566D01*
X125652852Y-136007225D01*
X125849897Y-135716606D01*
X125853350Y-135710868D01*
X126017830Y-135400626D01*
X126020639Y-135394552D01*
X126150603Y-135068368D01*
X126152748Y-135062001D01*
X126246682Y-134723684D01*
X126248125Y-134717130D01*
X126304930Y-134370630D01*
X126305656Y-134363958D01*
X126319865Y-134101878D01*
X130219500Y-134101878D01*
X130219501Y-134105008D01*
X130219820Y-134108140D01*
X130219821Y-134108141D01*
X130230000Y-134207796D01*
X130285186Y-134374334D01*
X130377288Y-134523657D01*
X130501342Y-134647711D01*
X130501344Y-134647712D01*
X130650666Y-134739814D01*
X130762016Y-134776712D01*
X130817202Y-134794999D01*
X130916858Y-134805180D01*
X130916859Y-134805180D01*
X130919991Y-134805500D01*
X132220008Y-134805499D01*
X132322797Y-134794999D01*
X132489334Y-134739814D01*
X132638656Y-134647712D01*
X132762712Y-134523656D01*
X132854814Y-134374334D01*
X132854814Y-134374331D01*
X132858178Y-134368879D01*
X132910125Y-134322154D01*
X132979088Y-134310931D01*
X133043170Y-134338774D01*
X133051398Y-134346294D01*
X133198599Y-134493495D01*
X133392170Y-134629035D01*
X133606337Y-134728903D01*
X133792942Y-134778903D01*
X133834592Y-134790063D01*
X134069999Y-134810659D01*
X134069999Y-134810658D01*
X134070000Y-134810659D01*
X134305408Y-134790063D01*
X134533663Y-134728903D01*
X134747829Y-134629035D01*
X134941401Y-134493495D01*
X135108495Y-134326401D01*
X135218426Y-134169401D01*
X135273002Y-134125778D01*
X135342500Y-134118584D01*
X135404855Y-134150107D01*
X135421571Y-134169398D01*
X135531505Y-134326401D01*
X135698599Y-134493495D01*
X135892170Y-134629035D01*
X136106337Y-134728903D01*
X136334592Y-134790063D01*
X136570000Y-134810659D01*
X136805408Y-134790063D01*
X137033663Y-134728903D01*
X137247829Y-134629035D01*
X137441401Y-134493495D01*
X137608495Y-134326401D01*
X137718426Y-134169401D01*
X137773002Y-134125778D01*
X137842500Y-134118584D01*
X137904855Y-134150107D01*
X137921571Y-134169398D01*
X138031505Y-134326401D01*
X138198599Y-134493495D01*
X138392170Y-134629035D01*
X138606337Y-134728903D01*
X138834592Y-134790063D01*
X139070000Y-134810659D01*
X139305408Y-134790063D01*
X139533663Y-134728903D01*
X139747829Y-134629035D01*
X139941401Y-134493495D01*
X140108495Y-134326401D01*
X140230697Y-134151878D01*
X144539500Y-134151878D01*
X144539501Y-134155008D01*
X144539820Y-134158140D01*
X144539821Y-134158141D01*
X144550000Y-134257796D01*
X144605186Y-134424334D01*
X144697288Y-134573657D01*
X144821342Y-134697711D01*
X144871911Y-134728902D01*
X144970666Y-134789814D01*
X145082016Y-134826712D01*
X145137202Y-134844999D01*
X145236858Y-134855180D01*
X145236859Y-134855180D01*
X145239991Y-134855500D01*
X146540008Y-134855499D01*
X146642797Y-134844999D01*
X146809334Y-134789814D01*
X146958656Y-134697712D01*
X147082712Y-134573656D01*
X147174814Y-134424334D01*
X147174814Y-134424331D01*
X147178178Y-134418879D01*
X147230125Y-134372154D01*
X147299088Y-134360931D01*
X147363170Y-134388774D01*
X147371398Y-134396294D01*
X147518599Y-134543495D01*
X147712170Y-134679035D01*
X147926337Y-134778903D01*
X148147572Y-134838182D01*
X148154592Y-134840063D01*
X148389999Y-134860659D01*
X148389999Y-134860658D01*
X148390000Y-134860659D01*
X148625408Y-134840063D01*
X148853663Y-134778903D01*
X149067829Y-134679035D01*
X149261401Y-134543495D01*
X149428495Y-134376401D01*
X149538426Y-134219401D01*
X149593002Y-134175778D01*
X149662500Y-134168584D01*
X149724855Y-134200107D01*
X149741571Y-134219398D01*
X149851505Y-134376401D01*
X150018599Y-134543495D01*
X150212170Y-134679035D01*
X150426337Y-134778903D01*
X150647572Y-134838182D01*
X150654592Y-134840063D01*
X150889999Y-134860659D01*
X150889999Y-134860658D01*
X150890000Y-134860659D01*
X151125408Y-134840063D01*
X151353663Y-134778903D01*
X151567829Y-134679035D01*
X151761401Y-134543495D01*
X151928495Y-134376401D01*
X152038426Y-134219401D01*
X152093002Y-134175778D01*
X152162500Y-134168584D01*
X152224855Y-134200107D01*
X152241571Y-134219398D01*
X152351505Y-134376401D01*
X152518599Y-134543495D01*
X152712170Y-134679035D01*
X152926337Y-134778903D01*
X153154592Y-134840063D01*
X153390000Y-134860659D01*
X153625408Y-134840063D01*
X153853663Y-134778903D01*
X154067829Y-134679035D01*
X154261401Y-134543495D01*
X154428495Y-134376401D01*
X154564035Y-134182829D01*
X154663903Y-133968663D01*
X154678722Y-133913356D01*
X157275335Y-133913356D01*
X157294343Y-134263958D01*
X157295069Y-134270630D01*
X157351874Y-134617130D01*
X157353317Y-134623684D01*
X157447251Y-134962001D01*
X157449396Y-134968368D01*
X157579360Y-135294552D01*
X157582169Y-135300626D01*
X157746649Y-135610868D01*
X157750102Y-135616606D01*
X157947147Y-135907225D01*
X157951207Y-135912566D01*
X158076441Y-136060003D01*
X158076442Y-136060004D01*
X159282266Y-134854180D01*
X159445130Y-135044870D01*
X159635818Y-135207732D01*
X158427255Y-136416295D01*
X158438047Y-136426518D01*
X158443157Y-136430858D01*
X158722694Y-136643357D01*
X158728240Y-136647117D01*
X159029099Y-136828137D01*
X159035038Y-136831285D01*
X159353695Y-136978712D01*
X159359937Y-136981199D01*
X159692684Y-137093315D01*
X159699129Y-137095104D01*
X160042053Y-137170588D01*
X160048677Y-137171674D01*
X160397740Y-137209636D01*
X160404437Y-137210000D01*
X160755563Y-137210000D01*
X160762259Y-137209636D01*
X161111322Y-137171674D01*
X161117946Y-137170588D01*
X161460870Y-137095104D01*
X161467315Y-137093315D01*
X161800062Y-136981199D01*
X161806304Y-136978712D01*
X162124961Y-136831285D01*
X162130900Y-136828137D01*
X162431759Y-136647117D01*
X162437305Y-136643357D01*
X162716846Y-136430856D01*
X162721950Y-136426519D01*
X162732742Y-136416296D01*
X162732743Y-136416295D01*
X161524180Y-135207733D01*
X161714870Y-135044870D01*
X161877733Y-134854180D01*
X163083556Y-136060003D01*
X163083557Y-136060003D01*
X163208792Y-135912566D01*
X163212852Y-135907225D01*
X163409897Y-135616606D01*
X163413350Y-135610868D01*
X163577830Y-135300626D01*
X163580639Y-135294552D01*
X163710603Y-134968368D01*
X163712748Y-134962001D01*
X163806682Y-134623684D01*
X163808125Y-134617130D01*
X163864930Y-134270630D01*
X163865656Y-134263958D01*
X163884665Y-133913356D01*
X163884665Y-133906643D01*
X163865656Y-133556041D01*
X163864930Y-133549369D01*
X163808125Y-133202869D01*
X163806682Y-133196315D01*
X163712748Y-132857998D01*
X163710603Y-132851631D01*
X163580639Y-132525447D01*
X163577830Y-132519373D01*
X163413350Y-132209131D01*
X163409897Y-132203393D01*
X163212852Y-131912774D01*
X163208792Y-131907433D01*
X163083557Y-131759995D01*
X163083556Y-131759994D01*
X161877732Y-132965818D01*
X161714870Y-132775130D01*
X161524180Y-132612266D01*
X162732743Y-131403703D01*
X162721942Y-131393473D01*
X162716842Y-131389141D01*
X162437305Y-131176642D01*
X162431759Y-131172882D01*
X162130900Y-130991862D01*
X162124961Y-130988714D01*
X161806304Y-130841287D01*
X161800062Y-130838800D01*
X161467315Y-130726684D01*
X161460870Y-130724895D01*
X161117946Y-130649411D01*
X161111322Y-130648325D01*
X160762259Y-130610363D01*
X160755563Y-130610000D01*
X160404437Y-130610000D01*
X160397740Y-130610363D01*
X160048677Y-130648325D01*
X160042053Y-130649411D01*
X159699129Y-130724895D01*
X159692684Y-130726684D01*
X159359937Y-130838800D01*
X159353695Y-130841287D01*
X159035038Y-130988714D01*
X159029099Y-130991862D01*
X158728240Y-131172882D01*
X158722694Y-131176642D01*
X158443149Y-131389146D01*
X158438054Y-131393474D01*
X158427256Y-131403702D01*
X158427255Y-131403703D01*
X159635819Y-132612266D01*
X159445130Y-132775130D01*
X159282266Y-132965818D01*
X158076442Y-131759994D01*
X158076441Y-131759995D01*
X157951207Y-131907433D01*
X157947147Y-131912774D01*
X157750102Y-132203393D01*
X157746649Y-132209131D01*
X157582169Y-132519373D01*
X157579360Y-132525447D01*
X157449396Y-132851631D01*
X157447251Y-132857998D01*
X157353317Y-133196315D01*
X157351874Y-133202869D01*
X157295069Y-133549369D01*
X157294343Y-133556041D01*
X157275335Y-133906643D01*
X157275335Y-133913356D01*
X154678722Y-133913356D01*
X154725063Y-133740408D01*
X154740500Y-133563966D01*
X154740500Y-133196034D01*
X154725063Y-133019592D01*
X154663903Y-132791337D01*
X154564035Y-132577171D01*
X154428495Y-132383599D01*
X154261401Y-132216505D01*
X154067830Y-132080965D01*
X153853663Y-131981097D01*
X153792502Y-131964709D01*
X153625407Y-131919936D01*
X153390000Y-131899340D01*
X153154592Y-131919936D01*
X152926336Y-131981097D01*
X152712170Y-132080965D01*
X152518598Y-132216505D01*
X152351505Y-132383598D01*
X152241575Y-132540596D01*
X152186998Y-132584221D01*
X152117500Y-132591415D01*
X152055145Y-132559892D01*
X152038425Y-132540596D01*
X151961937Y-132431359D01*
X151928495Y-132383599D01*
X151761401Y-132216505D01*
X151567830Y-132080965D01*
X151353663Y-131981097D01*
X151292502Y-131964709D01*
X151125407Y-131919936D01*
X150889999Y-131899340D01*
X150654592Y-131919936D01*
X150426336Y-131981097D01*
X150212170Y-132080965D01*
X150018598Y-132216505D01*
X149851505Y-132383598D01*
X149741575Y-132540596D01*
X149686998Y-132584221D01*
X149617500Y-132591415D01*
X149555145Y-132559892D01*
X149538425Y-132540596D01*
X149461937Y-132431359D01*
X149428495Y-132383599D01*
X149261401Y-132216505D01*
X149067830Y-132080965D01*
X148853663Y-131981097D01*
X148792502Y-131964709D01*
X148625407Y-131919936D01*
X148390000Y-131899340D01*
X148154592Y-131919936D01*
X147926336Y-131981097D01*
X147712170Y-132080965D01*
X147518601Y-132216503D01*
X147371398Y-132363706D01*
X147310075Y-132397190D01*
X147240383Y-132392206D01*
X147184450Y-132350334D01*
X147178178Y-132341120D01*
X147082711Y-132186342D01*
X146958657Y-132062288D01*
X146809334Y-131970186D01*
X146642797Y-131915000D01*
X146543141Y-131904819D01*
X146543122Y-131904818D01*
X146540009Y-131904500D01*
X146536860Y-131904500D01*
X145243140Y-131904500D01*
X145243120Y-131904500D01*
X145239992Y-131904501D01*
X145236860Y-131904820D01*
X145236858Y-131904821D01*
X145137203Y-131915000D01*
X144970665Y-131970186D01*
X144821342Y-132062288D01*
X144697288Y-132186342D01*
X144605186Y-132335665D01*
X144550000Y-132502202D01*
X144539819Y-132601858D01*
X144539817Y-132601878D01*
X144539500Y-132604991D01*
X144539500Y-132608138D01*
X144539500Y-132608139D01*
X144539500Y-134151859D01*
X144539500Y-134151878D01*
X140230697Y-134151878D01*
X140244035Y-134132829D01*
X140343903Y-133918663D01*
X140405063Y-133690408D01*
X140420500Y-133513966D01*
X140420500Y-133146034D01*
X140405063Y-132969592D01*
X140343903Y-132741337D01*
X140244035Y-132527171D01*
X140108495Y-132333599D01*
X139941401Y-132166505D01*
X139747830Y-132030965D01*
X139533663Y-131931097D01*
X139445347Y-131907433D01*
X139305407Y-131869936D01*
X139070000Y-131849340D01*
X138834592Y-131869936D01*
X138606336Y-131931097D01*
X138392170Y-132030965D01*
X138198598Y-132166505D01*
X138031505Y-132333598D01*
X137921575Y-132490596D01*
X137866998Y-132534221D01*
X137797500Y-132541415D01*
X137735145Y-132509892D01*
X137718425Y-132490596D01*
X137672363Y-132424812D01*
X137608495Y-132333599D01*
X137441401Y-132166505D01*
X137247830Y-132030965D01*
X137033663Y-131931097D01*
X136945347Y-131907433D01*
X136805407Y-131869936D01*
X136570000Y-131849340D01*
X136334592Y-131869936D01*
X136106336Y-131931097D01*
X135892170Y-132030965D01*
X135698598Y-132166505D01*
X135531505Y-132333598D01*
X135421575Y-132490596D01*
X135366998Y-132534221D01*
X135297500Y-132541415D01*
X135235145Y-132509892D01*
X135218425Y-132490596D01*
X135172363Y-132424812D01*
X135108495Y-132333599D01*
X134941401Y-132166505D01*
X134747830Y-132030965D01*
X134533663Y-131931097D01*
X134445347Y-131907433D01*
X134305407Y-131869936D01*
X134069999Y-131849340D01*
X133834592Y-131869936D01*
X133606336Y-131931097D01*
X133392170Y-132030965D01*
X133198601Y-132166503D01*
X133051398Y-132313706D01*
X132990075Y-132347190D01*
X132920383Y-132342206D01*
X132864450Y-132300334D01*
X132858178Y-132291120D01*
X132762711Y-132136342D01*
X132638657Y-132012288D01*
X132489334Y-131920186D01*
X132322797Y-131865000D01*
X132223141Y-131854819D01*
X132223122Y-131854818D01*
X132220009Y-131854500D01*
X132216860Y-131854500D01*
X130923140Y-131854500D01*
X130923120Y-131854500D01*
X130919992Y-131854501D01*
X130916860Y-131854820D01*
X130916858Y-131854821D01*
X130817203Y-131865000D01*
X130650665Y-131920186D01*
X130501342Y-132012288D01*
X130377288Y-132136342D01*
X130285186Y-132285665D01*
X130230000Y-132452202D01*
X130219819Y-132551858D01*
X130219817Y-132551878D01*
X130219500Y-132554991D01*
X130219500Y-132558138D01*
X130219500Y-132558139D01*
X130219500Y-134101859D01*
X130219500Y-134101878D01*
X126319865Y-134101878D01*
X126324664Y-134013356D01*
X126324664Y-134006643D01*
X126305656Y-133656041D01*
X126304930Y-133649369D01*
X126248125Y-133302869D01*
X126246682Y-133296315D01*
X126152748Y-132957998D01*
X126150603Y-132951631D01*
X126020639Y-132625447D01*
X126017830Y-132619373D01*
X125853350Y-132309131D01*
X125849897Y-132303393D01*
X125652852Y-132012774D01*
X125648792Y-132007433D01*
X125523557Y-131859995D01*
X125523556Y-131859994D01*
X124317732Y-133065818D01*
X124154870Y-132875130D01*
X123964179Y-132712266D01*
X125172743Y-131503703D01*
X125161942Y-131493473D01*
X125156842Y-131489141D01*
X124877305Y-131276642D01*
X124871759Y-131272882D01*
X124570900Y-131091862D01*
X124564961Y-131088714D01*
X124246304Y-130941287D01*
X124240062Y-130938800D01*
X123907315Y-130826684D01*
X123900870Y-130824895D01*
X123557946Y-130749411D01*
X123551322Y-130748325D01*
X123202259Y-130710363D01*
X123195563Y-130710000D01*
X122844437Y-130710000D01*
X122837740Y-130710363D01*
X122488677Y-130748325D01*
X122482053Y-130749411D01*
X122139129Y-130824895D01*
X122132684Y-130826684D01*
X121799937Y-130938800D01*
X121793695Y-130941287D01*
X121475038Y-131088714D01*
X121469099Y-131091862D01*
X121168240Y-131272882D01*
X121162694Y-131276642D01*
X120883149Y-131489146D01*
X120878054Y-131493474D01*
X120867256Y-131503702D01*
X120867255Y-131503704D01*
X122075818Y-132712267D01*
X121885130Y-132875130D01*
X121722267Y-133065818D01*
X120516442Y-131859994D01*
X120516441Y-131859995D01*
X120391207Y-132007433D01*
X120387147Y-132012774D01*
X120190102Y-132303393D01*
X120186649Y-132309131D01*
X120022169Y-132619373D01*
X120019360Y-132625447D01*
X119889396Y-132951631D01*
X119887251Y-132957998D01*
X119793317Y-133296315D01*
X119791874Y-133302869D01*
X119735069Y-133649369D01*
X119734343Y-133656041D01*
X119715335Y-134006643D01*
X119715335Y-134013356D01*
X107193364Y-134013356D01*
X107192307Y-134010527D01*
X107108201Y-133773257D01*
X107105849Y-133765896D01*
X107042268Y-133543279D01*
X107034336Y-133514044D01*
X106976213Y-133299832D01*
X106974333Y-133291872D01*
X106928963Y-133066568D01*
X106881272Y-132817588D01*
X106879942Y-132809035D01*
X106853027Y-132584365D01*
X106841536Y-132483604D01*
X106823946Y-132329367D01*
X106823248Y-132320289D01*
X106814953Y-132111657D01*
X106813415Y-132071049D01*
X106804736Y-131841870D01*
X106804649Y-131837349D01*
X106802676Y-127649999D01*
X110394534Y-127649999D01*
X110414364Y-127914616D01*
X110473414Y-128173329D01*
X110565543Y-128408070D01*
X110570361Y-128420345D01*
X110588597Y-128451930D01*
X110703041Y-128650154D01*
X110703631Y-128650894D01*
X110868492Y-128857623D01*
X111038490Y-129015357D01*
X111063018Y-129038116D01*
X111189374Y-129124264D01*
X111282268Y-129187598D01*
X111400418Y-129244496D01*
X111491913Y-129288558D01*
X111543772Y-129335381D01*
X111562085Y-129402808D01*
X111541037Y-129469432D01*
X111491913Y-129511998D01*
X111282518Y-129612837D01*
X111106438Y-129732886D01*
X111874856Y-130501304D01*
X111837061Y-130515638D01*
X111694923Y-130613749D01*
X111580395Y-130743025D01*
X111521564Y-130855117D01*
X110753643Y-130087196D01*
X110703455Y-130150130D01*
X110570813Y-130379873D01*
X110473894Y-130626817D01*
X110414861Y-130885457D01*
X110395036Y-131150000D01*
X110414861Y-131414542D01*
X110473894Y-131673182D01*
X110570813Y-131920126D01*
X110703456Y-132149871D01*
X110753642Y-132212803D01*
X110753643Y-132212803D01*
X111521564Y-131444882D01*
X111580395Y-131556975D01*
X111694923Y-131686251D01*
X111837061Y-131784362D01*
X111874856Y-131798695D01*
X111106438Y-132567112D01*
X111282521Y-132687163D01*
X111521533Y-132802265D01*
X111775034Y-132880461D01*
X112037356Y-132920000D01*
X112302644Y-132920000D01*
X112564965Y-132880461D01*
X112818469Y-132802265D01*
X113057481Y-132687163D01*
X113233560Y-132567112D01*
X112465143Y-131798695D01*
X112502939Y-131784362D01*
X112645077Y-131686251D01*
X112759605Y-131556975D01*
X112818435Y-131444882D01*
X113586355Y-132212803D01*
X113636543Y-132149870D01*
X113769186Y-131920126D01*
X113866105Y-131673182D01*
X113925138Y-131414542D01*
X113944963Y-131149999D01*
X113925138Y-130885457D01*
X113866105Y-130626817D01*
X113769186Y-130379873D01*
X113636543Y-130150128D01*
X113586355Y-130087195D01*
X112818435Y-130855116D01*
X112759605Y-130743025D01*
X112645077Y-130613749D01*
X112502939Y-130515638D01*
X112465143Y-130501304D01*
X113233560Y-129732886D01*
X113057481Y-129612836D01*
X112848087Y-129511998D01*
X112796227Y-129465176D01*
X112777914Y-129397749D01*
X112798962Y-129331125D01*
X112848087Y-129288558D01*
X112893791Y-129266548D01*
X113057733Y-129187598D01*
X113235586Y-129066339D01*
X113276986Y-129038113D01*
X113412375Y-128912490D01*
X113471508Y-128857623D01*
X113636958Y-128650155D01*
X113769639Y-128420345D01*
X113866586Y-128173327D01*
X113925635Y-127914619D01*
X113945465Y-127650000D01*
X113925635Y-127385381D01*
X113866586Y-127126673D01*
X113769639Y-126879655D01*
X113636958Y-126649845D01*
X113471508Y-126442377D01*
X113454635Y-126426721D01*
X113276986Y-126261886D01*
X113057732Y-126112401D01*
X112818650Y-125997266D01*
X112565079Y-125919050D01*
X112302682Y-125879500D01*
X112302681Y-125879500D01*
X112037319Y-125879500D01*
X112037318Y-125879500D01*
X111774920Y-125919050D01*
X111521351Y-125997265D01*
X111282265Y-126112403D01*
X111063018Y-126261883D01*
X110868492Y-126442377D01*
X110703041Y-126649845D01*
X110570360Y-126879656D01*
X110473414Y-127126670D01*
X110414364Y-127385383D01*
X110394534Y-127649999D01*
X106802676Y-127649999D01*
X106796917Y-115430000D01*
X109474340Y-115430000D01*
X109494936Y-115665407D01*
X109556097Y-115893663D01*
X109655965Y-116107829D01*
X109791505Y-116301401D01*
X109939068Y-116448964D01*
X109972553Y-116510287D01*
X109967569Y-116579979D01*
X109925697Y-116635912D01*
X109916484Y-116642184D01*
X109761653Y-116737684D01*
X109637683Y-116861654D01*
X109545642Y-117010877D01*
X109490493Y-117177303D01*
X109480319Y-117276890D01*
X109480000Y-117283168D01*
X109480000Y-117680000D01*
X110551031Y-117680000D01*
X110518481Y-117730649D01*
X110480000Y-117861705D01*
X110480000Y-117998295D01*
X110518481Y-118129351D01*
X110551031Y-118180000D01*
X109480001Y-118180000D01*
X109480001Y-118576829D01*
X109480321Y-118583111D01*
X109490493Y-118682695D01*
X109545642Y-118849122D01*
X109637683Y-118998345D01*
X109761654Y-119122316D01*
X109910877Y-119214357D01*
X110077303Y-119269506D01*
X110176890Y-119279680D01*
X110183168Y-119279999D01*
X110704999Y-119279999D01*
X110705000Y-119279998D01*
X110705000Y-118338018D01*
X110819801Y-118390446D01*
X110921025Y-118405000D01*
X110988975Y-118405000D01*
X111090199Y-118390446D01*
X111205000Y-118338018D01*
X111205000Y-119279999D01*
X111726829Y-119279999D01*
X111733111Y-119279678D01*
X111832695Y-119269506D01*
X111999122Y-119214357D01*
X112148345Y-119122316D01*
X112272316Y-118998345D01*
X112364357Y-118849122D01*
X112419506Y-118682696D01*
X112429680Y-118583109D01*
X112430000Y-118576831D01*
X112430000Y-118180000D01*
X111358969Y-118180000D01*
X111391519Y-118129351D01*
X111430000Y-117998295D01*
X111430000Y-117861705D01*
X111391519Y-117730649D01*
X111358969Y-117680000D01*
X112429999Y-117680000D01*
X112429999Y-117283170D01*
X112429678Y-117276888D01*
X112419506Y-117177304D01*
X112364357Y-117010877D01*
X112272316Y-116861654D01*
X112148346Y-116737684D01*
X111993515Y-116642184D01*
X111946791Y-116590236D01*
X111935568Y-116521273D01*
X111963412Y-116457191D01*
X111970909Y-116448986D01*
X112118495Y-116301401D01*
X112254035Y-116107830D01*
X112353903Y-115893663D01*
X112415063Y-115665408D01*
X112435659Y-115430000D01*
X112415063Y-115194592D01*
X112353903Y-114966337D01*
X112254035Y-114752171D01*
X112118495Y-114558599D01*
X111951401Y-114391505D01*
X111794403Y-114281574D01*
X111750779Y-114226998D01*
X111743585Y-114157500D01*
X111775108Y-114095145D01*
X111794404Y-114078425D01*
X111951401Y-113968495D01*
X112118495Y-113801401D01*
X112254035Y-113607830D01*
X112353903Y-113393663D01*
X112415063Y-113165408D01*
X112434443Y-112943892D01*
X112459895Y-112878825D01*
X112516486Y-112837846D01*
X112586248Y-112833968D01*
X112645652Y-112867020D01*
X117888975Y-118110342D01*
X117922460Y-118171665D01*
X117917476Y-118241357D01*
X117875604Y-118297290D01*
X117833389Y-118317797D01*
X117716552Y-118349104D01*
X117516338Y-118442466D01*
X117335379Y-118569174D01*
X117179174Y-118725379D01*
X117052466Y-118906338D01*
X116959106Y-119106548D01*
X116901929Y-119319934D01*
X116882676Y-119540000D01*
X116901929Y-119760065D01*
X116959106Y-119973451D01*
X117052466Y-120173661D01*
X117052466Y-120173662D01*
X117179174Y-120354620D01*
X117335380Y-120510826D01*
X117516338Y-120637534D01*
X117635748Y-120693215D01*
X117645189Y-120697618D01*
X117697628Y-120743790D01*
X117716780Y-120810984D01*
X117696564Y-120877865D01*
X117645189Y-120922382D01*
X117516338Y-120982466D01*
X117335379Y-121109174D01*
X117179174Y-121265379D01*
X117052466Y-121446338D01*
X116959106Y-121646548D01*
X116901929Y-121859934D01*
X116882676Y-122080000D01*
X116901929Y-122300065D01*
X116959106Y-122513451D01*
X117052466Y-122713661D01*
X117052466Y-122713662D01*
X117179174Y-122894620D01*
X117335380Y-123050826D01*
X117516338Y-123177534D01*
X117635748Y-123233215D01*
X117645189Y-123237618D01*
X117697628Y-123283790D01*
X117716780Y-123350984D01*
X117696564Y-123417865D01*
X117645189Y-123462382D01*
X117516338Y-123522466D01*
X117335379Y-123649174D01*
X117179174Y-123805379D01*
X117052466Y-123986338D01*
X116959106Y-124186548D01*
X116901929Y-124399934D01*
X116882676Y-124619999D01*
X116901929Y-124840065D01*
X116901930Y-124840068D01*
X116959106Y-125053450D01*
X117052466Y-125253662D01*
X117179174Y-125434620D01*
X117335380Y-125590826D01*
X117516338Y-125717534D01*
X117635748Y-125773215D01*
X117645189Y-125777618D01*
X117697628Y-125823790D01*
X117716780Y-125890984D01*
X117696564Y-125957865D01*
X117645189Y-126002382D01*
X117516338Y-126062466D01*
X117335379Y-126189174D01*
X117179174Y-126345379D01*
X117052466Y-126526338D01*
X116959106Y-126726548D01*
X116901929Y-126939934D01*
X116882676Y-127160000D01*
X116901929Y-127380065D01*
X116959106Y-127593451D01*
X117031800Y-127749343D01*
X117052466Y-127793662D01*
X117179174Y-127974620D01*
X117335380Y-128130826D01*
X117516338Y-128257534D01*
X117629809Y-128310446D01*
X117682248Y-128356618D01*
X117701400Y-128423812D01*
X117681184Y-128490693D01*
X117629809Y-128535210D01*
X117509816Y-128591164D01*
X117509814Y-128591165D01*
X117326993Y-128719178D01*
X117326989Y-128719181D01*
X117169181Y-128876989D01*
X117169178Y-128876992D01*
X117169178Y-128876993D01*
X117041165Y-129059814D01*
X117019491Y-129106294D01*
X116946844Y-129262085D01*
X116889079Y-129477668D01*
X116869627Y-129700000D01*
X116889079Y-129922331D01*
X116946844Y-130137914D01*
X116997677Y-130246925D01*
X117041165Y-130340186D01*
X117169178Y-130523007D01*
X117326993Y-130680822D01*
X117509814Y-130808835D01*
X117509817Y-130808836D01*
X117509818Y-130808837D01*
X117629808Y-130864789D01*
X117682248Y-130910961D01*
X117701400Y-130978154D01*
X117681184Y-131045036D01*
X117629810Y-131089553D01*
X117516336Y-131142467D01*
X117335379Y-131269174D01*
X117179174Y-131425379D01*
X117052466Y-131606338D01*
X116959106Y-131806548D01*
X116901929Y-132019934D01*
X116882676Y-132240000D01*
X116901929Y-132460065D01*
X116959106Y-132673451D01*
X117042193Y-132851631D01*
X117052466Y-132873662D01*
X117179174Y-133054620D01*
X117335380Y-133210826D01*
X117516338Y-133337534D01*
X117716550Y-133430894D01*
X117929932Y-133488070D01*
X118150000Y-133507323D01*
X118370068Y-133488070D01*
X118583450Y-133430894D01*
X118783662Y-133337534D01*
X118964620Y-133210826D01*
X119120826Y-133054620D01*
X119247534Y-132873662D01*
X119340894Y-132673450D01*
X119398070Y-132460068D01*
X119417323Y-132240000D01*
X119398070Y-132019932D01*
X119340894Y-131806550D01*
X119247534Y-131606339D01*
X119120826Y-131425380D01*
X118964620Y-131269174D01*
X118783662Y-131142466D01*
X118783661Y-131142465D01*
X118670190Y-131089553D01*
X118617751Y-131043381D01*
X118598599Y-130976187D01*
X118618815Y-130909306D01*
X118670190Y-130864789D01*
X118790186Y-130808835D01*
X118973007Y-130680822D01*
X119130822Y-130523007D01*
X119258835Y-130340186D01*
X119353156Y-130137913D01*
X119410920Y-129922334D01*
X119430372Y-129700000D01*
X119410920Y-129477666D01*
X119353156Y-129262087D01*
X119258835Y-129059814D01*
X119130822Y-128876993D01*
X118973007Y-128719178D01*
X118790186Y-128591165D01*
X118670190Y-128535210D01*
X118617751Y-128489038D01*
X118598599Y-128421844D01*
X118618815Y-128354963D01*
X118670191Y-128310446D01*
X118783662Y-128257534D01*
X118964620Y-128130826D01*
X119120826Y-127974620D01*
X119247534Y-127793662D01*
X119340894Y-127593450D01*
X119398070Y-127380068D01*
X119417323Y-127160000D01*
X119398070Y-126939932D01*
X119340894Y-126726550D01*
X119247534Y-126526339D01*
X119120826Y-126345380D01*
X118964620Y-126189174D01*
X118783662Y-126062466D01*
X118654811Y-126002382D01*
X118602372Y-125956210D01*
X118583220Y-125889016D01*
X118603436Y-125822135D01*
X118654811Y-125777618D01*
X118660027Y-125775185D01*
X118783662Y-125717534D01*
X118964620Y-125590826D01*
X119120826Y-125434620D01*
X119247534Y-125253662D01*
X119340894Y-125053450D01*
X119398070Y-124840068D01*
X119417323Y-124620000D01*
X119398070Y-124399932D01*
X119340894Y-124186550D01*
X119247534Y-123986339D01*
X119120826Y-123805380D01*
X118964620Y-123649174D01*
X118783662Y-123522466D01*
X118654811Y-123462382D01*
X118602372Y-123416210D01*
X118583220Y-123349016D01*
X118603436Y-123282135D01*
X118654811Y-123237618D01*
X118660027Y-123235185D01*
X118783662Y-123177534D01*
X118964620Y-123050826D01*
X119120826Y-122894620D01*
X119247534Y-122713662D01*
X119340894Y-122513450D01*
X119398070Y-122300068D01*
X119417323Y-122080000D01*
X119398070Y-121859932D01*
X119340894Y-121646550D01*
X119247534Y-121446339D01*
X119120826Y-121265380D01*
X118964620Y-121109174D01*
X118783662Y-120982466D01*
X118654811Y-120922382D01*
X118602372Y-120876210D01*
X118583220Y-120809016D01*
X118603436Y-120742135D01*
X118654811Y-120697618D01*
X118660027Y-120695185D01*
X118783662Y-120637534D01*
X118964620Y-120510826D01*
X119120826Y-120354620D01*
X119247534Y-120173662D01*
X119340894Y-119973450D01*
X119372201Y-119856610D01*
X119408566Y-119796951D01*
X119471413Y-119766422D01*
X119540789Y-119774717D01*
X119579657Y-119801024D01*
X124143181Y-124364548D01*
X124176666Y-124425871D01*
X124179500Y-124452229D01*
X124179500Y-126379726D01*
X124159815Y-126446765D01*
X124126626Y-126481299D01*
X124115380Y-126489173D01*
X123959174Y-126645379D01*
X123832467Y-126826336D01*
X123772105Y-126955782D01*
X123725932Y-127008221D01*
X123658738Y-127027372D01*
X123591857Y-127007156D01*
X123547341Y-126955780D01*
X123487099Y-126826590D01*
X123441740Y-126761811D01*
X122774903Y-127428648D01*
X122774949Y-127428102D01*
X122743734Y-127304838D01*
X122674187Y-127198388D01*
X122573843Y-127120287D01*
X122453578Y-127079000D01*
X122417447Y-127079000D01*
X123088187Y-126408258D01*
X123023406Y-126362898D01*
X122823281Y-126269579D01*
X122609978Y-126212424D01*
X122390000Y-126193178D01*
X122170021Y-126212424D01*
X121956719Y-126269578D01*
X121756589Y-126362900D01*
X121691812Y-126408258D01*
X121691811Y-126408258D01*
X122362554Y-127079000D01*
X122358431Y-127079000D01*
X122264579Y-127094661D01*
X122152749Y-127155180D01*
X122066629Y-127248731D01*
X122015552Y-127365177D01*
X122009894Y-127433447D01*
X121338258Y-126761811D01*
X121338258Y-126761812D01*
X121292900Y-126826589D01*
X121199578Y-127026719D01*
X121142424Y-127240021D01*
X121123178Y-127460000D01*
X121142424Y-127679978D01*
X121199579Y-127893281D01*
X121292898Y-128093406D01*
X121338258Y-128158187D01*
X122005096Y-127491349D01*
X122005051Y-127491898D01*
X122036266Y-127615162D01*
X122105813Y-127721612D01*
X122206157Y-127799713D01*
X122326422Y-127841000D01*
X122362553Y-127841000D01*
X121691812Y-128511740D01*
X121756593Y-128557101D01*
X121956718Y-128650420D01*
X122170021Y-128707575D01*
X122390000Y-128726821D01*
X122609978Y-128707575D01*
X122823281Y-128650420D01*
X123023408Y-128557100D01*
X123088187Y-128511740D01*
X122417448Y-127841000D01*
X122421569Y-127841000D01*
X122515421Y-127825339D01*
X122627251Y-127764820D01*
X122713371Y-127671269D01*
X122764448Y-127554823D01*
X122770105Y-127486552D01*
X123441740Y-128158186D01*
X123487098Y-128093411D01*
X123547340Y-127964220D01*
X123593512Y-127911780D01*
X123660705Y-127892627D01*
X123727587Y-127912842D01*
X123772105Y-127964218D01*
X123791034Y-128004811D01*
X123832466Y-128093662D01*
X123959174Y-128274620D01*
X124115380Y-128430826D01*
X124296338Y-128557534D01*
X124496550Y-128650894D01*
X124709932Y-128708070D01*
X124819965Y-128717696D01*
X124929998Y-128727323D01*
X124929998Y-128727322D01*
X124930000Y-128727323D01*
X125061784Y-128715793D01*
X125130283Y-128729559D01*
X125160272Y-128751640D01*
X126724267Y-130315634D01*
X126736048Y-130329266D01*
X126750390Y-130348530D01*
X126757253Y-130354289D01*
X126788339Y-130380373D01*
X126796314Y-130387681D01*
X126800223Y-130391590D01*
X126803055Y-130393829D01*
X126803065Y-130393838D01*
X126824542Y-130410819D01*
X126827298Y-130413063D01*
X126884786Y-130461302D01*
X126884788Y-130461303D01*
X126885757Y-130462116D01*
X126902177Y-130472576D01*
X126903321Y-130473109D01*
X126903323Y-130473111D01*
X126971357Y-130504835D01*
X126974456Y-130506335D01*
X127040667Y-130539588D01*
X127042704Y-130540611D01*
X127061084Y-130546998D01*
X127062321Y-130547253D01*
X127062327Y-130547256D01*
X127135862Y-130562439D01*
X127139209Y-130563181D01*
X127212279Y-130580500D01*
X127212281Y-130580500D01*
X127213505Y-130580790D01*
X127232876Y-130582769D01*
X127234140Y-130582732D01*
X127234144Y-130582733D01*
X127309110Y-130580552D01*
X127312716Y-130580500D01*
X143836294Y-130580500D01*
X143854264Y-130581809D01*
X143858320Y-130582402D01*
X143878023Y-130585289D01*
X143927368Y-130580972D01*
X143938176Y-130580500D01*
X143940100Y-130580500D01*
X143943709Y-130580500D01*
X143974550Y-130576894D01*
X143978031Y-130576539D01*
X144052797Y-130569999D01*
X144052797Y-130569998D01*
X144054052Y-130569889D01*
X144073062Y-130565674D01*
X144074250Y-130565241D01*
X144074255Y-130565241D01*
X144144820Y-130539557D01*
X144148095Y-130538419D01*
X144219334Y-130514814D01*
X144219336Y-130514812D01*
X144220536Y-130514415D01*
X144238063Y-130505929D01*
X144239112Y-130505238D01*
X144239117Y-130505237D01*
X144301806Y-130464005D01*
X144304798Y-130462099D01*
X144368656Y-130422712D01*
X144368656Y-130422711D01*
X144369729Y-130422050D01*
X144384824Y-130409753D01*
X144385692Y-130408832D01*
X144385696Y-130408830D01*
X144437185Y-130354253D01*
X144439631Y-130351735D01*
X145999728Y-128791638D01*
X146061049Y-128758155D01*
X146098211Y-128755793D01*
X146230000Y-128767323D01*
X146450068Y-128748070D01*
X146663450Y-128690894D01*
X146863662Y-128597534D01*
X147044620Y-128470826D01*
X147200826Y-128314620D01*
X147327534Y-128133662D01*
X147387617Y-128004811D01*
X147433790Y-127952372D01*
X147500984Y-127933220D01*
X147567865Y-127953436D01*
X147612382Y-128004811D01*
X147672466Y-128133662D01*
X147799174Y-128314620D01*
X147955380Y-128470826D01*
X148136338Y-128597534D01*
X148336550Y-128690894D01*
X148549932Y-128748070D01*
X148665207Y-128758155D01*
X148769999Y-128767323D01*
X148769999Y-128767322D01*
X148770000Y-128767323D01*
X148990068Y-128748070D01*
X149203450Y-128690894D01*
X149403662Y-128597534D01*
X149584620Y-128470826D01*
X149740826Y-128314620D01*
X149867534Y-128133662D01*
X149927617Y-128004811D01*
X149973790Y-127952372D01*
X150040984Y-127933220D01*
X150107865Y-127953436D01*
X150152382Y-128004811D01*
X150212466Y-128133662D01*
X150339174Y-128314620D01*
X150495380Y-128470826D01*
X150676338Y-128597534D01*
X150876550Y-128690894D01*
X151089932Y-128748070D01*
X151310000Y-128767323D01*
X151530068Y-128748070D01*
X151743450Y-128690894D01*
X151943662Y-128597534D01*
X152124620Y-128470826D01*
X152280826Y-128314620D01*
X152407534Y-128133662D01*
X152467617Y-128004811D01*
X152513790Y-127952372D01*
X152580984Y-127933220D01*
X152647865Y-127953436D01*
X152692382Y-128004811D01*
X152752466Y-128133662D01*
X152879174Y-128314620D01*
X153035380Y-128470826D01*
X153216338Y-128597534D01*
X153416550Y-128690894D01*
X153629932Y-128748070D01*
X153745207Y-128758155D01*
X153849999Y-128767323D01*
X153849999Y-128767322D01*
X153850000Y-128767323D01*
X154070068Y-128748070D01*
X154283450Y-128690894D01*
X154483662Y-128597534D01*
X154664620Y-128470826D01*
X154820826Y-128314620D01*
X154947534Y-128133662D01*
X155007617Y-128004811D01*
X155053790Y-127952372D01*
X155120984Y-127933220D01*
X155187865Y-127953436D01*
X155232382Y-128004811D01*
X155292466Y-128133662D01*
X155419174Y-128314620D01*
X155575380Y-128470826D01*
X155756338Y-128597534D01*
X155956550Y-128690894D01*
X156169932Y-128748070D01*
X156390000Y-128767323D01*
X156610068Y-128748070D01*
X156823450Y-128690894D01*
X157023662Y-128597534D01*
X157204620Y-128470826D01*
X157360826Y-128314620D01*
X157487534Y-128133662D01*
X157547894Y-128004218D01*
X157594066Y-127951779D01*
X157661259Y-127932627D01*
X157728141Y-127952842D01*
X157772658Y-128004219D01*
X157832898Y-128133406D01*
X157878258Y-128198187D01*
X158545096Y-127531349D01*
X158545051Y-127531898D01*
X158576266Y-127655162D01*
X158645813Y-127761612D01*
X158746157Y-127839713D01*
X158866422Y-127881000D01*
X158902553Y-127881000D01*
X158231812Y-128551740D01*
X158296593Y-128597101D01*
X158496718Y-128690420D01*
X158710021Y-128747575D01*
X158929999Y-128766821D01*
X159149978Y-128747575D01*
X159363281Y-128690420D01*
X159563408Y-128597100D01*
X159628187Y-128551740D01*
X158957448Y-127881000D01*
X158961569Y-127881000D01*
X159055421Y-127865339D01*
X159167251Y-127804820D01*
X159253371Y-127711269D01*
X159304448Y-127594823D01*
X159310105Y-127526552D01*
X159981740Y-128198186D01*
X160027098Y-128133411D01*
X160087340Y-128004220D01*
X160133512Y-127951780D01*
X160200705Y-127932627D01*
X160267587Y-127952842D01*
X160312105Y-128004218D01*
X160312106Y-128004220D01*
X160372466Y-128133662D01*
X160499174Y-128314620D01*
X160655380Y-128470826D01*
X160836338Y-128597534D01*
X161036550Y-128690894D01*
X161249932Y-128748070D01*
X161470000Y-128767323D01*
X161690068Y-128748070D01*
X161903450Y-128690894D01*
X162103662Y-128597534D01*
X162284620Y-128470826D01*
X162377819Y-128377626D01*
X162439142Y-128344142D01*
X162508834Y-128349126D01*
X162564767Y-128390998D01*
X162589184Y-128456462D01*
X162589500Y-128465308D01*
X162589500Y-129106294D01*
X162588191Y-129124264D01*
X162584711Y-129148023D01*
X162589028Y-129197368D01*
X162589500Y-129208175D01*
X162589500Y-129213709D01*
X162589916Y-129217272D01*
X162589917Y-129217282D01*
X162593098Y-129244496D01*
X162593464Y-129248082D01*
X162600109Y-129324041D01*
X162604329Y-129343071D01*
X162604758Y-129344251D01*
X162604759Y-129344255D01*
X162630413Y-129414742D01*
X162631582Y-129418107D01*
X162655580Y-129490524D01*
X162664075Y-129508072D01*
X162705979Y-129571784D01*
X162707889Y-129574782D01*
X162741580Y-129629402D01*
X162747952Y-129639732D01*
X162760253Y-129654830D01*
X162761168Y-129655693D01*
X162761170Y-129655696D01*
X162815709Y-129707151D01*
X162818296Y-129709664D01*
X165118358Y-132009726D01*
X165151843Y-132071049D01*
X165154205Y-132108213D01*
X165142676Y-132239999D01*
X165161929Y-132460065D01*
X165219106Y-132673451D01*
X165302193Y-132851631D01*
X165312466Y-132873662D01*
X165439174Y-133054620D01*
X165595380Y-133210826D01*
X165776338Y-133337534D01*
X165976550Y-133430894D01*
X166189932Y-133488070D01*
X166336643Y-133500905D01*
X166409999Y-133507323D01*
X166409999Y-133507322D01*
X166410000Y-133507323D01*
X166630068Y-133488070D01*
X166843450Y-133430894D01*
X167043662Y-133337534D01*
X167224620Y-133210826D01*
X167380826Y-133054620D01*
X167507534Y-132873662D01*
X167600894Y-132673450D01*
X167658070Y-132460068D01*
X167677323Y-132240000D01*
X167658070Y-132019932D01*
X167600894Y-131806550D01*
X167507534Y-131606339D01*
X167380826Y-131425380D01*
X167224620Y-131269174D01*
X167043662Y-131142466D01*
X166914811Y-131082382D01*
X166862372Y-131036210D01*
X166843220Y-130969016D01*
X166863436Y-130902135D01*
X166914811Y-130857618D01*
X166920027Y-130855185D01*
X167043662Y-130797534D01*
X167224620Y-130670826D01*
X167380826Y-130514620D01*
X167507534Y-130333662D01*
X167600894Y-130133450D01*
X167658070Y-129920068D01*
X167677323Y-129700000D01*
X167665793Y-129568213D01*
X167679559Y-129499715D01*
X167701637Y-129469729D01*
X169415638Y-127755727D01*
X169429256Y-127743957D01*
X169448530Y-127729610D01*
X169480372Y-127691661D01*
X169487686Y-127683681D01*
X169488267Y-127683099D01*
X169491590Y-127679777D01*
X169510837Y-127655433D01*
X169513031Y-127652738D01*
X169561302Y-127595214D01*
X169561303Y-127595210D01*
X169562119Y-127594239D01*
X169572575Y-127577825D01*
X169573109Y-127576679D01*
X169573111Y-127576677D01*
X169604816Y-127508682D01*
X169606369Y-127505475D01*
X169640040Y-127438433D01*
X169640040Y-127438429D01*
X169640610Y-127437296D01*
X169646999Y-127418917D01*
X169649836Y-127405177D01*
X169662431Y-127344171D01*
X169663186Y-127340767D01*
X169680500Y-127267721D01*
X169680500Y-127267717D01*
X169680790Y-127266494D01*
X169682769Y-127247123D01*
X169682732Y-127245859D01*
X169682733Y-127245856D01*
X169680552Y-127170888D01*
X169680500Y-127167283D01*
X169680500Y-123325214D01*
X171665214Y-123325214D01*
X171665214Y-127004786D01*
X175044786Y-127004786D01*
X175044786Y-123325214D01*
X171665214Y-123325214D01*
X169680500Y-123325214D01*
X169680500Y-114719999D01*
X171329340Y-114719999D01*
X171349936Y-114955407D01*
X171411097Y-115183663D01*
X171510965Y-115397829D01*
X171646505Y-115591401D01*
X171794068Y-115738964D01*
X171827553Y-115800287D01*
X171822569Y-115869979D01*
X171780697Y-115925912D01*
X171771484Y-115932184D01*
X171616653Y-116027684D01*
X171492683Y-116151654D01*
X171400642Y-116300877D01*
X171345493Y-116467303D01*
X171335319Y-116566890D01*
X171335000Y-116573168D01*
X171335000Y-116970000D01*
X172406031Y-116970000D01*
X172373481Y-117020649D01*
X172335000Y-117151705D01*
X172335000Y-117288295D01*
X172373481Y-117419351D01*
X172406031Y-117470000D01*
X171335001Y-117470000D01*
X171335001Y-117866829D01*
X171335321Y-117873111D01*
X171345493Y-117972695D01*
X171400642Y-118139122D01*
X171492683Y-118288345D01*
X171616654Y-118412316D01*
X171765877Y-118504357D01*
X171932303Y-118559506D01*
X172031890Y-118569680D01*
X172038168Y-118569999D01*
X172559999Y-118569999D01*
X172560000Y-118569998D01*
X172560000Y-117628018D01*
X172674801Y-117680446D01*
X172776025Y-117695000D01*
X172843975Y-117695000D01*
X172945199Y-117680446D01*
X173060000Y-117628018D01*
X173060000Y-118569999D01*
X173581829Y-118569999D01*
X173588111Y-118569678D01*
X173687695Y-118559506D01*
X173854122Y-118504357D01*
X174003345Y-118412316D01*
X174127316Y-118288345D01*
X174219357Y-118139122D01*
X174274506Y-117972696D01*
X174284680Y-117873109D01*
X174285000Y-117866831D01*
X174285000Y-117470000D01*
X173213969Y-117470000D01*
X173246519Y-117419351D01*
X173285000Y-117288295D01*
X173285000Y-117151705D01*
X173246519Y-117020649D01*
X173213969Y-116970000D01*
X174284999Y-116970000D01*
X174284999Y-116573170D01*
X174284678Y-116566888D01*
X174274506Y-116467304D01*
X174219357Y-116300877D01*
X174127316Y-116151654D01*
X174003346Y-116027684D01*
X173848515Y-115932184D01*
X173801791Y-115880236D01*
X173790568Y-115811273D01*
X173818412Y-115747191D01*
X173825909Y-115738986D01*
X173973495Y-115591401D01*
X174109035Y-115397830D01*
X174208903Y-115183663D01*
X174270063Y-114955408D01*
X174290659Y-114720000D01*
X174270063Y-114484592D01*
X174208903Y-114256337D01*
X174109035Y-114042171D01*
X173973495Y-113848599D01*
X173806401Y-113681505D01*
X173649401Y-113571573D01*
X173605778Y-113516998D01*
X173598584Y-113447500D01*
X173630107Y-113385145D01*
X173649398Y-113368428D01*
X173806401Y-113258495D01*
X173973495Y-113091401D01*
X174109035Y-112897830D01*
X174208903Y-112683663D01*
X174270063Y-112455408D01*
X174290659Y-112220000D01*
X174270063Y-111984592D01*
X174208903Y-111756337D01*
X174109035Y-111542171D01*
X173973495Y-111348599D01*
X173806401Y-111181505D01*
X173649401Y-111071573D01*
X173605778Y-111016998D01*
X173598584Y-110947500D01*
X173630107Y-110885145D01*
X173649398Y-110868428D01*
X173806401Y-110758495D01*
X173973495Y-110591401D01*
X174109035Y-110397830D01*
X174208903Y-110183663D01*
X174270063Y-109955408D01*
X174290659Y-109720000D01*
X174270063Y-109484592D01*
X174208903Y-109256337D01*
X174109035Y-109042171D01*
X173973495Y-108848599D01*
X173806401Y-108681505D01*
X173612829Y-108545965D01*
X173398663Y-108446097D01*
X173380738Y-108441294D01*
X173170407Y-108384936D01*
X172996667Y-108369736D01*
X172996659Y-108369735D01*
X172993966Y-108369500D01*
X172626034Y-108369500D01*
X172623341Y-108369735D01*
X172623332Y-108369736D01*
X172449592Y-108384936D01*
X172221336Y-108446097D01*
X172007170Y-108545965D01*
X171813598Y-108681505D01*
X171646508Y-108848595D01*
X171646505Y-108848598D01*
X171646505Y-108848599D01*
X171512284Y-109040287D01*
X171510964Y-109042172D01*
X171411097Y-109256337D01*
X171349936Y-109484592D01*
X171329340Y-109720000D01*
X171349936Y-109955407D01*
X171382835Y-110078186D01*
X171411097Y-110183663D01*
X171510965Y-110397829D01*
X171646505Y-110591401D01*
X171813599Y-110758495D01*
X171970357Y-110868258D01*
X171970596Y-110868425D01*
X172014221Y-110923002D01*
X172021415Y-110992500D01*
X171989892Y-111054855D01*
X171970596Y-111071575D01*
X171813598Y-111181505D01*
X171646508Y-111348595D01*
X171646505Y-111348598D01*
X171646505Y-111348599D01*
X171542220Y-111497534D01*
X171510964Y-111542172D01*
X171411097Y-111756337D01*
X171349936Y-111984592D01*
X171329340Y-112220000D01*
X171349936Y-112455407D01*
X171393553Y-112618187D01*
X171411097Y-112683663D01*
X171510965Y-112897829D01*
X171646505Y-113091401D01*
X171813599Y-113258495D01*
X171875881Y-113302105D01*
X171970596Y-113368425D01*
X172014221Y-113423002D01*
X172021415Y-113492500D01*
X171989892Y-113554855D01*
X171970596Y-113571575D01*
X171813598Y-113681505D01*
X171646508Y-113848595D01*
X171646505Y-113848598D01*
X171646505Y-113848599D01*
X171521903Y-114026550D01*
X171510964Y-114042172D01*
X171411097Y-114256337D01*
X171349936Y-114484592D01*
X171329340Y-114719999D01*
X169680500Y-114719999D01*
X169680500Y-99739999D01*
X171714340Y-99739999D01*
X171734936Y-99975407D01*
X171772113Y-100114154D01*
X171796097Y-100203663D01*
X171895965Y-100417830D01*
X172031505Y-100611401D01*
X172198599Y-100778495D01*
X172384596Y-100908732D01*
X172428219Y-100963307D01*
X172435412Y-101032806D01*
X172403890Y-101095160D01*
X172384595Y-101111880D01*
X172198919Y-101241892D01*
X172031890Y-101408921D01*
X171896400Y-101602421D01*
X171796569Y-101816507D01*
X171739364Y-102029999D01*
X171739364Y-102030000D01*
X172636314Y-102030000D01*
X172610507Y-102070156D01*
X172570000Y-102208111D01*
X172570000Y-102351889D01*
X172610507Y-102489844D01*
X172636314Y-102530000D01*
X171739364Y-102530000D01*
X171796569Y-102743492D01*
X171896399Y-102957576D01*
X172031893Y-103151081D01*
X172198918Y-103318106D01*
X172392423Y-103453600D01*
X172606509Y-103553430D01*
X172820000Y-103610634D01*
X172820000Y-102715501D01*
X172927685Y-102764680D01*
X173034237Y-102780000D01*
X173105763Y-102780000D01*
X173212315Y-102764680D01*
X173320000Y-102715501D01*
X173320000Y-103610633D01*
X173533490Y-103553430D01*
X173747576Y-103453600D01*
X173941081Y-103318106D01*
X174108106Y-103151081D01*
X174243600Y-102957576D01*
X174343430Y-102743492D01*
X174400636Y-102530000D01*
X173503686Y-102530000D01*
X173529493Y-102489844D01*
X173570000Y-102351889D01*
X173570000Y-102208111D01*
X173529493Y-102070156D01*
X173503686Y-102030000D01*
X174400636Y-102030000D01*
X174400635Y-102029999D01*
X174343430Y-101816507D01*
X174243599Y-101602421D01*
X174108109Y-101408921D01*
X173941081Y-101241893D01*
X173755404Y-101111880D01*
X173711780Y-101057303D01*
X173704587Y-100987804D01*
X173736109Y-100925450D01*
X173755399Y-100908734D01*
X173941401Y-100778495D01*
X174108495Y-100611401D01*
X174244035Y-100417830D01*
X174343903Y-100203663D01*
X174405063Y-99975408D01*
X174425659Y-99740000D01*
X174405063Y-99504592D01*
X174343903Y-99276337D01*
X174244035Y-99062171D01*
X174108495Y-98868599D01*
X173986569Y-98746673D01*
X173953084Y-98685350D01*
X173958068Y-98615658D01*
X173999940Y-98559725D01*
X174030915Y-98542810D01*
X174162331Y-98493796D01*
X174277546Y-98407546D01*
X174363796Y-98292331D01*
X174414091Y-98157483D01*
X174420500Y-98097873D01*
X174420499Y-96302128D01*
X174414091Y-96242517D01*
X174363796Y-96107669D01*
X174277546Y-95992454D01*
X174162331Y-95906204D01*
X174027483Y-95855909D01*
X173967873Y-95849500D01*
X173964550Y-95849500D01*
X172175439Y-95849500D01*
X172175420Y-95849500D01*
X172172128Y-95849501D01*
X172168848Y-95849853D01*
X172168840Y-95849854D01*
X172112515Y-95855909D01*
X171977669Y-95906204D01*
X171862454Y-95992454D01*
X171776204Y-96107668D01*
X171725909Y-96242516D01*
X171725476Y-96246548D01*
X171719500Y-96302127D01*
X171719500Y-96305448D01*
X171719500Y-96305449D01*
X171719500Y-98094560D01*
X171719500Y-98094578D01*
X171719501Y-98097872D01*
X171719853Y-98101152D01*
X171719854Y-98101159D01*
X171725909Y-98157484D01*
X171732009Y-98173838D01*
X171776204Y-98292331D01*
X171862454Y-98407546D01*
X171977669Y-98493796D01*
X172089907Y-98535658D01*
X172109082Y-98542810D01*
X172165016Y-98584681D01*
X172189433Y-98650146D01*
X172174581Y-98718419D01*
X172153431Y-98746673D01*
X172031503Y-98868601D01*
X171895965Y-99062170D01*
X171796097Y-99276336D01*
X171734936Y-99504592D01*
X171714340Y-99739999D01*
X169680500Y-99739999D01*
X169680500Y-84591243D01*
X169681809Y-84573273D01*
X169681961Y-84572229D01*
X169685289Y-84549515D01*
X169680972Y-84500167D01*
X169680500Y-84489361D01*
X169680500Y-84487439D01*
X169680500Y-84483829D01*
X169676903Y-84453058D01*
X169676536Y-84449467D01*
X169669889Y-84373487D01*
X169665672Y-84354468D01*
X169639592Y-84282812D01*
X169638408Y-84279406D01*
X169614814Y-84208204D01*
X169614812Y-84208201D01*
X169614415Y-84207002D01*
X169605929Y-84189474D01*
X169605237Y-84188422D01*
X169605237Y-84188421D01*
X169564001Y-84125726D01*
X169562086Y-84122719D01*
X169522048Y-84057807D01*
X169509748Y-84042708D01*
X169454272Y-83990369D01*
X169451685Y-83987856D01*
X165615287Y-80151457D01*
X165581802Y-80090134D01*
X165580852Y-80042244D01*
X165621770Y-79810185D01*
X165621770Y-79573877D01*
X165580736Y-79341162D01*
X165547582Y-79250072D01*
X165499915Y-79119106D01*
X165381761Y-78914459D01*
X165229866Y-78733436D01*
X165048843Y-78581541D01*
X165048842Y-78581540D01*
X164844196Y-78463387D01*
X164622140Y-78382565D01*
X164389424Y-78341532D01*
X164389423Y-78341532D01*
X164153117Y-78341532D01*
X164153116Y-78341532D01*
X163964370Y-78374812D01*
X163894931Y-78367068D01*
X163840702Y-78323011D01*
X163818900Y-78256630D01*
X163820722Y-78231164D01*
X163822833Y-78219195D01*
X163854003Y-78042418D01*
X163854003Y-77806112D01*
X163851892Y-77794141D01*
X163812969Y-77573395D01*
X163781870Y-77487951D01*
X163732148Y-77351339D01*
X163613994Y-77146692D01*
X163462099Y-76965669D01*
X163281076Y-76813774D01*
X163281075Y-76813773D01*
X163076429Y-76695620D01*
X162854373Y-76614798D01*
X162621657Y-76573765D01*
X162621656Y-76573765D01*
X162385350Y-76573765D01*
X162385349Y-76573765D01*
X162196603Y-76607045D01*
X162127164Y-76599301D01*
X162072935Y-76555244D01*
X162051133Y-76488863D01*
X162052955Y-76463397D01*
X162055066Y-76451428D01*
X162086236Y-76274651D01*
X162086236Y-76038345D01*
X162084942Y-76031009D01*
X162045202Y-75805628D01*
X162042748Y-75798885D01*
X161964381Y-75583572D01*
X161846227Y-75378925D01*
X161694332Y-75197902D01*
X161513309Y-75046007D01*
X161513308Y-75046006D01*
X161308662Y-74927853D01*
X161086606Y-74847031D01*
X160853890Y-74805998D01*
X160853889Y-74805998D01*
X160645203Y-74805998D01*
X160578164Y-74786313D01*
X160532409Y-74733509D01*
X160522465Y-74664351D01*
X160524546Y-74653401D01*
X160566498Y-74476394D01*
X160566498Y-74301066D01*
X160526065Y-74130471D01*
X160447380Y-73973794D01*
X160384155Y-73896181D01*
X160379934Y-73891507D01*
X160099339Y-73610913D01*
X160099338Y-73610913D01*
X159342516Y-74367735D01*
X159316100Y-74277768D01*
X159242254Y-74162861D01*
X159139026Y-74073414D01*
X159014780Y-74016673D01*
X158990030Y-74013114D01*
X159745786Y-73257360D01*
X159465195Y-72976769D01*
X159460511Y-72972538D01*
X159382905Y-72909319D01*
X159226228Y-72830634D01*
X159055633Y-72790202D01*
X158880305Y-72790202D01*
X158709709Y-72830634D01*
X158553033Y-72909319D01*
X158475420Y-72972544D01*
X158470746Y-72976765D01*
X158101763Y-73345747D01*
X158101763Y-73345748D01*
X158769129Y-74013114D01*
X158744382Y-74016673D01*
X158620136Y-74073414D01*
X158516908Y-74162861D01*
X158443062Y-74277768D01*
X158416645Y-74367735D01*
X157748210Y-73699301D01*
X157379222Y-74068291D01*
X157374992Y-74072974D01*
X157311784Y-74150566D01*
X157233095Y-74307249D01*
X157192664Y-74477842D01*
X157192664Y-74653171D01*
X157233096Y-74823766D01*
X157311781Y-74980443D01*
X157375006Y-75058056D01*
X157379227Y-75062730D01*
X157659821Y-75343324D01*
X158416645Y-74586501D01*
X158443062Y-74676470D01*
X158516908Y-74791377D01*
X158620136Y-74880824D01*
X158744382Y-74937565D01*
X158769129Y-74941123D01*
X158013375Y-75696876D01*
X158013375Y-75696877D01*
X158293966Y-75977468D01*
X158298650Y-75981699D01*
X158376256Y-76044918D01*
X158532933Y-76123603D01*
X158703529Y-76164036D01*
X158878857Y-76164036D01*
X159055863Y-76122084D01*
X159125635Y-76125777D01*
X159182334Y-76166605D01*
X159207959Y-76231607D01*
X159208460Y-76242741D01*
X159208460Y-76451428D01*
X159212842Y-76476277D01*
X159249494Y-76684144D01*
X159268107Y-76735284D01*
X159330314Y-76906200D01*
X159448466Y-77110844D01*
X159448468Y-77110846D01*
X159448469Y-77110848D01*
X159600364Y-77291870D01*
X159781386Y-77443765D01*
X159986034Y-77561919D01*
X160208089Y-77642739D01*
X160208089Y-77642740D01*
X160440806Y-77683774D01*
X160440807Y-77683774D01*
X160677114Y-77683774D01*
X160738862Y-77672886D01*
X160865860Y-77650493D01*
X160935298Y-77658237D01*
X160989527Y-77702294D01*
X161011329Y-77768675D01*
X161009507Y-77794141D01*
X160976227Y-77982886D01*
X160976227Y-78219195D01*
X160982392Y-78254160D01*
X161015873Y-78444042D01*
X161017261Y-78451910D01*
X161098081Y-78673967D01*
X161216233Y-78878611D01*
X161216235Y-78878613D01*
X161216236Y-78878615D01*
X161368131Y-79059637D01*
X161549153Y-79211532D01*
X161753801Y-79329686D01*
X161975856Y-79410506D01*
X161975856Y-79410507D01*
X162208573Y-79451541D01*
X162208574Y-79451541D01*
X162444881Y-79451541D01*
X162506629Y-79440653D01*
X162633627Y-79418260D01*
X162703065Y-79426004D01*
X162757294Y-79470061D01*
X162779096Y-79536442D01*
X162777274Y-79561908D01*
X162750848Y-79711781D01*
X162743994Y-79750655D01*
X162743994Y-79986961D01*
X162785028Y-80219678D01*
X162803080Y-80269277D01*
X162865848Y-80441734D01*
X162984000Y-80646378D01*
X162984002Y-80646380D01*
X162984003Y-80646382D01*
X163135898Y-80827404D01*
X163316920Y-80979299D01*
X163316921Y-80979300D01*
X163316923Y-80979301D01*
X163366571Y-81007965D01*
X163521568Y-81097453D01*
X163689366Y-81158526D01*
X163743623Y-81178274D01*
X163976340Y-81219308D01*
X163976341Y-81219308D01*
X164212648Y-81219308D01*
X164400788Y-81186134D01*
X164444706Y-81178390D01*
X164514145Y-81186134D01*
X164553919Y-81212825D01*
X166086004Y-82744910D01*
X166935248Y-83594153D01*
X166968733Y-83655476D01*
X166963749Y-83725168D01*
X166921877Y-83781101D01*
X166856413Y-83805518D01*
X166815473Y-83801609D01*
X166630065Y-83751929D01*
X166410000Y-83732676D01*
X166189934Y-83751929D01*
X165976548Y-83809106D01*
X165776338Y-83902466D01*
X165595379Y-84029174D01*
X165439174Y-84185379D01*
X165312466Y-84366338D01*
X165219106Y-84566548D01*
X165161929Y-84779934D01*
X165142676Y-85000000D01*
X165161929Y-85220065D01*
X165161930Y-85220068D01*
X165219106Y-85433450D01*
X165312466Y-85633662D01*
X165439174Y-85814620D01*
X165595380Y-85970826D01*
X165776338Y-86097534D01*
X165887623Y-86149427D01*
X165905189Y-86157618D01*
X165957628Y-86203790D01*
X165976780Y-86270984D01*
X165956564Y-86337865D01*
X165905189Y-86382382D01*
X165776338Y-86442466D01*
X165595379Y-86569174D01*
X165439174Y-86725379D01*
X165312466Y-86906338D01*
X165219106Y-87106548D01*
X165161929Y-87319934D01*
X165142676Y-87539999D01*
X165161929Y-87760065D01*
X165219106Y-87973451D01*
X165312465Y-88173661D01*
X165312466Y-88173662D01*
X165439174Y-88354620D01*
X165595380Y-88510826D01*
X165776338Y-88637534D01*
X165895748Y-88693215D01*
X165905189Y-88697618D01*
X165957628Y-88743790D01*
X165976780Y-88810984D01*
X165956564Y-88877865D01*
X165905189Y-88922382D01*
X165776338Y-88982466D01*
X165595379Y-89109174D01*
X165439174Y-89265379D01*
X165312466Y-89446338D01*
X165219106Y-89646548D01*
X165161929Y-89859934D01*
X165142676Y-90079999D01*
X165161929Y-90300065D01*
X165219106Y-90513451D01*
X165283475Y-90651491D01*
X165312466Y-90713662D01*
X165439174Y-90894620D01*
X165595380Y-91050826D01*
X165776338Y-91177534D01*
X165895748Y-91233215D01*
X165905189Y-91237618D01*
X165957628Y-91283790D01*
X165976780Y-91350984D01*
X165956564Y-91417865D01*
X165905189Y-91462382D01*
X165776338Y-91522466D01*
X165595379Y-91649174D01*
X165439174Y-91805379D01*
X165312466Y-91986338D01*
X165219106Y-92186548D01*
X165161929Y-92399934D01*
X165142676Y-92619999D01*
X165161929Y-92840065D01*
X165161930Y-92840068D01*
X165219106Y-93053450D01*
X165312466Y-93253662D01*
X165439174Y-93434620D01*
X165595380Y-93590826D01*
X165776338Y-93717534D01*
X165846173Y-93750098D01*
X165905780Y-93777894D01*
X165958219Y-93824066D01*
X165977371Y-93891260D01*
X165957155Y-93958141D01*
X165905780Y-94002658D01*
X165776589Y-94062900D01*
X165711812Y-94108258D01*
X165711811Y-94108258D01*
X166382554Y-94779000D01*
X166378431Y-94779000D01*
X166284579Y-94794661D01*
X166172749Y-94855180D01*
X166086629Y-94948731D01*
X166035552Y-95065177D01*
X166029894Y-95133447D01*
X165358258Y-94461811D01*
X165358258Y-94461812D01*
X165312900Y-94526589D01*
X165219578Y-94726719D01*
X165162424Y-94940021D01*
X165143178Y-95160000D01*
X165162424Y-95379978D01*
X165219579Y-95593281D01*
X165312898Y-95793406D01*
X165358258Y-95858187D01*
X166025096Y-95191349D01*
X166025051Y-95191898D01*
X166056266Y-95315162D01*
X166125813Y-95421612D01*
X166226157Y-95499713D01*
X166346422Y-95541000D01*
X166382553Y-95541000D01*
X165711812Y-96211740D01*
X165776592Y-96257100D01*
X165905780Y-96317341D01*
X165958220Y-96363513D01*
X165977372Y-96430706D01*
X165957157Y-96497587D01*
X165905782Y-96542105D01*
X165776336Y-96602467D01*
X165595379Y-96729174D01*
X165439174Y-96885379D01*
X165312466Y-97066338D01*
X165219106Y-97266548D01*
X165161929Y-97479934D01*
X165142676Y-97700000D01*
X165161929Y-97920065D01*
X165219106Y-98133451D01*
X165246372Y-98191923D01*
X165312466Y-98333662D01*
X165439174Y-98514620D01*
X165595380Y-98670826D01*
X165776338Y-98797534D01*
X165895748Y-98853215D01*
X165905189Y-98857618D01*
X165957628Y-98903790D01*
X165976780Y-98970984D01*
X165956564Y-99037865D01*
X165905189Y-99082382D01*
X165776338Y-99142466D01*
X165595379Y-99269174D01*
X165439174Y-99425379D01*
X165312466Y-99606338D01*
X165219106Y-99806548D01*
X165161929Y-100019934D01*
X165142676Y-100240000D01*
X165161929Y-100460065D01*
X165219106Y-100673451D01*
X165268089Y-100778495D01*
X165312466Y-100873662D01*
X165439174Y-101054620D01*
X165595380Y-101210826D01*
X165776338Y-101337534D01*
X165839389Y-101366935D01*
X165905189Y-101397618D01*
X165957628Y-101443790D01*
X165976780Y-101510984D01*
X165956564Y-101577865D01*
X165905189Y-101622382D01*
X165776338Y-101682466D01*
X165595379Y-101809174D01*
X165439174Y-101965379D01*
X165312466Y-102146338D01*
X165216882Y-102351318D01*
X165170709Y-102403757D01*
X165103516Y-102422909D01*
X165036635Y-102402693D01*
X164991300Y-102349528D01*
X164980500Y-102298913D01*
X164980500Y-101603705D01*
X164981809Y-101585735D01*
X164981980Y-101584564D01*
X164985289Y-101561977D01*
X164980971Y-101512633D01*
X164980500Y-101501827D01*
X164980500Y-101499901D01*
X164980500Y-101496291D01*
X164976894Y-101465443D01*
X164976537Y-101461956D01*
X164969998Y-101387203D01*
X164969888Y-101385943D01*
X164965674Y-101366935D01*
X164961382Y-101355142D01*
X164939567Y-101295207D01*
X164938399Y-101291844D01*
X164914814Y-101220666D01*
X164914811Y-101220662D01*
X164914416Y-101219468D01*
X164905929Y-101201936D01*
X164905237Y-101200884D01*
X164905237Y-101200883D01*
X164863999Y-101138184D01*
X164862087Y-101135181D01*
X164822050Y-101070270D01*
X164809750Y-101055172D01*
X164754290Y-101002848D01*
X164751703Y-101000335D01*
X144216819Y-80465450D01*
X144183334Y-80404127D01*
X144180500Y-80377769D01*
X144180500Y-71257700D01*
X144200185Y-71190661D01*
X144233375Y-71156126D01*
X144301401Y-71108495D01*
X144468495Y-70941401D01*
X144578426Y-70784401D01*
X144633002Y-70740778D01*
X144702500Y-70733584D01*
X144764855Y-70765107D01*
X144781571Y-70784398D01*
X144891505Y-70941401D01*
X145058599Y-71108495D01*
X145252170Y-71244035D01*
X145466337Y-71343903D01*
X145694591Y-71405062D01*
X145694592Y-71405063D01*
X145929999Y-71425659D01*
X145929999Y-71425658D01*
X145930000Y-71425659D01*
X146165408Y-71405063D01*
X146393663Y-71343903D01*
X146607829Y-71244035D01*
X146801401Y-71108495D01*
X146968495Y-70941401D01*
X147104035Y-70747829D01*
X147203903Y-70533663D01*
X147265063Y-70305408D01*
X147280500Y-70128966D01*
X147280500Y-69761034D01*
X147265063Y-69584592D01*
X147203903Y-69356337D01*
X147104035Y-69142171D01*
X146968495Y-68948599D01*
X146801401Y-68781505D01*
X146607830Y-68645965D01*
X146393663Y-68546097D01*
X146332501Y-68529709D01*
X146165407Y-68484936D01*
X145930000Y-68464340D01*
X145694592Y-68484936D01*
X145466336Y-68546097D01*
X145252170Y-68645965D01*
X145058598Y-68781505D01*
X144891505Y-68948598D01*
X144781575Y-69105596D01*
X144726998Y-69149221D01*
X144657500Y-69156415D01*
X144595145Y-69124892D01*
X144578425Y-69105596D01*
X144517928Y-69019197D01*
X144468495Y-68948599D01*
X144301401Y-68781505D01*
X144107830Y-68645965D01*
X143893663Y-68546097D01*
X143832501Y-68529709D01*
X143665407Y-68484936D01*
X143429999Y-68464340D01*
X143194592Y-68484936D01*
X142966336Y-68546097D01*
X142752170Y-68645965D01*
X142558598Y-68781505D01*
X142391505Y-68948598D01*
X142281575Y-69105596D01*
X142226998Y-69149221D01*
X142157500Y-69156415D01*
X142095145Y-69124892D01*
X142078425Y-69105596D01*
X142017928Y-69019197D01*
X141968495Y-68948599D01*
X141801401Y-68781505D01*
X141607830Y-68645965D01*
X141393663Y-68546097D01*
X141332502Y-68529709D01*
X141165407Y-68484936D01*
X140930000Y-68464340D01*
X140694592Y-68484936D01*
X140466336Y-68546097D01*
X140252170Y-68645965D01*
X140058601Y-68781503D01*
X139911035Y-68929069D01*
X139849712Y-68962553D01*
X139780020Y-68957569D01*
X139724087Y-68915697D01*
X139717815Y-68906484D01*
X139622315Y-68751653D01*
X139498345Y-68627683D01*
X139349122Y-68535642D01*
X139182696Y-68480493D01*
X139083109Y-68470319D01*
X139076832Y-68470000D01*
X138680000Y-68470000D01*
X138680000Y-69536981D01*
X138565199Y-69484554D01*
X138463975Y-69470000D01*
X138396025Y-69470000D01*
X138294801Y-69484554D01*
X138180000Y-69536981D01*
X138180000Y-68470000D01*
X137783171Y-68470000D01*
X137776888Y-68470321D01*
X137677304Y-68480493D01*
X137510877Y-68535642D01*
X137361654Y-68627683D01*
X137237683Y-68751654D01*
X137145642Y-68900877D01*
X137090493Y-69067303D01*
X137080319Y-69166890D01*
X137080000Y-69173168D01*
X137080000Y-69695000D01*
X138026031Y-69695000D01*
X137993481Y-69745649D01*
X137955000Y-69876705D01*
X137955000Y-70013295D01*
X137993481Y-70144351D01*
X138026031Y-70195000D01*
X137080001Y-70195000D01*
X137080001Y-70716829D01*
X137080321Y-70723111D01*
X137090493Y-70822695D01*
X137145642Y-70989122D01*
X137237683Y-71138345D01*
X137361654Y-71262316D01*
X137510877Y-71354357D01*
X137677303Y-71409506D01*
X137776890Y-71419680D01*
X137783168Y-71419999D01*
X138179999Y-71419999D01*
X138180000Y-71419998D01*
X138180000Y-70353018D01*
X138294801Y-70405446D01*
X138396025Y-70420000D01*
X138463975Y-70420000D01*
X138565199Y-70405446D01*
X138680000Y-70353018D01*
X138680000Y-71419999D01*
X139076829Y-71419999D01*
X139083111Y-71419678D01*
X139182695Y-71409506D01*
X139349122Y-71354357D01*
X139498345Y-71262316D01*
X139622316Y-71138345D01*
X139717815Y-70983516D01*
X139769763Y-70936791D01*
X139838725Y-70925568D01*
X139902807Y-70953411D01*
X139911024Y-70960920D01*
X140058599Y-71108495D01*
X140126623Y-71156125D01*
X140170248Y-71210700D01*
X140179500Y-71257700D01*
X140179500Y-86466294D01*
X140178191Y-86484264D01*
X140174711Y-86508023D01*
X140179028Y-86557368D01*
X140179500Y-86568175D01*
X140179500Y-86573709D01*
X140179916Y-86577272D01*
X140179917Y-86577282D01*
X140183098Y-86604496D01*
X140183464Y-86608082D01*
X140190109Y-86684041D01*
X140194329Y-86703071D01*
X140194758Y-86704251D01*
X140194759Y-86704255D01*
X140220413Y-86774742D01*
X140221582Y-86778107D01*
X140245580Y-86850524D01*
X140254075Y-86868072D01*
X140295979Y-86931784D01*
X140297889Y-86934782D01*
X140337288Y-86998656D01*
X140337952Y-86999732D01*
X140350253Y-87014830D01*
X140351168Y-87015693D01*
X140351170Y-87015696D01*
X140405708Y-87067150D01*
X140408295Y-87069663D01*
X149986451Y-96647819D01*
X150019936Y-96709142D01*
X150014952Y-96778834D01*
X149973080Y-96834767D01*
X149907616Y-96859184D01*
X149898770Y-96859500D01*
X148022229Y-96859500D01*
X147955190Y-96839815D01*
X147934548Y-96823181D01*
X127142377Y-76031009D01*
X127108892Y-75969686D01*
X127113536Y-75900917D01*
X127117028Y-75891322D01*
X127117033Y-75891314D01*
X127197854Y-75669259D01*
X127238888Y-75436541D01*
X127238888Y-75200235D01*
X127214642Y-75062730D01*
X127197854Y-74967517D01*
X127185970Y-74934865D01*
X127117033Y-74745462D01*
X126998879Y-74540814D01*
X126945432Y-74477119D01*
X126886776Y-74407215D01*
X126886770Y-74407208D01*
X126885031Y-74405136D01*
X126624864Y-74144969D01*
X126622792Y-74143230D01*
X126622784Y-74143223D01*
X126489185Y-74031120D01*
X126284538Y-73912967D01*
X126062482Y-73832145D01*
X125829766Y-73791112D01*
X125829765Y-73791112D01*
X125593459Y-73791112D01*
X125593457Y-73791112D01*
X125360742Y-73832146D01*
X125138685Y-73912966D01*
X124934041Y-74031118D01*
X124753016Y-74183016D01*
X124601118Y-74364041D01*
X124482967Y-74568685D01*
X124402145Y-74790741D01*
X124361111Y-75023458D01*
X124361112Y-75259765D01*
X124394392Y-75448511D01*
X124386648Y-75517950D01*
X124342591Y-75572179D01*
X124276210Y-75593981D01*
X124250744Y-75592159D01*
X124061999Y-75558879D01*
X124061998Y-75558879D01*
X123825692Y-75558879D01*
X123825690Y-75558879D01*
X123592975Y-75599913D01*
X123370918Y-75680733D01*
X123166274Y-75798885D01*
X122985249Y-75950783D01*
X122833351Y-76131808D01*
X122715200Y-76336452D01*
X122634378Y-76558508D01*
X122593345Y-76791225D01*
X122593345Y-77027532D01*
X122626625Y-77216278D01*
X122618881Y-77285717D01*
X122574824Y-77339946D01*
X122508443Y-77361748D01*
X122482977Y-77359926D01*
X122294232Y-77326646D01*
X122294231Y-77326646D01*
X122057925Y-77326646D01*
X122057923Y-77326646D01*
X121825208Y-77367680D01*
X121603151Y-77448500D01*
X121398507Y-77566652D01*
X121217482Y-77718550D01*
X121065584Y-77899575D01*
X120947433Y-78104219D01*
X120866611Y-78326275D01*
X120825578Y-78558992D01*
X120825578Y-78767678D01*
X120805893Y-78834717D01*
X120753089Y-78880472D01*
X120683931Y-78890416D01*
X120672982Y-78888336D01*
X120495972Y-78846384D01*
X120320647Y-78846384D01*
X120150051Y-78886816D01*
X119993374Y-78965501D01*
X119915761Y-79028726D01*
X119911087Y-79032947D01*
X119630493Y-79313542D01*
X120386247Y-80069296D01*
X120361500Y-80072855D01*
X120237254Y-80129596D01*
X120134026Y-80219043D01*
X120060180Y-80333950D01*
X120033763Y-80423916D01*
X119276940Y-79667095D01*
X118996340Y-79947696D01*
X118992118Y-79952370D01*
X118928899Y-80029976D01*
X118850214Y-80186653D01*
X118809782Y-80357248D01*
X118809782Y-80532577D01*
X118850214Y-80703172D01*
X118928899Y-80859848D01*
X118992124Y-80937461D01*
X118996345Y-80942135D01*
X119365328Y-81311118D01*
X120033762Y-80642682D01*
X120060180Y-80732652D01*
X120134026Y-80847559D01*
X120237254Y-80937006D01*
X120361500Y-80993747D01*
X120386247Y-80997305D01*
X119718882Y-81664670D01*
X119718881Y-81664671D01*
X120087861Y-82033650D01*
X120092554Y-82037889D01*
X120170146Y-82101097D01*
X120326829Y-82179786D01*
X120497423Y-82220218D01*
X120672751Y-82220218D01*
X120843346Y-82179785D01*
X121000023Y-82101100D01*
X121077645Y-82037868D01*
X121082298Y-82033666D01*
X121362904Y-81753058D01*
X120607150Y-80997305D01*
X120631898Y-80993747D01*
X120756144Y-80937006D01*
X120859372Y-80847559D01*
X120933218Y-80732652D01*
X120959634Y-80642684D01*
X121716456Y-81399506D01*
X121716457Y-81399506D01*
X121997048Y-81118915D01*
X122001279Y-81114231D01*
X122064498Y-81036625D01*
X122143183Y-80879948D01*
X122183616Y-80709353D01*
X122183616Y-80534025D01*
X122141664Y-80357019D01*
X122145357Y-80287247D01*
X122186185Y-80230548D01*
X122251187Y-80204923D01*
X122262321Y-80204422D01*
X122471009Y-80204422D01*
X122637704Y-80175029D01*
X122703724Y-80163388D01*
X122925780Y-80082567D01*
X123130427Y-79964413D01*
X123311450Y-79812518D01*
X123463345Y-79631495D01*
X123581499Y-79426848D01*
X123662320Y-79204793D01*
X123703354Y-78972075D01*
X123703354Y-78735769D01*
X123670073Y-78547021D01*
X123677817Y-78477583D01*
X123721874Y-78423354D01*
X123788255Y-78401552D01*
X123813719Y-78403373D01*
X123910695Y-78420473D01*
X124002467Y-78436655D01*
X124002468Y-78436655D01*
X124238776Y-78436655D01*
X124437854Y-78401552D01*
X124471491Y-78395621D01*
X124693547Y-78314800D01*
X124898194Y-78196646D01*
X125079217Y-78044751D01*
X125231112Y-77863728D01*
X125349266Y-77659081D01*
X125430087Y-77437026D01*
X125471121Y-77204308D01*
X125471121Y-76968002D01*
X125470161Y-76962560D01*
X125437840Y-76779254D01*
X125445584Y-76709815D01*
X125489641Y-76655586D01*
X125556022Y-76633784D01*
X125581479Y-76635605D01*
X125594892Y-76637970D01*
X125657493Y-76668997D01*
X125661037Y-76672404D01*
X147084267Y-98095634D01*
X147096048Y-98109266D01*
X147110390Y-98128530D01*
X147116255Y-98133451D01*
X147148339Y-98160373D01*
X147156314Y-98167681D01*
X147160223Y-98171590D01*
X147163055Y-98173829D01*
X147163065Y-98173838D01*
X147184537Y-98190815D01*
X147187337Y-98193096D01*
X147245754Y-98242115D01*
X147262165Y-98252569D01*
X147263319Y-98253107D01*
X147263323Y-98253110D01*
X147331328Y-98284821D01*
X147334451Y-98286333D01*
X147401567Y-98320040D01*
X147402704Y-98320611D01*
X147421084Y-98326998D01*
X147422321Y-98327253D01*
X147422327Y-98327256D01*
X147495862Y-98342439D01*
X147499209Y-98343181D01*
X147572279Y-98360500D01*
X147572281Y-98360500D01*
X147573505Y-98360790D01*
X147592876Y-98362769D01*
X147594140Y-98362732D01*
X147594144Y-98362733D01*
X147669110Y-98360552D01*
X147672716Y-98360500D01*
X150027770Y-98360500D01*
X150094809Y-98380185D01*
X150115451Y-98396819D01*
X162553180Y-110834548D01*
X162586665Y-110895871D01*
X162589499Y-110922229D01*
X162589499Y-113834691D01*
X162569814Y-113901730D01*
X162517010Y-113947485D01*
X162447852Y-113957429D01*
X162384296Y-113928404D01*
X162377818Y-113922372D01*
X162284620Y-113829174D01*
X162103662Y-113702466D01*
X161903451Y-113609106D01*
X161690065Y-113551929D01*
X161470000Y-113532676D01*
X161249934Y-113551929D01*
X161036548Y-113609106D01*
X160836338Y-113702466D01*
X160655379Y-113829174D01*
X160499174Y-113985379D01*
X160372466Y-114166338D01*
X160312382Y-114295189D01*
X160266209Y-114347628D01*
X160199016Y-114366780D01*
X160132135Y-114346564D01*
X160087618Y-114295189D01*
X160033904Y-114180000D01*
X160027534Y-114166339D01*
X159900826Y-113985380D01*
X159744620Y-113829174D01*
X159563662Y-113702466D01*
X159518711Y-113681505D01*
X159363451Y-113609106D01*
X159150065Y-113551929D01*
X158929999Y-113532676D01*
X158709934Y-113551929D01*
X158496548Y-113609106D01*
X158296338Y-113702466D01*
X158115379Y-113829174D01*
X157959174Y-113985379D01*
X157832466Y-114166338D01*
X157772382Y-114295189D01*
X157726209Y-114347628D01*
X157659016Y-114366780D01*
X157592135Y-114346564D01*
X157547618Y-114295189D01*
X157493904Y-114180000D01*
X157487534Y-114166339D01*
X157360826Y-113985380D01*
X157204620Y-113829174D01*
X157023662Y-113702466D01*
X156978711Y-113681505D01*
X156823451Y-113609106D01*
X156610065Y-113551929D01*
X156390000Y-113532676D01*
X156169934Y-113551929D01*
X155956548Y-113609106D01*
X155756338Y-113702466D01*
X155575379Y-113829174D01*
X155419174Y-113985379D01*
X155292466Y-114166338D01*
X155232382Y-114295189D01*
X155186209Y-114347628D01*
X155119016Y-114366780D01*
X155052135Y-114346564D01*
X155007618Y-114295189D01*
X154953904Y-114180000D01*
X154947534Y-114166339D01*
X154820826Y-113985380D01*
X154664620Y-113829174D01*
X154483662Y-113702466D01*
X154438711Y-113681505D01*
X154283451Y-113609106D01*
X154070065Y-113551929D01*
X153849999Y-113532676D01*
X153629934Y-113551929D01*
X153416548Y-113609106D01*
X153216338Y-113702466D01*
X153035379Y-113829174D01*
X152879174Y-113985379D01*
X152752466Y-114166338D01*
X152692382Y-114295189D01*
X152646209Y-114347628D01*
X152579016Y-114366780D01*
X152512135Y-114346564D01*
X152467618Y-114295189D01*
X152413904Y-114180000D01*
X152407534Y-114166339D01*
X152280826Y-113985380D01*
X152124620Y-113829174D01*
X151943662Y-113702466D01*
X151898711Y-113681505D01*
X151743451Y-113609106D01*
X151530065Y-113551929D01*
X151310000Y-113532676D01*
X151089934Y-113551929D01*
X150876548Y-113609106D01*
X150676338Y-113702466D01*
X150495379Y-113829174D01*
X150339174Y-113985379D01*
X150212466Y-114166338D01*
X150152382Y-114295189D01*
X150106209Y-114347628D01*
X150039016Y-114366780D01*
X149972135Y-114346564D01*
X149927618Y-114295189D01*
X149873904Y-114180000D01*
X149867534Y-114166339D01*
X149740826Y-113985380D01*
X149584620Y-113829174D01*
X149403662Y-113702466D01*
X149358711Y-113681505D01*
X149203451Y-113609106D01*
X148990065Y-113551929D01*
X148769999Y-113532676D01*
X148549934Y-113551929D01*
X148336548Y-113609106D01*
X148136338Y-113702466D01*
X147955379Y-113829174D01*
X147799174Y-113985379D01*
X147672466Y-114166338D01*
X147612382Y-114295189D01*
X147566209Y-114347628D01*
X147499016Y-114366780D01*
X147432135Y-114346564D01*
X147387618Y-114295189D01*
X147333904Y-114180000D01*
X147327534Y-114166339D01*
X147200826Y-113985380D01*
X147044620Y-113829174D01*
X146863662Y-113702466D01*
X146818711Y-113681505D01*
X146663451Y-113609106D01*
X146450065Y-113551929D01*
X146230000Y-113532676D01*
X146009934Y-113551929D01*
X145796548Y-113609106D01*
X145596338Y-113702466D01*
X145415379Y-113829174D01*
X145259174Y-113985379D01*
X145132466Y-114166338D01*
X145072382Y-114295189D01*
X145026209Y-114347628D01*
X144959016Y-114366780D01*
X144892135Y-114346564D01*
X144847618Y-114295189D01*
X144793904Y-114180000D01*
X144787534Y-114166339D01*
X144660826Y-113985380D01*
X144504620Y-113829174D01*
X144323662Y-113702466D01*
X144278711Y-113681505D01*
X144123451Y-113609106D01*
X143910065Y-113551929D01*
X143689999Y-113532676D01*
X143469934Y-113551929D01*
X143256548Y-113609106D01*
X143056338Y-113702466D01*
X142875379Y-113829174D01*
X142852181Y-113852373D01*
X142790858Y-113885858D01*
X142721166Y-113880874D01*
X142665233Y-113839002D01*
X142640816Y-113773538D01*
X142640500Y-113764692D01*
X142640500Y-109132229D01*
X142660185Y-109065190D01*
X142676819Y-109044548D01*
X142934548Y-108786819D01*
X142995871Y-108753334D01*
X143022229Y-108750500D01*
X143171693Y-108750500D01*
X143238732Y-108770185D01*
X143255231Y-108782863D01*
X143363958Y-108881981D01*
X143537361Y-108989347D01*
X143537363Y-108989348D01*
X143727544Y-109063024D01*
X143928024Y-109100500D01*
X143928026Y-109100500D01*
X144131974Y-109100500D01*
X144131976Y-109100500D01*
X144332456Y-109063024D01*
X144522637Y-108989348D01*
X144696041Y-108881981D01*
X144846764Y-108744579D01*
X144969673Y-108581821D01*
X144969673Y-108581819D01*
X144969675Y-108581818D01*
X145038826Y-108442942D01*
X145060582Y-108399250D01*
X145116397Y-108203083D01*
X145135215Y-108000000D01*
X145116397Y-107796917D01*
X145113236Y-107785809D01*
X145094162Y-107718770D01*
X145060582Y-107600750D01*
X145060209Y-107600001D01*
X144969675Y-107418181D01*
X144846763Y-107255419D01*
X144696041Y-107118018D01*
X144522638Y-107010652D01*
X144332457Y-106936976D01*
X144265629Y-106924483D01*
X144131976Y-106899500D01*
X143928024Y-106899500D01*
X143827783Y-106918238D01*
X143727542Y-106936976D01*
X143537361Y-107010652D01*
X143363958Y-107118018D01*
X143255231Y-107217137D01*
X143192427Y-107247754D01*
X143171693Y-107249500D01*
X142723706Y-107249500D01*
X142705736Y-107248191D01*
X142691853Y-107246157D01*
X142681977Y-107244711D01*
X142681976Y-107244711D01*
X142632634Y-107249028D01*
X142621827Y-107249500D01*
X142616291Y-107249500D01*
X142612730Y-107249916D01*
X142612715Y-107249917D01*
X142585484Y-107253100D01*
X142581900Y-107253466D01*
X142505950Y-107260111D01*
X142486922Y-107264329D01*
X142415270Y-107290407D01*
X142411869Y-107291589D01*
X142339480Y-107315578D01*
X142321927Y-107324076D01*
X142258236Y-107365965D01*
X142255198Y-107367901D01*
X142190277Y-107407947D01*
X142175163Y-107420258D01*
X142122832Y-107475725D01*
X142120320Y-107478311D01*
X141404359Y-108194271D01*
X141390728Y-108206051D01*
X141371470Y-108220388D01*
X141339635Y-108258328D01*
X141332338Y-108266292D01*
X141330972Y-108267657D01*
X141330950Y-108267681D01*
X141328409Y-108270223D01*
X141326173Y-108273050D01*
X141326171Y-108273053D01*
X141309176Y-108294546D01*
X141306902Y-108297337D01*
X141257894Y-108355744D01*
X141247418Y-108372187D01*
X141215192Y-108441294D01*
X141213622Y-108444536D01*
X141179393Y-108512692D01*
X141172996Y-108531098D01*
X141157573Y-108605788D01*
X141156793Y-108609305D01*
X141139208Y-108683506D01*
X141137229Y-108702879D01*
X141139448Y-108779129D01*
X141139500Y-108782735D01*
X141139500Y-113659420D01*
X141119815Y-113726459D01*
X141067011Y-113772214D01*
X140997853Y-113782158D01*
X140944377Y-113760995D01*
X140803663Y-113662466D01*
X140603451Y-113569106D01*
X140390065Y-113511929D01*
X140169999Y-113492676D01*
X139949934Y-113511929D01*
X139736548Y-113569106D01*
X139536338Y-113662466D01*
X139355379Y-113789174D01*
X139199174Y-113945379D01*
X139072466Y-114126338D01*
X139012382Y-114255189D01*
X138966209Y-114307628D01*
X138899016Y-114326780D01*
X138832135Y-114306564D01*
X138787618Y-114255189D01*
X138763048Y-114202500D01*
X138727534Y-114126339D01*
X138600826Y-113945380D01*
X138444620Y-113789174D01*
X138263662Y-113662466D01*
X138149231Y-113609106D01*
X138063451Y-113569106D01*
X137850065Y-113511929D01*
X137629999Y-113492676D01*
X137409934Y-113511929D01*
X137196548Y-113569106D01*
X136996338Y-113662466D01*
X136815379Y-113789174D01*
X136659174Y-113945379D01*
X136532466Y-114126338D01*
X136472382Y-114255189D01*
X136426209Y-114307628D01*
X136359016Y-114326780D01*
X136292135Y-114306564D01*
X136247618Y-114255189D01*
X136223048Y-114202500D01*
X136187534Y-114126339D01*
X136060826Y-113945380D01*
X135904620Y-113789174D01*
X135723662Y-113662466D01*
X135609231Y-113609106D01*
X135523451Y-113569106D01*
X135310065Y-113511929D01*
X135090000Y-113492676D01*
X134869934Y-113511929D01*
X134656548Y-113569106D01*
X134456338Y-113662466D01*
X134275379Y-113789174D01*
X134119174Y-113945379D01*
X133992466Y-114126338D01*
X133932382Y-114255189D01*
X133886209Y-114307628D01*
X133819016Y-114326780D01*
X133752135Y-114306564D01*
X133707618Y-114255189D01*
X133683048Y-114202500D01*
X133647534Y-114126339D01*
X133520826Y-113945380D01*
X133364620Y-113789174D01*
X133183662Y-113662466D01*
X133069231Y-113609106D01*
X132983451Y-113569106D01*
X132770065Y-113511929D01*
X132550000Y-113492676D01*
X132329934Y-113511929D01*
X132116548Y-113569106D01*
X131916338Y-113662466D01*
X131735379Y-113789174D01*
X131579174Y-113945379D01*
X131452467Y-114126336D01*
X131392381Y-114255190D01*
X131346208Y-114307629D01*
X131279014Y-114326780D01*
X131212133Y-114306564D01*
X131167617Y-114255188D01*
X131132556Y-114180000D01*
X131107534Y-114126339D01*
X130980826Y-113945380D01*
X130824620Y-113789174D01*
X130643662Y-113662466D01*
X130529231Y-113609106D01*
X130443451Y-113569106D01*
X130230065Y-113511929D01*
X130009999Y-113492676D01*
X129789934Y-113511929D01*
X129576548Y-113569106D01*
X129376338Y-113662466D01*
X129195379Y-113789174D01*
X129039174Y-113945379D01*
X128912466Y-114126338D01*
X128852382Y-114255189D01*
X128806209Y-114307628D01*
X128739016Y-114326780D01*
X128672135Y-114306564D01*
X128627618Y-114255189D01*
X128603048Y-114202500D01*
X128567534Y-114126339D01*
X128440826Y-113945380D01*
X128284620Y-113789174D01*
X128103662Y-113662466D01*
X127989231Y-113609106D01*
X127903451Y-113569106D01*
X127690065Y-113511929D01*
X127469999Y-113492676D01*
X127249934Y-113511929D01*
X127036548Y-113569106D01*
X126836338Y-113662466D01*
X126655379Y-113789174D01*
X126499174Y-113945379D01*
X126372466Y-114126338D01*
X126312382Y-114255189D01*
X126266209Y-114307628D01*
X126199016Y-114326780D01*
X126132135Y-114306564D01*
X126087618Y-114255189D01*
X126063048Y-114202500D01*
X126027534Y-114126339D01*
X125900826Y-113945380D01*
X125744620Y-113789174D01*
X125563662Y-113662466D01*
X125449231Y-113609106D01*
X125363451Y-113569106D01*
X125150065Y-113511929D01*
X124930000Y-113492676D01*
X124709934Y-113511929D01*
X124496548Y-113569106D01*
X124296338Y-113662466D01*
X124115379Y-113789174D01*
X123959174Y-113945379D01*
X123832467Y-114126336D01*
X123772381Y-114255190D01*
X123726208Y-114307629D01*
X123659014Y-114326780D01*
X123592133Y-114306564D01*
X123547617Y-114255188D01*
X123512556Y-114180000D01*
X123487534Y-114126339D01*
X123360826Y-113945380D01*
X123204620Y-113789174D01*
X123023662Y-113662466D01*
X122909231Y-113609106D01*
X122823451Y-113569106D01*
X122610065Y-113511929D01*
X122390000Y-113492676D01*
X122169934Y-113511929D01*
X121956548Y-113569106D01*
X121756338Y-113662466D01*
X121575379Y-113789174D01*
X121419174Y-113945379D01*
X121292466Y-114126338D01*
X121199106Y-114326548D01*
X121141929Y-114539934D01*
X121122676Y-114760000D01*
X121141929Y-114980065D01*
X121199106Y-115193451D01*
X121236956Y-115274620D01*
X121292466Y-115393662D01*
X121419174Y-115574620D01*
X121575380Y-115730826D01*
X121756338Y-115857534D01*
X121956550Y-115950894D01*
X122169932Y-116008070D01*
X122316644Y-116020905D01*
X122389999Y-116027323D01*
X122389999Y-116027322D01*
X122390000Y-116027323D01*
X122610068Y-116008070D01*
X122823450Y-115950894D01*
X123023662Y-115857534D01*
X123204620Y-115730826D01*
X123360826Y-115574620D01*
X123487534Y-115393662D01*
X123545185Y-115270027D01*
X123547618Y-115264811D01*
X123593790Y-115212372D01*
X123660984Y-115193220D01*
X123727865Y-115213436D01*
X123772382Y-115264811D01*
X123776956Y-115274620D01*
X123832466Y-115393662D01*
X123959174Y-115574620D01*
X124115380Y-115730826D01*
X124296338Y-115857534D01*
X124496550Y-115950894D01*
X124709932Y-116008070D01*
X124856643Y-116020905D01*
X124929999Y-116027323D01*
X124929999Y-116027322D01*
X124930000Y-116027323D01*
X125150068Y-116008070D01*
X125363450Y-115950894D01*
X125563662Y-115857534D01*
X125744620Y-115730826D01*
X125900826Y-115574620D01*
X126027534Y-115393662D01*
X126085185Y-115270027D01*
X126087618Y-115264811D01*
X126133790Y-115212372D01*
X126200984Y-115193220D01*
X126267865Y-115213436D01*
X126312382Y-115264811D01*
X126316956Y-115274620D01*
X126372466Y-115393662D01*
X126499174Y-115574620D01*
X126655380Y-115730826D01*
X126836338Y-115857534D01*
X127036550Y-115950894D01*
X127249932Y-116008070D01*
X127470000Y-116027323D01*
X127690068Y-116008070D01*
X127903450Y-115950894D01*
X128103662Y-115857534D01*
X128284620Y-115730826D01*
X128440826Y-115574620D01*
X128567534Y-115393662D01*
X128627618Y-115264810D01*
X128673789Y-115212372D01*
X128740982Y-115193220D01*
X128807863Y-115213435D01*
X128852381Y-115264811D01*
X128909152Y-115386555D01*
X128912466Y-115393662D01*
X129039174Y-115574620D01*
X129195380Y-115730826D01*
X129376338Y-115857534D01*
X129576550Y-115950894D01*
X129789932Y-116008070D01*
X130010000Y-116027323D01*
X130230068Y-116008070D01*
X130443450Y-115950894D01*
X130643662Y-115857534D01*
X130824620Y-115730826D01*
X130980826Y-115574620D01*
X131107534Y-115393662D01*
X131165185Y-115270027D01*
X131167618Y-115264811D01*
X131213790Y-115212372D01*
X131280984Y-115193220D01*
X131347865Y-115213436D01*
X131392382Y-115264811D01*
X131396956Y-115274620D01*
X131452466Y-115393662D01*
X131579174Y-115574620D01*
X131735380Y-115730826D01*
X131916338Y-115857534D01*
X132116550Y-115950894D01*
X132329932Y-116008070D01*
X132476644Y-116020905D01*
X132549999Y-116027323D01*
X132549999Y-116027322D01*
X132550000Y-116027323D01*
X132770068Y-116008070D01*
X132983450Y-115950894D01*
X133183662Y-115857534D01*
X133364620Y-115730826D01*
X133520826Y-115574620D01*
X133647534Y-115393662D01*
X133705185Y-115270027D01*
X133707618Y-115264811D01*
X133753790Y-115212372D01*
X133820984Y-115193220D01*
X133887865Y-115213436D01*
X133932382Y-115264811D01*
X133936956Y-115274620D01*
X133992466Y-115393662D01*
X134119174Y-115574620D01*
X134275380Y-115730826D01*
X134456338Y-115857534D01*
X134656550Y-115950894D01*
X134869932Y-116008070D01*
X135016644Y-116020905D01*
X135089999Y-116027323D01*
X135089999Y-116027322D01*
X135090000Y-116027323D01*
X135310068Y-116008070D01*
X135523450Y-115950894D01*
X135723662Y-115857534D01*
X135904620Y-115730826D01*
X136060826Y-115574620D01*
X136187534Y-115393662D01*
X136245185Y-115270027D01*
X136247618Y-115264811D01*
X136293790Y-115212372D01*
X136360984Y-115193220D01*
X136427865Y-115213436D01*
X136472382Y-115264811D01*
X136476956Y-115274620D01*
X136532466Y-115393662D01*
X136659174Y-115574620D01*
X136815380Y-115730826D01*
X136996338Y-115857534D01*
X137196550Y-115950894D01*
X137409932Y-116008070D01*
X137630000Y-116027323D01*
X137850068Y-116008070D01*
X138063450Y-115950894D01*
X138263662Y-115857534D01*
X138444620Y-115730826D01*
X138600826Y-115574620D01*
X138727534Y-115393662D01*
X138785185Y-115270027D01*
X138787618Y-115264811D01*
X138833790Y-115212372D01*
X138900984Y-115193220D01*
X138967865Y-115213436D01*
X139012382Y-115264811D01*
X139016956Y-115274620D01*
X139072466Y-115393662D01*
X139199174Y-115574620D01*
X139355380Y-115730826D01*
X139536338Y-115857534D01*
X139736550Y-115950894D01*
X139949932Y-116008070D01*
X140170000Y-116027323D01*
X140390068Y-116008070D01*
X140603450Y-115950894D01*
X140803662Y-115857534D01*
X140944379Y-115759002D01*
X141010582Y-115736677D01*
X141078350Y-115753687D01*
X141126163Y-115804635D01*
X141139500Y-115860579D01*
X141139500Y-116847769D01*
X141119815Y-116914808D01*
X141103181Y-116935450D01*
X139684358Y-118354272D01*
X139670727Y-118366053D01*
X139651468Y-118380391D01*
X139619635Y-118418328D01*
X139612338Y-118426292D01*
X139610972Y-118427657D01*
X139610950Y-118427681D01*
X139608409Y-118430223D01*
X139606173Y-118433050D01*
X139606171Y-118433053D01*
X139589176Y-118454546D01*
X139586902Y-118457337D01*
X139537894Y-118515744D01*
X139527418Y-118532187D01*
X139495192Y-118601294D01*
X139493622Y-118604536D01*
X139459393Y-118672692D01*
X139452996Y-118691098D01*
X139437573Y-118765788D01*
X139436793Y-118769305D01*
X139419208Y-118843506D01*
X139417229Y-118862879D01*
X139419448Y-118939129D01*
X139419500Y-118942735D01*
X139419500Y-126379726D01*
X139399815Y-126446765D01*
X139366626Y-126481299D01*
X139355380Y-126489173D01*
X139199174Y-126645379D01*
X139072467Y-126826336D01*
X139012105Y-126955782D01*
X138965932Y-127008221D01*
X138898738Y-127027372D01*
X138831857Y-127007156D01*
X138787341Y-126955780D01*
X138727099Y-126826590D01*
X138681740Y-126761811D01*
X138014903Y-127428648D01*
X138014949Y-127428102D01*
X137983734Y-127304838D01*
X137914187Y-127198388D01*
X137813843Y-127120287D01*
X137693578Y-127079000D01*
X137657447Y-127079000D01*
X138328187Y-126408258D01*
X138263406Y-126362898D01*
X138063281Y-126269579D01*
X137849978Y-126212424D01*
X137629999Y-126193178D01*
X137410021Y-126212424D01*
X137196719Y-126269578D01*
X136996589Y-126362900D01*
X136931812Y-126408258D01*
X136931811Y-126408258D01*
X137602554Y-127079000D01*
X137598431Y-127079000D01*
X137504579Y-127094661D01*
X137392749Y-127155180D01*
X137306629Y-127248731D01*
X137255552Y-127365177D01*
X137249894Y-127433447D01*
X136578258Y-126761811D01*
X136578258Y-126761812D01*
X136532900Y-126826590D01*
X136472657Y-126955781D01*
X136426484Y-127008220D01*
X136359291Y-127027372D01*
X136292409Y-127007156D01*
X136247893Y-126955780D01*
X136247617Y-126955189D01*
X136187534Y-126826339D01*
X136060826Y-126645380D01*
X135904620Y-126489174D01*
X135723662Y-126362466D01*
X135687019Y-126345379D01*
X135523451Y-126269106D01*
X135310065Y-126211929D01*
X135089999Y-126192676D01*
X134869934Y-126211929D01*
X134656548Y-126269106D01*
X134456338Y-126362466D01*
X134275379Y-126489174D01*
X134119174Y-126645379D01*
X133992466Y-126826338D01*
X133932382Y-126955189D01*
X133886209Y-127007628D01*
X133819016Y-127026780D01*
X133752135Y-127006564D01*
X133707618Y-126955189D01*
X133684424Y-126905450D01*
X133647534Y-126826339D01*
X133520826Y-126645380D01*
X133364620Y-126489174D01*
X133183662Y-126362466D01*
X133147019Y-126345379D01*
X132983451Y-126269106D01*
X132770065Y-126211929D01*
X132550000Y-126192676D01*
X132329934Y-126211929D01*
X132116548Y-126269106D01*
X131916338Y-126362466D01*
X131735379Y-126489174D01*
X131579174Y-126645379D01*
X131452466Y-126826338D01*
X131392382Y-126955189D01*
X131346209Y-127007628D01*
X131279016Y-127026780D01*
X131212135Y-127006564D01*
X131167618Y-126955189D01*
X131144424Y-126905450D01*
X131107534Y-126826339D01*
X130980826Y-126645380D01*
X130824620Y-126489174D01*
X130643662Y-126362466D01*
X130607019Y-126345379D01*
X130443451Y-126269106D01*
X130230065Y-126211929D01*
X130009999Y-126192676D01*
X129789934Y-126211929D01*
X129576548Y-126269106D01*
X129376338Y-126362466D01*
X129195379Y-126489174D01*
X129039174Y-126645379D01*
X128912466Y-126826338D01*
X128852382Y-126955189D01*
X128806209Y-127007628D01*
X128739016Y-127026780D01*
X128672135Y-127006564D01*
X128627618Y-126955189D01*
X128604424Y-126905450D01*
X128567534Y-126826339D01*
X128440826Y-126645380D01*
X128284620Y-126489174D01*
X128103662Y-126362466D01*
X128067019Y-126345379D01*
X127903451Y-126269106D01*
X127690065Y-126211929D01*
X127470000Y-126192676D01*
X127249934Y-126211929D01*
X127036548Y-126269106D01*
X126836338Y-126362466D01*
X126655379Y-126489174D01*
X126499174Y-126645379D01*
X126372466Y-126826338D01*
X126312382Y-126955189D01*
X126266209Y-127007628D01*
X126199016Y-127026780D01*
X126132135Y-127006564D01*
X126087618Y-126955189D01*
X126064424Y-126905450D01*
X126027534Y-126826339D01*
X125900826Y-126645380D01*
X125744620Y-126489174D01*
X125733374Y-126481299D01*
X125689750Y-126426721D01*
X125680500Y-126379726D01*
X125680500Y-124153705D01*
X125681809Y-124135735D01*
X125681980Y-124134564D01*
X125685289Y-124111977D01*
X125680971Y-124062633D01*
X125680500Y-124051827D01*
X125680500Y-124049901D01*
X125680500Y-124046291D01*
X125676894Y-124015443D01*
X125676537Y-124011956D01*
X125669998Y-123937203D01*
X125669888Y-123935943D01*
X125665674Y-123916936D01*
X125665241Y-123915745D01*
X125639569Y-123845211D01*
X125638422Y-123841913D01*
X125614814Y-123770665D01*
X125614812Y-123770662D01*
X125614415Y-123769463D01*
X125605929Y-123751936D01*
X125605237Y-123750884D01*
X125605237Y-123750883D01*
X125564025Y-123688224D01*
X125562106Y-123685212D01*
X125522048Y-123620267D01*
X125509750Y-123605172D01*
X125454290Y-123552848D01*
X125451703Y-123550335D01*
X117819360Y-115917992D01*
X117785875Y-115856669D01*
X117790859Y-115786977D01*
X117832731Y-115731044D01*
X117898195Y-115706627D01*
X117918993Y-115708613D01*
X117919124Y-115707125D01*
X118150000Y-115727323D01*
X118370068Y-115708070D01*
X118583450Y-115650894D01*
X118783662Y-115557534D01*
X118964620Y-115430826D01*
X119120826Y-115274620D01*
X119247534Y-115093662D01*
X119340894Y-114893450D01*
X119398070Y-114680068D01*
X119417323Y-114460000D01*
X119398070Y-114239932D01*
X119340894Y-114026550D01*
X119247534Y-113826339D01*
X119120826Y-113645380D01*
X118964620Y-113489174D01*
X118783662Y-113362466D01*
X118654218Y-113302105D01*
X118601779Y-113255932D01*
X118582627Y-113188739D01*
X118602843Y-113121858D01*
X118654220Y-113077340D01*
X118783411Y-113017098D01*
X118848187Y-112971740D01*
X118177448Y-112301000D01*
X118181569Y-112301000D01*
X118275421Y-112285339D01*
X118387251Y-112224820D01*
X118473371Y-112131269D01*
X118524448Y-112014823D01*
X118530105Y-111946552D01*
X119201740Y-112618186D01*
X119247100Y-112553408D01*
X119340420Y-112353281D01*
X119397575Y-112139978D01*
X119416821Y-111920000D01*
X119397575Y-111700021D01*
X119340421Y-111486720D01*
X119247098Y-111286589D01*
X119201740Y-111221811D01*
X118534903Y-111888648D01*
X118534949Y-111888102D01*
X118503734Y-111764838D01*
X118434187Y-111658388D01*
X118333843Y-111580287D01*
X118213578Y-111539000D01*
X118177447Y-111539000D01*
X118848187Y-110868258D01*
X118783407Y-110822898D01*
X118653627Y-110762382D01*
X118601187Y-110716210D01*
X118582035Y-110649017D01*
X118602250Y-110582135D01*
X118653627Y-110537618D01*
X118783408Y-110477100D01*
X118848187Y-110431740D01*
X118177448Y-109761000D01*
X118181569Y-109761000D01*
X118275421Y-109745339D01*
X118387251Y-109684820D01*
X118473371Y-109591269D01*
X118524448Y-109474823D01*
X118530105Y-109406552D01*
X119201740Y-110078186D01*
X119247100Y-110013408D01*
X119340420Y-109813281D01*
X119397575Y-109599978D01*
X119416821Y-109380000D01*
X119397575Y-109160021D01*
X119340421Y-108946720D01*
X119247098Y-108746589D01*
X119201740Y-108681811D01*
X118534903Y-109348648D01*
X118534949Y-109348102D01*
X118503734Y-109224838D01*
X118434187Y-109118388D01*
X118333843Y-109040287D01*
X118213578Y-108999000D01*
X118177447Y-108999000D01*
X118848187Y-108328258D01*
X118783406Y-108282898D01*
X118654219Y-108222658D01*
X118601779Y-108176486D01*
X118582627Y-108109293D01*
X118602843Y-108042411D01*
X118654219Y-107997894D01*
X118783662Y-107937534D01*
X118964620Y-107810826D01*
X119120826Y-107654620D01*
X119247534Y-107473662D01*
X119340894Y-107273450D01*
X119398070Y-107060068D01*
X119417323Y-106840000D01*
X119398070Y-106619932D01*
X119340894Y-106406550D01*
X119247534Y-106206339D01*
X119120826Y-106025380D01*
X118964620Y-105869174D01*
X118783662Y-105742466D01*
X118654811Y-105682382D01*
X118602372Y-105636210D01*
X118583220Y-105569016D01*
X118603436Y-105502135D01*
X118654811Y-105457618D01*
X118660027Y-105455185D01*
X118783662Y-105397534D01*
X118964620Y-105270826D01*
X119120826Y-105114620D01*
X119247534Y-104933662D01*
X119340894Y-104733450D01*
X119398070Y-104520068D01*
X119417323Y-104300000D01*
X119398070Y-104079932D01*
X119340894Y-103866550D01*
X119247534Y-103666339D01*
X119120826Y-103485380D01*
X118964620Y-103329174D01*
X118783662Y-103202466D01*
X118654811Y-103142382D01*
X118602372Y-103096210D01*
X118583220Y-103029016D01*
X118603436Y-102962135D01*
X118654811Y-102917618D01*
X118660027Y-102915185D01*
X118783662Y-102857534D01*
X118964620Y-102730826D01*
X119120826Y-102574620D01*
X119247534Y-102393662D01*
X119340894Y-102193450D01*
X119398070Y-101980068D01*
X119417323Y-101760000D01*
X119398070Y-101539932D01*
X119347874Y-101352600D01*
X138117000Y-101352600D01*
X138126356Y-101465510D01*
X138131905Y-101532477D01*
X138191017Y-101765906D01*
X138250814Y-101902229D01*
X138287745Y-101986422D01*
X138419449Y-102188010D01*
X138582537Y-102365171D01*
X138772561Y-102513072D01*
X138984336Y-102627679D01*
X139212087Y-102705866D01*
X139449601Y-102745500D01*
X139690399Y-102745500D01*
X139927913Y-102705866D01*
X140155664Y-102627679D01*
X140367439Y-102513072D01*
X140557463Y-102365171D01*
X140720551Y-102188010D01*
X140736490Y-102163612D01*
X140789634Y-102118257D01*
X140858865Y-102108833D01*
X140922201Y-102138334D01*
X140944107Y-102163614D01*
X140959846Y-102187704D01*
X141122873Y-102364798D01*
X141312835Y-102512651D01*
X141524539Y-102627219D01*
X141752208Y-102705379D01*
X141860000Y-102723366D01*
X141860000Y-101790881D01*
X141953369Y-101829556D01*
X142070677Y-101845000D01*
X142149323Y-101845000D01*
X142266631Y-101829556D01*
X142360000Y-101790881D01*
X142360000Y-102723366D01*
X142467791Y-102705379D01*
X142695460Y-102627219D01*
X142907164Y-102512651D01*
X143049746Y-102401675D01*
X143114740Y-102376032D01*
X143183280Y-102389598D01*
X143233605Y-102438066D01*
X143242089Y-102456190D01*
X143253704Y-102487331D01*
X143339954Y-102602546D01*
X143455169Y-102688796D01*
X143590017Y-102739091D01*
X143649627Y-102745500D01*
X145650372Y-102745499D01*
X145709983Y-102739091D01*
X145844831Y-102688796D01*
X145960046Y-102602546D01*
X146046296Y-102487331D01*
X146096591Y-102352483D01*
X146103000Y-102292873D01*
X146102999Y-100197128D01*
X146096591Y-100137517D01*
X146046296Y-100002669D01*
X145960046Y-99887454D01*
X145844831Y-99801204D01*
X145709983Y-99750909D01*
X145650373Y-99744500D01*
X145647050Y-99744500D01*
X143652939Y-99744500D01*
X143652920Y-99744500D01*
X143649628Y-99744501D01*
X143646348Y-99744853D01*
X143646340Y-99744854D01*
X143590015Y-99750909D01*
X143455169Y-99801204D01*
X143339954Y-99887454D01*
X143253703Y-100002670D01*
X143242090Y-100033806D01*
X143200218Y-100089738D01*
X143134753Y-100114154D01*
X143066480Y-100099301D01*
X143049747Y-100088324D01*
X142907164Y-99977347D01*
X142695460Y-99862780D01*
X142467792Y-99784619D01*
X142360000Y-99766633D01*
X142360000Y-100699118D01*
X142266631Y-100660444D01*
X142149323Y-100645000D01*
X142070677Y-100645000D01*
X141953369Y-100660444D01*
X141860000Y-100699118D01*
X141860000Y-99766633D01*
X141859999Y-99766633D01*
X141752207Y-99784619D01*
X141524539Y-99862780D01*
X141312835Y-99977348D01*
X141122873Y-100125201D01*
X140959846Y-100302294D01*
X140944106Y-100326387D01*
X140890959Y-100371743D01*
X140821728Y-100381166D01*
X140758392Y-100351663D01*
X140736490Y-100326387D01*
X140720551Y-100301990D01*
X140557463Y-100124829D01*
X140367439Y-99976928D01*
X140155664Y-99862321D01*
X140155660Y-99862319D01*
X140155659Y-99862319D01*
X139927915Y-99784134D01*
X139690399Y-99744500D01*
X139449601Y-99744500D01*
X139212084Y-99784134D01*
X138984340Y-99862319D01*
X138984336Y-99862320D01*
X138984336Y-99862321D01*
X138843152Y-99938725D01*
X138772559Y-99976929D01*
X138582536Y-100124829D01*
X138419448Y-100301991D01*
X138287745Y-100503577D01*
X138191017Y-100724093D01*
X138131905Y-100957522D01*
X138131904Y-100957524D01*
X138131905Y-100957524D01*
X138117000Y-101137400D01*
X138117000Y-101352600D01*
X119347874Y-101352600D01*
X119340894Y-101326550D01*
X119247534Y-101126339D01*
X119120826Y-100945380D01*
X118964620Y-100789174D01*
X118783662Y-100662466D01*
X118654811Y-100602382D01*
X118602372Y-100556210D01*
X118583220Y-100489016D01*
X118603436Y-100422135D01*
X118654811Y-100377618D01*
X118667410Y-100371743D01*
X118783662Y-100317534D01*
X118964620Y-100190826D01*
X119120826Y-100034620D01*
X119247534Y-99853662D01*
X119340894Y-99653450D01*
X119398070Y-99440068D01*
X119417323Y-99220000D01*
X119398070Y-98999932D01*
X119340894Y-98786550D01*
X119247534Y-98586339D01*
X119120826Y-98405380D01*
X118964620Y-98249174D01*
X118783662Y-98122466D01*
X118654811Y-98062382D01*
X118602372Y-98016210D01*
X118583220Y-97949016D01*
X118603436Y-97882135D01*
X118654811Y-97837618D01*
X118660027Y-97835185D01*
X118783662Y-97777534D01*
X118964620Y-97650826D01*
X119120826Y-97494620D01*
X119247534Y-97313662D01*
X119340894Y-97113450D01*
X119398070Y-96900068D01*
X119417323Y-96680000D01*
X119398070Y-96459932D01*
X119340894Y-96246550D01*
X119247534Y-96046339D01*
X119120826Y-95865380D01*
X118964620Y-95709174D01*
X118783662Y-95582466D01*
X118694738Y-95541000D01*
X118583451Y-95489106D01*
X118370065Y-95431929D01*
X118150000Y-95412676D01*
X117929934Y-95431929D01*
X117716548Y-95489106D01*
X117516338Y-95582466D01*
X117335379Y-95709174D01*
X117179174Y-95865379D01*
X117052466Y-96046338D01*
X116959106Y-96246548D01*
X116901929Y-96459934D01*
X116882676Y-96680000D01*
X116901929Y-96900065D01*
X116946482Y-97066339D01*
X116959106Y-97113450D01*
X117052466Y-97313662D01*
X117179174Y-97494620D01*
X117335380Y-97650826D01*
X117516338Y-97777534D01*
X117635748Y-97833215D01*
X117645189Y-97837618D01*
X117697628Y-97883790D01*
X117716780Y-97950984D01*
X117696564Y-98017865D01*
X117645189Y-98062382D01*
X117516338Y-98122466D01*
X117335379Y-98249174D01*
X117179174Y-98405379D01*
X117052466Y-98586338D01*
X116959106Y-98786548D01*
X116901929Y-98999934D01*
X116882676Y-99220000D01*
X116901929Y-99440065D01*
X116959106Y-99653451D01*
X117030496Y-99806548D01*
X117052466Y-99853662D01*
X117179174Y-100034620D01*
X117335380Y-100190826D01*
X117516338Y-100317534D01*
X117632590Y-100371743D01*
X117645189Y-100377618D01*
X117697628Y-100423790D01*
X117716780Y-100490984D01*
X117696564Y-100557865D01*
X117645189Y-100602382D01*
X117516338Y-100662466D01*
X117335379Y-100789174D01*
X117179174Y-100945379D01*
X117052466Y-101126338D01*
X116959106Y-101326548D01*
X116901929Y-101539934D01*
X116882676Y-101760000D01*
X116901929Y-101980065D01*
X116959106Y-102193451D01*
X117039180Y-102365170D01*
X117052466Y-102393662D01*
X117179174Y-102574620D01*
X117335380Y-102730826D01*
X117516338Y-102857534D01*
X117635748Y-102913215D01*
X117645189Y-102917618D01*
X117697628Y-102963790D01*
X117716780Y-103030984D01*
X117696564Y-103097865D01*
X117645189Y-103142382D01*
X117516338Y-103202466D01*
X117335379Y-103329174D01*
X117179174Y-103485379D01*
X117052466Y-103666338D01*
X116959106Y-103866548D01*
X116901929Y-104079934D01*
X116882676Y-104299999D01*
X116901929Y-104520065D01*
X116946482Y-104686339D01*
X116959106Y-104733450D01*
X117052466Y-104933662D01*
X117179174Y-105114620D01*
X117335380Y-105270826D01*
X117516338Y-105397534D01*
X117635748Y-105453215D01*
X117645189Y-105457618D01*
X117697628Y-105503790D01*
X117716780Y-105570984D01*
X117696564Y-105637865D01*
X117645189Y-105682382D01*
X117516338Y-105742466D01*
X117335379Y-105869174D01*
X117179174Y-106025379D01*
X117052466Y-106206338D01*
X116959106Y-106406548D01*
X116901929Y-106619934D01*
X116882676Y-106840000D01*
X116901929Y-107060065D01*
X116959106Y-107273451D01*
X117002246Y-107365965D01*
X117052466Y-107473662D01*
X117179174Y-107654620D01*
X117335380Y-107810826D01*
X117516338Y-107937534D01*
X117586173Y-107970098D01*
X117645780Y-107997894D01*
X117698219Y-108044066D01*
X117717371Y-108111260D01*
X117697155Y-108178141D01*
X117645780Y-108222658D01*
X117516589Y-108282900D01*
X117451812Y-108328258D01*
X117451811Y-108328258D01*
X118122554Y-108999000D01*
X118118431Y-108999000D01*
X118024579Y-109014661D01*
X117912749Y-109075180D01*
X117826629Y-109168731D01*
X117775552Y-109285177D01*
X117769894Y-109353447D01*
X117098258Y-108681811D01*
X117098258Y-108681812D01*
X117052900Y-108746589D01*
X116959578Y-108946719D01*
X116902424Y-109160021D01*
X116883178Y-109380000D01*
X116902424Y-109599978D01*
X116959579Y-109813281D01*
X117052898Y-110013406D01*
X117098258Y-110078187D01*
X117765096Y-109411349D01*
X117765051Y-109411898D01*
X117796266Y-109535162D01*
X117865813Y-109641612D01*
X117966157Y-109719713D01*
X118086422Y-109761000D01*
X118122553Y-109761000D01*
X117451812Y-110431740D01*
X117516592Y-110477100D01*
X117646372Y-110537617D01*
X117698812Y-110583789D01*
X117717964Y-110650982D01*
X117697749Y-110717863D01*
X117646373Y-110762381D01*
X117516589Y-110822900D01*
X117451812Y-110868258D01*
X117451811Y-110868258D01*
X118122554Y-111539000D01*
X118118431Y-111539000D01*
X118024579Y-111554661D01*
X117912749Y-111615180D01*
X117826629Y-111708731D01*
X117775552Y-111825177D01*
X117769894Y-111893447D01*
X117098258Y-111221811D01*
X117098258Y-111221812D01*
X117052900Y-111286589D01*
X116959578Y-111486719D01*
X116902424Y-111700021D01*
X116883178Y-111920000D01*
X116902424Y-112139978D01*
X116959579Y-112353281D01*
X117052898Y-112553406D01*
X117098258Y-112618187D01*
X117765096Y-111951349D01*
X117765051Y-111951898D01*
X117796266Y-112075162D01*
X117865813Y-112181612D01*
X117966157Y-112259713D01*
X118086422Y-112301000D01*
X118122553Y-112301000D01*
X117451812Y-112971740D01*
X117516592Y-113017100D01*
X117645780Y-113077341D01*
X117698220Y-113123513D01*
X117717372Y-113190706D01*
X117697157Y-113257587D01*
X117645782Y-113302105D01*
X117516336Y-113362467D01*
X117335379Y-113489174D01*
X117179174Y-113645379D01*
X117052466Y-113826338D01*
X116959106Y-114026548D01*
X116901929Y-114239934D01*
X116882676Y-114459999D01*
X116902875Y-114690876D01*
X116898985Y-114691216D01*
X116897782Y-114740769D01*
X116858593Y-114798614D01*
X116794352Y-114826088D01*
X116725455Y-114814469D01*
X116692007Y-114790639D01*
X112468155Y-110566787D01*
X112434670Y-110505464D01*
X112432308Y-110468297D01*
X112435659Y-110429998D01*
X112415063Y-110194592D01*
X112411135Y-110179932D01*
X112353903Y-109966337D01*
X112254035Y-109752171D01*
X112118495Y-109558599D01*
X111951401Y-109391505D01*
X111757829Y-109255965D01*
X111543663Y-109156097D01*
X111543662Y-109156097D01*
X111315407Y-109094936D01*
X111141667Y-109079736D01*
X111141659Y-109079735D01*
X111138966Y-109079500D01*
X110771034Y-109079500D01*
X110768341Y-109079735D01*
X110768332Y-109079736D01*
X110594592Y-109094936D01*
X110366336Y-109156097D01*
X110152170Y-109255965D01*
X109958598Y-109391505D01*
X109791508Y-109558595D01*
X109791505Y-109558598D01*
X109791505Y-109558599D01*
X109660749Y-109745339D01*
X109655964Y-109752172D01*
X109556097Y-109966337D01*
X109494936Y-110194592D01*
X109474340Y-110429999D01*
X109494936Y-110665407D01*
X109556097Y-110893663D01*
X109655965Y-111107829D01*
X109791505Y-111301401D01*
X109958598Y-111468494D01*
X110115596Y-111578425D01*
X110159221Y-111633002D01*
X110166415Y-111702500D01*
X110134892Y-111764855D01*
X110115596Y-111781575D01*
X109958598Y-111891505D01*
X109791508Y-112058595D01*
X109791505Y-112058598D01*
X109791505Y-112058599D01*
X109705371Y-112181612D01*
X109655964Y-112252172D01*
X109556097Y-112466337D01*
X109494936Y-112694592D01*
X109474340Y-112930000D01*
X109494936Y-113165407D01*
X109552032Y-113378491D01*
X109556097Y-113393663D01*
X109655965Y-113607829D01*
X109791505Y-113801401D01*
X109958599Y-113968495D01*
X110063818Y-114042170D01*
X110115596Y-114078425D01*
X110159221Y-114133002D01*
X110166415Y-114202500D01*
X110134892Y-114264855D01*
X110115596Y-114281575D01*
X109958598Y-114391505D01*
X109791508Y-114558595D01*
X109791505Y-114558598D01*
X109791505Y-114558599D01*
X109678492Y-114719999D01*
X109655964Y-114752172D01*
X109556097Y-114966337D01*
X109494936Y-115194592D01*
X109474340Y-115430000D01*
X106796917Y-115430000D01*
X106789977Y-100704794D01*
X106790010Y-100701964D01*
X106817375Y-99527644D01*
X106817536Y-99523598D01*
X106883471Y-98351398D01*
X106883761Y-98347416D01*
X106977598Y-97296818D01*
X106988623Y-97174618D01*
X106989037Y-97170718D01*
X107101949Y-96249581D01*
X107132974Y-95999059D01*
X107133498Y-95995311D01*
X107265691Y-95148537D01*
X107316085Y-94829070D01*
X107316734Y-94825337D01*
X107468165Y-94028298D01*
X107537797Y-93665648D01*
X107538549Y-93662036D01*
X107709190Y-92901259D01*
X107772955Y-92620000D01*
X107797820Y-92510326D01*
X107798695Y-92506719D01*
X107988666Y-91773561D01*
X108095920Y-91364113D01*
X108096855Y-91360751D01*
X108305883Y-90651043D01*
X108431724Y-90228472D01*
X108432763Y-90225162D01*
X108660620Y-89536010D01*
X108804881Y-89104567D01*
X108806035Y-89101275D01*
X109052589Y-88430445D01*
X109214995Y-87993583D01*
X109216247Y-87990361D01*
X109481241Y-87336602D01*
X109661629Y-86896723D01*
X109662952Y-86893627D01*
X109946197Y-86255928D01*
X110144198Y-85815412D01*
X110145674Y-85812248D01*
X110446890Y-85190087D01*
X110662332Y-84750455D01*
X110663812Y-84747540D01*
X110982799Y-84140428D01*
X111215360Y-83703268D01*
X111216923Y-83700427D01*
X111553313Y-83108342D01*
X111802707Y-82674930D01*
X111804294Y-82672257D01*
X112157792Y-82095114D01*
X112423677Y-81666649D01*
X112425347Y-81664037D01*
X112795603Y-81101913D01*
X113077638Y-80679443D01*
X113079429Y-80676835D01*
X113465976Y-80130013D01*
X113763954Y-79714282D01*
X113765676Y-79711944D01*
X114168324Y-79180337D01*
X114481704Y-78772464D01*
X114483555Y-78770119D01*
X114901849Y-78254037D01*
X115230147Y-77854942D01*
X115232126Y-77852597D01*
X115665656Y-77352291D01*
X116008595Y-76962560D01*
X116010614Y-76960323D01*
X116458914Y-76476109D01*
X116816162Y-76096350D01*
X116818082Y-76094359D01*
X117280738Y-75626490D01*
X117651861Y-75257372D01*
X117653799Y-75255492D01*
X118130406Y-74804213D01*
X118514740Y-74446567D01*
X118516766Y-74444727D01*
X119006768Y-74010417D01*
X119404051Y-73664635D01*
X119406080Y-73662911D01*
X119909003Y-73245860D01*
X120318650Y-72912588D01*
X120320757Y-72910914D01*
X120836101Y-72511419D01*
X121257649Y-72191151D01*
X121259780Y-72189571D01*
X121786971Y-71807971D01*
X122219947Y-71501171D01*
X122222050Y-71499716D01*
X122760640Y-71136243D01*
X122802700Y-71108494D01*
X123204476Y-70843409D01*
X123206700Y-70841977D01*
X123756100Y-70496948D01*
X124210261Y-70218515D01*
X124212472Y-70217193D01*
X124772247Y-69890810D01*
X125236105Y-69627234D01*
X125238243Y-69626050D01*
X125807824Y-69318589D01*
X126280996Y-69070151D01*
X126283094Y-69069079D01*
X126861791Y-68780856D01*
X127343640Y-68547954D01*
X127345767Y-68546954D01*
X127933058Y-68278180D01*
X128422969Y-68061163D01*
X128425059Y-68060262D01*
X129020285Y-67811192D01*
X129517846Y-67610292D01*
X129519887Y-67609492D01*
X130122542Y-67380298D01*
X130627904Y-67195537D01*
X131238363Y-66986082D01*
X131533371Y-66889215D01*
X131750127Y-66818044D01*
X132046810Y-66727037D01*
X132366715Y-66628907D01*
X132884094Y-66477880D01*
X133506264Y-66309205D01*
X134028727Y-66175368D01*
X134655801Y-66027318D01*
X134862042Y-65981734D01*
X135182776Y-65910845D01*
X135258387Y-65895599D01*
X135814080Y-65783556D01*
X136344805Y-65684630D01*
X136979838Y-65578190D01*
X137513700Y-65496939D01*
X138151737Y-65411461D01*
X138688154Y-65347981D01*
X139328467Y-65283551D01*
X139866876Y-65237920D01*
X140508918Y-65194584D01*
X141048562Y-65166875D01*
X141691598Y-65144678D01*
X142231911Y-65134920D01*
X142875312Y-65133882D01*
X143415694Y-65142089D01*
G37*
%TD.AperFunction*%
%TD*%
M02*
