%TF.GenerationSoftware,KiCad,Pcbnew,7.0.2*%
%TF.CreationDate,2023-05-23T14:15:23+02:00*%
%TF.ProjectId,robot2,726f626f-7432-42e6-9b69-6361645f7063,rev?*%
%TF.SameCoordinates,Original*%
%TF.FileFunction,Legend,Top*%
%TF.FilePolarity,Positive*%
%FSLAX46Y46*%
G04 Gerber Fmt 4.6, Leading zero omitted, Abs format (unit mm)*
G04 Created by KiCad (PCBNEW 7.0.2) date 2023-05-23 14:15:23*
%MOMM*%
%LPD*%
G01*
G04 APERTURE LIST*
%ADD10C,0.150000*%
%ADD11C,0.100000*%
%ADD12C,0.120000*%
G04 APERTURE END LIST*
D10*
%TO.C,J8*%
X111576667Y-123187526D02*
X111576667Y-124094669D01*
X111576667Y-124094669D02*
X111516190Y-124276097D01*
X111516190Y-124276097D02*
X111395238Y-124397050D01*
X111395238Y-124397050D02*
X111213809Y-124457526D01*
X111213809Y-124457526D02*
X111092857Y-124457526D01*
X112362857Y-123731811D02*
X112241905Y-123671335D01*
X112241905Y-123671335D02*
X112181428Y-123610859D01*
X112181428Y-123610859D02*
X112120952Y-123489907D01*
X112120952Y-123489907D02*
X112120952Y-123429430D01*
X112120952Y-123429430D02*
X112181428Y-123308478D01*
X112181428Y-123308478D02*
X112241905Y-123248002D01*
X112241905Y-123248002D02*
X112362857Y-123187526D01*
X112362857Y-123187526D02*
X112604762Y-123187526D01*
X112604762Y-123187526D02*
X112725714Y-123248002D01*
X112725714Y-123248002D02*
X112786190Y-123308478D01*
X112786190Y-123308478D02*
X112846667Y-123429430D01*
X112846667Y-123429430D02*
X112846667Y-123489907D01*
X112846667Y-123489907D02*
X112786190Y-123610859D01*
X112786190Y-123610859D02*
X112725714Y-123671335D01*
X112725714Y-123671335D02*
X112604762Y-123731811D01*
X112604762Y-123731811D02*
X112362857Y-123731811D01*
X112362857Y-123731811D02*
X112241905Y-123792288D01*
X112241905Y-123792288D02*
X112181428Y-123852764D01*
X112181428Y-123852764D02*
X112120952Y-123973716D01*
X112120952Y-123973716D02*
X112120952Y-124215621D01*
X112120952Y-124215621D02*
X112181428Y-124336573D01*
X112181428Y-124336573D02*
X112241905Y-124397050D01*
X112241905Y-124397050D02*
X112362857Y-124457526D01*
X112362857Y-124457526D02*
X112604762Y-124457526D01*
X112604762Y-124457526D02*
X112725714Y-124397050D01*
X112725714Y-124397050D02*
X112786190Y-124336573D01*
X112786190Y-124336573D02*
X112846667Y-124215621D01*
X112846667Y-124215621D02*
X112846667Y-123973716D01*
X112846667Y-123973716D02*
X112786190Y-123852764D01*
X112786190Y-123852764D02*
X112725714Y-123792288D01*
X112725714Y-123792288D02*
X112604762Y-123731811D01*
%TO.C,J5*%
X109866666Y-105832619D02*
X109866666Y-106546904D01*
X109866666Y-106546904D02*
X109819047Y-106689761D01*
X109819047Y-106689761D02*
X109723809Y-106785000D01*
X109723809Y-106785000D02*
X109580952Y-106832619D01*
X109580952Y-106832619D02*
X109485714Y-106832619D01*
X110819047Y-105832619D02*
X110342857Y-105832619D01*
X110342857Y-105832619D02*
X110295238Y-106308809D01*
X110295238Y-106308809D02*
X110342857Y-106261190D01*
X110342857Y-106261190D02*
X110438095Y-106213571D01*
X110438095Y-106213571D02*
X110676190Y-106213571D01*
X110676190Y-106213571D02*
X110771428Y-106261190D01*
X110771428Y-106261190D02*
X110819047Y-106308809D01*
X110819047Y-106308809D02*
X110866666Y-106404047D01*
X110866666Y-106404047D02*
X110866666Y-106642142D01*
X110866666Y-106642142D02*
X110819047Y-106737380D01*
X110819047Y-106737380D02*
X110771428Y-106785000D01*
X110771428Y-106785000D02*
X110676190Y-106832619D01*
X110676190Y-106832619D02*
X110438095Y-106832619D01*
X110438095Y-106832619D02*
X110342857Y-106785000D01*
X110342857Y-106785000D02*
X110295238Y-106737380D01*
%TO.C,M1*%
X172260476Y-95332619D02*
X172260476Y-94332619D01*
X172260476Y-94332619D02*
X172593809Y-95046904D01*
X172593809Y-95046904D02*
X172927142Y-94332619D01*
X172927142Y-94332619D02*
X172927142Y-95332619D01*
X173927142Y-95332619D02*
X173355714Y-95332619D01*
X173641428Y-95332619D02*
X173641428Y-94332619D01*
X173641428Y-94332619D02*
X173546190Y-94475476D01*
X173546190Y-94475476D02*
X173450952Y-94570714D01*
X173450952Y-94570714D02*
X173355714Y-94618333D01*
%TO.C,J6*%
X141846666Y-65857619D02*
X141846666Y-66571904D01*
X141846666Y-66571904D02*
X141799047Y-66714761D01*
X141799047Y-66714761D02*
X141703809Y-66810000D01*
X141703809Y-66810000D02*
X141560952Y-66857619D01*
X141560952Y-66857619D02*
X141465714Y-66857619D01*
X142751428Y-65857619D02*
X142560952Y-65857619D01*
X142560952Y-65857619D02*
X142465714Y-65905238D01*
X142465714Y-65905238D02*
X142418095Y-65952857D01*
X142418095Y-65952857D02*
X142322857Y-66095714D01*
X142322857Y-66095714D02*
X142275238Y-66286190D01*
X142275238Y-66286190D02*
X142275238Y-66667142D01*
X142275238Y-66667142D02*
X142322857Y-66762380D01*
X142322857Y-66762380D02*
X142370476Y-66810000D01*
X142370476Y-66810000D02*
X142465714Y-66857619D01*
X142465714Y-66857619D02*
X142656190Y-66857619D01*
X142656190Y-66857619D02*
X142751428Y-66810000D01*
X142751428Y-66810000D02*
X142799047Y-66762380D01*
X142799047Y-66762380D02*
X142846666Y-66667142D01*
X142846666Y-66667142D02*
X142846666Y-66429047D01*
X142846666Y-66429047D02*
X142799047Y-66333809D01*
X142799047Y-66333809D02*
X142751428Y-66286190D01*
X142751428Y-66286190D02*
X142656190Y-66238571D01*
X142656190Y-66238571D02*
X142465714Y-66238571D01*
X142465714Y-66238571D02*
X142370476Y-66286190D01*
X142370476Y-66286190D02*
X142322857Y-66333809D01*
X142322857Y-66333809D02*
X142275238Y-66429047D01*
%TO.C,J7*%
X168722619Y-113803333D02*
X169436904Y-113803333D01*
X169436904Y-113803333D02*
X169579761Y-113850952D01*
X169579761Y-113850952D02*
X169675000Y-113946190D01*
X169675000Y-113946190D02*
X169722619Y-114089047D01*
X169722619Y-114089047D02*
X169722619Y-114184285D01*
X168722619Y-113422380D02*
X168722619Y-112755714D01*
X168722619Y-112755714D02*
X169722619Y-113184285D01*
%TO.C,J1*%
X164185744Y-74002851D02*
X163680668Y-74507928D01*
X163680668Y-74507928D02*
X163545981Y-74575271D01*
X163545981Y-74575271D02*
X163411294Y-74575271D01*
X163411294Y-74575271D02*
X163276607Y-74507928D01*
X163276607Y-74507928D02*
X163209263Y-74440584D01*
X164185744Y-75417065D02*
X163781683Y-75013004D01*
X163983714Y-75215035D02*
X164690820Y-74507928D01*
X164690820Y-74507928D02*
X164522462Y-74541600D01*
X164522462Y-74541600D02*
X164387775Y-74541600D01*
X164387775Y-74541600D02*
X164286759Y-74507928D01*
%TO.C,H1*%
X122368095Y-130652619D02*
X122368095Y-129652619D01*
X122368095Y-130128809D02*
X122939523Y-130128809D01*
X122939523Y-130652619D02*
X122939523Y-129652619D01*
X123939523Y-130652619D02*
X123368095Y-130652619D01*
X123653809Y-130652619D02*
X123653809Y-129652619D01*
X123653809Y-129652619D02*
X123558571Y-129795476D01*
X123558571Y-129795476D02*
X123463333Y-129890714D01*
X123463333Y-129890714D02*
X123368095Y-129938333D01*
%TO.C,J4*%
X134986666Y-129242619D02*
X134986666Y-129956904D01*
X134986666Y-129956904D02*
X134939047Y-130099761D01*
X134939047Y-130099761D02*
X134843809Y-130195000D01*
X134843809Y-130195000D02*
X134700952Y-130242619D01*
X134700952Y-130242619D02*
X134605714Y-130242619D01*
X135891428Y-129575952D02*
X135891428Y-130242619D01*
X135653333Y-129195000D02*
X135415238Y-129909285D01*
X135415238Y-129909285D02*
X136034285Y-129909285D01*
%TO.C,H2*%
X159818095Y-130572619D02*
X159818095Y-129572619D01*
X159818095Y-130048809D02*
X160389523Y-130048809D01*
X160389523Y-130572619D02*
X160389523Y-129572619D01*
X160818095Y-129667857D02*
X160865714Y-129620238D01*
X160865714Y-129620238D02*
X160960952Y-129572619D01*
X160960952Y-129572619D02*
X161199047Y-129572619D01*
X161199047Y-129572619D02*
X161294285Y-129620238D01*
X161294285Y-129620238D02*
X161341904Y-129667857D01*
X161341904Y-129667857D02*
X161389523Y-129763095D01*
X161389523Y-129763095D02*
X161389523Y-129858333D01*
X161389523Y-129858333D02*
X161341904Y-130001190D01*
X161341904Y-130001190D02*
X160770476Y-130572619D01*
X160770476Y-130572619D02*
X161389523Y-130572619D01*
%TO.C,C8*%
X148913333Y-99127380D02*
X148865714Y-99175000D01*
X148865714Y-99175000D02*
X148722857Y-99222619D01*
X148722857Y-99222619D02*
X148627619Y-99222619D01*
X148627619Y-99222619D02*
X148484762Y-99175000D01*
X148484762Y-99175000D02*
X148389524Y-99079761D01*
X148389524Y-99079761D02*
X148341905Y-98984523D01*
X148341905Y-98984523D02*
X148294286Y-98794047D01*
X148294286Y-98794047D02*
X148294286Y-98651190D01*
X148294286Y-98651190D02*
X148341905Y-98460714D01*
X148341905Y-98460714D02*
X148389524Y-98365476D01*
X148389524Y-98365476D02*
X148484762Y-98270238D01*
X148484762Y-98270238D02*
X148627619Y-98222619D01*
X148627619Y-98222619D02*
X148722857Y-98222619D01*
X148722857Y-98222619D02*
X148865714Y-98270238D01*
X148865714Y-98270238D02*
X148913333Y-98317857D01*
X149484762Y-98651190D02*
X149389524Y-98603571D01*
X149389524Y-98603571D02*
X149341905Y-98555952D01*
X149341905Y-98555952D02*
X149294286Y-98460714D01*
X149294286Y-98460714D02*
X149294286Y-98413095D01*
X149294286Y-98413095D02*
X149341905Y-98317857D01*
X149341905Y-98317857D02*
X149389524Y-98270238D01*
X149389524Y-98270238D02*
X149484762Y-98222619D01*
X149484762Y-98222619D02*
X149675238Y-98222619D01*
X149675238Y-98222619D02*
X149770476Y-98270238D01*
X149770476Y-98270238D02*
X149818095Y-98317857D01*
X149818095Y-98317857D02*
X149865714Y-98413095D01*
X149865714Y-98413095D02*
X149865714Y-98460714D01*
X149865714Y-98460714D02*
X149818095Y-98555952D01*
X149818095Y-98555952D02*
X149770476Y-98603571D01*
X149770476Y-98603571D02*
X149675238Y-98651190D01*
X149675238Y-98651190D02*
X149484762Y-98651190D01*
X149484762Y-98651190D02*
X149389524Y-98698809D01*
X149389524Y-98698809D02*
X149341905Y-98746428D01*
X149341905Y-98746428D02*
X149294286Y-98841666D01*
X149294286Y-98841666D02*
X149294286Y-99032142D01*
X149294286Y-99032142D02*
X149341905Y-99127380D01*
X149341905Y-99127380D02*
X149389524Y-99175000D01*
X149389524Y-99175000D02*
X149484762Y-99222619D01*
X149484762Y-99222619D02*
X149675238Y-99222619D01*
X149675238Y-99222619D02*
X149770476Y-99175000D01*
X149770476Y-99175000D02*
X149818095Y-99127380D01*
X149818095Y-99127380D02*
X149865714Y-99032142D01*
X149865714Y-99032142D02*
X149865714Y-98841666D01*
X149865714Y-98841666D02*
X149818095Y-98746428D01*
X149818095Y-98746428D02*
X149770476Y-98698809D01*
X149770476Y-98698809D02*
X149675238Y-98651190D01*
%TO.C,C11*%
X134557142Y-99377380D02*
X134509523Y-99425000D01*
X134509523Y-99425000D02*
X134366666Y-99472619D01*
X134366666Y-99472619D02*
X134271428Y-99472619D01*
X134271428Y-99472619D02*
X134128571Y-99425000D01*
X134128571Y-99425000D02*
X134033333Y-99329761D01*
X134033333Y-99329761D02*
X133985714Y-99234523D01*
X133985714Y-99234523D02*
X133938095Y-99044047D01*
X133938095Y-99044047D02*
X133938095Y-98901190D01*
X133938095Y-98901190D02*
X133985714Y-98710714D01*
X133985714Y-98710714D02*
X134033333Y-98615476D01*
X134033333Y-98615476D02*
X134128571Y-98520238D01*
X134128571Y-98520238D02*
X134271428Y-98472619D01*
X134271428Y-98472619D02*
X134366666Y-98472619D01*
X134366666Y-98472619D02*
X134509523Y-98520238D01*
X134509523Y-98520238D02*
X134557142Y-98567857D01*
X135509523Y-99472619D02*
X134938095Y-99472619D01*
X135223809Y-99472619D02*
X135223809Y-98472619D01*
X135223809Y-98472619D02*
X135128571Y-98615476D01*
X135128571Y-98615476D02*
X135033333Y-98710714D01*
X135033333Y-98710714D02*
X134938095Y-98758333D01*
X136461904Y-99472619D02*
X135890476Y-99472619D01*
X136176190Y-99472619D02*
X136176190Y-98472619D01*
X136176190Y-98472619D02*
X136080952Y-98615476D01*
X136080952Y-98615476D02*
X135985714Y-98710714D01*
X135985714Y-98710714D02*
X135890476Y-98758333D01*
%TO.C,U3*%
X141348095Y-104875119D02*
X141348095Y-105684642D01*
X141348095Y-105684642D02*
X141395714Y-105779880D01*
X141395714Y-105779880D02*
X141443333Y-105827500D01*
X141443333Y-105827500D02*
X141538571Y-105875119D01*
X141538571Y-105875119D02*
X141729047Y-105875119D01*
X141729047Y-105875119D02*
X141824285Y-105827500D01*
X141824285Y-105827500D02*
X141871904Y-105779880D01*
X141871904Y-105779880D02*
X141919523Y-105684642D01*
X141919523Y-105684642D02*
X141919523Y-104875119D01*
X142300476Y-104875119D02*
X142919523Y-104875119D01*
X142919523Y-104875119D02*
X142586190Y-105256071D01*
X142586190Y-105256071D02*
X142729047Y-105256071D01*
X142729047Y-105256071D02*
X142824285Y-105303690D01*
X142824285Y-105303690D02*
X142871904Y-105351309D01*
X142871904Y-105351309D02*
X142919523Y-105446547D01*
X142919523Y-105446547D02*
X142919523Y-105684642D01*
X142919523Y-105684642D02*
X142871904Y-105779880D01*
X142871904Y-105779880D02*
X142824285Y-105827500D01*
X142824285Y-105827500D02*
X142729047Y-105875119D01*
X142729047Y-105875119D02*
X142443333Y-105875119D01*
X142443333Y-105875119D02*
X142348095Y-105827500D01*
X142348095Y-105827500D02*
X142300476Y-105779880D01*
%TO.C,J3*%
X149306666Y-129292619D02*
X149306666Y-130006904D01*
X149306666Y-130006904D02*
X149259047Y-130149761D01*
X149259047Y-130149761D02*
X149163809Y-130245000D01*
X149163809Y-130245000D02*
X149020952Y-130292619D01*
X149020952Y-130292619D02*
X148925714Y-130292619D01*
X149687619Y-129292619D02*
X150306666Y-129292619D01*
X150306666Y-129292619D02*
X149973333Y-129673571D01*
X149973333Y-129673571D02*
X150116190Y-129673571D01*
X150116190Y-129673571D02*
X150211428Y-129721190D01*
X150211428Y-129721190D02*
X150259047Y-129768809D01*
X150259047Y-129768809D02*
X150306666Y-129864047D01*
X150306666Y-129864047D02*
X150306666Y-130102142D01*
X150306666Y-130102142D02*
X150259047Y-130197380D01*
X150259047Y-130197380D02*
X150211428Y-130245000D01*
X150211428Y-130245000D02*
X150116190Y-130292619D01*
X150116190Y-130292619D02*
X149830476Y-130292619D01*
X149830476Y-130292619D02*
X149735238Y-130245000D01*
X149735238Y-130245000D02*
X149687619Y-130197380D01*
D11*
%TO.C,A2*%
X121695714Y-112596904D02*
X122171904Y-112596904D01*
X121600476Y-112882619D02*
X121933809Y-111882619D01*
X121933809Y-111882619D02*
X122267142Y-112882619D01*
X122552857Y-111977857D02*
X122600476Y-111930238D01*
X122600476Y-111930238D02*
X122695714Y-111882619D01*
X122695714Y-111882619D02*
X122933809Y-111882619D01*
X122933809Y-111882619D02*
X123029047Y-111930238D01*
X123029047Y-111930238D02*
X123076666Y-111977857D01*
X123076666Y-111977857D02*
X123124285Y-112073095D01*
X123124285Y-112073095D02*
X123124285Y-112168333D01*
X123124285Y-112168333D02*
X123076666Y-112311190D01*
X123076666Y-112311190D02*
X122505238Y-112882619D01*
X122505238Y-112882619D02*
X123124285Y-112882619D01*
D10*
%TO.C,J2*%
X120022431Y-75227137D02*
X120527508Y-75732213D01*
X120527508Y-75732213D02*
X120594851Y-75866900D01*
X120594851Y-75866900D02*
X120594851Y-76001587D01*
X120594851Y-76001587D02*
X120527508Y-76136274D01*
X120527508Y-76136274D02*
X120460164Y-76203618D01*
X120392821Y-74991435D02*
X120392821Y-74924091D01*
X120392821Y-74924091D02*
X120426493Y-74823076D01*
X120426493Y-74823076D02*
X120594851Y-74654717D01*
X120594851Y-74654717D02*
X120695867Y-74621045D01*
X120695867Y-74621045D02*
X120763210Y-74621045D01*
X120763210Y-74621045D02*
X120864225Y-74654717D01*
X120864225Y-74654717D02*
X120931569Y-74722061D01*
X120931569Y-74722061D02*
X120998912Y-74856748D01*
X120998912Y-74856748D02*
X120998912Y-75664870D01*
X120998912Y-75664870D02*
X121436645Y-75227137D01*
D11*
%TO.C,A1*%
X120346904Y-128384285D02*
X120346904Y-127908095D01*
X120632619Y-128479523D02*
X119632619Y-128146190D01*
X119632619Y-128146190D02*
X120632619Y-127812857D01*
X120632619Y-126955714D02*
X120632619Y-127527142D01*
X120632619Y-127241428D02*
X119632619Y-127241428D01*
X119632619Y-127241428D02*
X119775476Y-127336666D01*
X119775476Y-127336666D02*
X119870714Y-127431904D01*
X119870714Y-127431904D02*
X119918333Y-127527142D01*
D10*
%TO.C,U1*%
X114448095Y-131692619D02*
X114448095Y-132502142D01*
X114448095Y-132502142D02*
X114495714Y-132597380D01*
X114495714Y-132597380D02*
X114543333Y-132645000D01*
X114543333Y-132645000D02*
X114638571Y-132692619D01*
X114638571Y-132692619D02*
X114829047Y-132692619D01*
X114829047Y-132692619D02*
X114924285Y-132645000D01*
X114924285Y-132645000D02*
X114971904Y-132597380D01*
X114971904Y-132597380D02*
X115019523Y-132502142D01*
X115019523Y-132502142D02*
X115019523Y-131692619D01*
X116019523Y-132692619D02*
X115448095Y-132692619D01*
X115733809Y-132692619D02*
X115733809Y-131692619D01*
X115733809Y-131692619D02*
X115638571Y-131835476D01*
X115638571Y-131835476D02*
X115543333Y-131930714D01*
X115543333Y-131930714D02*
X115448095Y-131978333D01*
D12*
%TO.C,J8*%
X108190000Y-124900000D02*
X116190000Y-124900000D01*
X116190000Y-124900000D02*
X116190000Y-133900000D01*
X116190000Y-133900000D02*
X108190000Y-133900000D01*
X108190000Y-133900000D02*
X108190000Y-124900000D01*
X108190000Y-126900000D02*
X109040000Y-126900000D01*
X109040000Y-126900000D02*
X109040000Y-128400000D01*
X109040000Y-128400000D02*
X108190000Y-128400000D01*
X108190000Y-128400000D02*
X108190000Y-126900000D01*
X108190000Y-130400000D02*
X109040000Y-130400000D01*
X109040000Y-130400000D02*
X109040000Y-131900000D01*
X109040000Y-131900000D02*
X108190000Y-131900000D01*
X108190000Y-131900000D02*
X108190000Y-130400000D01*
%TO.C,J5*%
X108205000Y-120780000D02*
X109455000Y-120780000D01*
X108495000Y-120490000D02*
X114465000Y-120490000D01*
X114465000Y-120490000D02*
X114465000Y-107870000D01*
X108505000Y-120480000D02*
X109255000Y-120480000D01*
X109255000Y-120480000D02*
X109255000Y-118680000D01*
X110755000Y-120480000D02*
X110755000Y-119730000D01*
X110755000Y-119730000D02*
X113705000Y-119730000D01*
X113705000Y-119730000D02*
X113705000Y-114180000D01*
X108205000Y-119530000D02*
X108205000Y-120780000D01*
X108505000Y-118680000D02*
X108505000Y-120480000D01*
X109255000Y-118680000D02*
X108505000Y-118680000D01*
X108505000Y-117180000D02*
X109255000Y-117180000D01*
X109255000Y-117180000D02*
X109255000Y-111180000D01*
X108505000Y-111180000D02*
X108505000Y-117180000D01*
X109255000Y-111180000D02*
X108505000Y-111180000D01*
X108505000Y-109680000D02*
X109255000Y-109680000D01*
X109255000Y-109680000D02*
X109255000Y-107880000D01*
X110755000Y-108630000D02*
X113705000Y-108630000D01*
X113705000Y-108630000D02*
X113705000Y-114180000D01*
X108505000Y-107880000D02*
X108505000Y-109680000D01*
X109255000Y-107880000D02*
X108505000Y-107880000D01*
X110755000Y-107880000D02*
X110755000Y-108630000D01*
X108495000Y-107870000D02*
X108495000Y-120490000D01*
X114465000Y-107870000D02*
X108495000Y-107870000D01*
%TO.C,M1*%
X171740000Y-95870000D02*
X173070000Y-95870000D01*
X171740000Y-97200000D02*
X171740000Y-95870000D01*
X171740000Y-98470000D02*
X171740000Y-103610000D01*
X171740000Y-98470000D02*
X174400000Y-98470000D01*
X171740000Y-103610000D02*
X174400000Y-103610000D01*
X174400000Y-98470000D02*
X174400000Y-103610000D01*
%TO.C,J6*%
X135580000Y-67195000D02*
X135580000Y-68445000D01*
X135870000Y-67485000D02*
X135870000Y-73455000D01*
X135870000Y-73455000D02*
X148490000Y-73455000D01*
X135880000Y-67495000D02*
X135880000Y-68245000D01*
X135880000Y-68245000D02*
X137680000Y-68245000D01*
X135880000Y-69745000D02*
X136630000Y-69745000D01*
X136630000Y-69745000D02*
X136630000Y-72695000D01*
X136630000Y-72695000D02*
X142180000Y-72695000D01*
X136830000Y-67195000D02*
X135580000Y-67195000D01*
X137680000Y-67495000D02*
X135880000Y-67495000D01*
X137680000Y-68245000D02*
X137680000Y-67495000D01*
X139180000Y-67495000D02*
X139180000Y-68245000D01*
X139180000Y-68245000D02*
X145180000Y-68245000D01*
X145180000Y-67495000D02*
X139180000Y-67495000D01*
X145180000Y-68245000D02*
X145180000Y-67495000D01*
X146680000Y-67495000D02*
X146680000Y-68245000D01*
X146680000Y-68245000D02*
X148480000Y-68245000D01*
X147730000Y-69745000D02*
X147730000Y-72695000D01*
X147730000Y-72695000D02*
X142180000Y-72695000D01*
X148480000Y-67495000D02*
X146680000Y-67495000D01*
X148480000Y-68245000D02*
X148480000Y-67495000D01*
X148480000Y-69745000D02*
X147730000Y-69745000D01*
X148490000Y-67485000D02*
X135870000Y-67485000D01*
X148490000Y-73455000D02*
X148490000Y-67485000D01*
%TO.C,J7*%
X170060000Y-120070000D02*
X171310000Y-120070000D01*
X170350000Y-119780000D02*
X176320000Y-119780000D01*
X176320000Y-119780000D02*
X176320000Y-107160000D01*
X170360000Y-119770000D02*
X171110000Y-119770000D01*
X171110000Y-119770000D02*
X171110000Y-117970000D01*
X172610000Y-119770000D02*
X172610000Y-119020000D01*
X172610000Y-119020000D02*
X175560000Y-119020000D01*
X175560000Y-119020000D02*
X175560000Y-113470000D01*
X170060000Y-118820000D02*
X170060000Y-120070000D01*
X170360000Y-117970000D02*
X170360000Y-119770000D01*
X171110000Y-117970000D02*
X170360000Y-117970000D01*
X170360000Y-116470000D02*
X171110000Y-116470000D01*
X171110000Y-116470000D02*
X171110000Y-110470000D01*
X170360000Y-110470000D02*
X170360000Y-116470000D01*
X171110000Y-110470000D02*
X170360000Y-110470000D01*
X170360000Y-108970000D02*
X171110000Y-108970000D01*
X171110000Y-108970000D02*
X171110000Y-107170000D01*
X172610000Y-107920000D02*
X175560000Y-107920000D01*
X175560000Y-107920000D02*
X175560000Y-113470000D01*
X170360000Y-107170000D02*
X170360000Y-108970000D01*
X171110000Y-107170000D02*
X170360000Y-107170000D01*
X172610000Y-107170000D02*
X172610000Y-107920000D01*
X170350000Y-107160000D02*
X170350000Y-119780000D01*
X176320000Y-107160000D02*
X170350000Y-107160000D01*
%TO.C,J1*%
X158808870Y-70517321D02*
X157924987Y-71401205D01*
X158808870Y-70927443D02*
X154587443Y-75148870D01*
X154587443Y-75148870D02*
X163511130Y-84072558D01*
X158808870Y-70941585D02*
X158278540Y-71471915D01*
X158278540Y-71471915D02*
X159551332Y-72744707D01*
X157217880Y-72532575D02*
X157748210Y-73062905D01*
X157748210Y-73062905D02*
X155662245Y-75148870D01*
X155662245Y-75148870D02*
X159586688Y-79073313D01*
X159692754Y-71401205D02*
X158808870Y-70517321D01*
X160081663Y-72214377D02*
X158808870Y-70941585D01*
X159551332Y-72744707D02*
X160081663Y-72214377D01*
X161142323Y-73275037D02*
X160611993Y-73805368D01*
X160611993Y-73805368D02*
X164854633Y-78048008D01*
X165384963Y-77517678D02*
X161142323Y-73275037D01*
X164854633Y-78048008D02*
X165384963Y-77517678D01*
X166445624Y-78578338D02*
X165915293Y-79108668D01*
X165915293Y-79108668D02*
X167188086Y-80381461D01*
X165597095Y-80911791D02*
X163511130Y-82997756D01*
X163511130Y-82997756D02*
X159586688Y-79073313D01*
X167718416Y-79851131D02*
X166445624Y-78578338D01*
X167188086Y-80381461D02*
X167718416Y-79851131D01*
X166127426Y-81442121D02*
X165597095Y-80911791D01*
X167732558Y-79851131D02*
X158808870Y-70927443D01*
X163511130Y-84072558D02*
X167732558Y-79851131D01*
%TO.C,J4*%
X128720000Y-130580000D02*
X128720000Y-131830000D01*
X129010000Y-130870000D02*
X129010000Y-136840000D01*
X129010000Y-136840000D02*
X141630000Y-136840000D01*
X129020000Y-130880000D02*
X129020000Y-131630000D01*
X129020000Y-131630000D02*
X130820000Y-131630000D01*
X129020000Y-133130000D02*
X129770000Y-133130000D01*
X129770000Y-133130000D02*
X129770000Y-136080000D01*
X129770000Y-136080000D02*
X135320000Y-136080000D01*
X129970000Y-130580000D02*
X128720000Y-130580000D01*
X130820000Y-130880000D02*
X129020000Y-130880000D01*
X130820000Y-131630000D02*
X130820000Y-130880000D01*
X132320000Y-130880000D02*
X132320000Y-131630000D01*
X132320000Y-131630000D02*
X138320000Y-131630000D01*
X138320000Y-130880000D02*
X132320000Y-130880000D01*
X138320000Y-131630000D02*
X138320000Y-130880000D01*
X139820000Y-130880000D02*
X139820000Y-131630000D01*
X139820000Y-131630000D02*
X141620000Y-131630000D01*
X140870000Y-133130000D02*
X140870000Y-136080000D01*
X140870000Y-136080000D02*
X135320000Y-136080000D01*
X141620000Y-130880000D02*
X139820000Y-130880000D01*
X141620000Y-131630000D02*
X141620000Y-130880000D01*
X141620000Y-133130000D02*
X140870000Y-133130000D01*
X141630000Y-130870000D02*
X129010000Y-130870000D01*
X141630000Y-136840000D02*
X141630000Y-130870000D01*
%TO.C,C8*%
X148500000Y-101346267D02*
X148500000Y-101053733D01*
X149520000Y-101346267D02*
X149520000Y-101053733D01*
%TO.C,C11*%
X134860000Y-101646267D02*
X134860000Y-101353733D01*
X135880000Y-101646267D02*
X135880000Y-101353733D01*
%TO.C,U3*%
X147360000Y-104413000D02*
X147360000Y-99472000D01*
X147360000Y-104413000D02*
X136860000Y-104413000D01*
X147360000Y-101653000D02*
X145753000Y-101653000D01*
X147360000Y-99472000D02*
X136860000Y-99472000D01*
X143960000Y-104413000D02*
X143960000Y-102395000D01*
X143547000Y-101653000D02*
X143212000Y-101653000D01*
X141007000Y-101653000D02*
X140672000Y-101653000D01*
X140259000Y-104413000D02*
X140259000Y-102395000D01*
X138467000Y-101653000D02*
X136860000Y-101653000D01*
X136860000Y-104413000D02*
X136860000Y-99472000D01*
%TO.C,J3*%
X143040000Y-130630000D02*
X143040000Y-131880000D01*
X143330000Y-130920000D02*
X143330000Y-136890000D01*
X143330000Y-136890000D02*
X155950000Y-136890000D01*
X143340000Y-130930000D02*
X143340000Y-131680000D01*
X143340000Y-131680000D02*
X145140000Y-131680000D01*
X143340000Y-133180000D02*
X144090000Y-133180000D01*
X144090000Y-133180000D02*
X144090000Y-136130000D01*
X144090000Y-136130000D02*
X149640000Y-136130000D01*
X144290000Y-130630000D02*
X143040000Y-130630000D01*
X145140000Y-130930000D02*
X143340000Y-130930000D01*
X145140000Y-131680000D02*
X145140000Y-130930000D01*
X146640000Y-130930000D02*
X146640000Y-131680000D01*
X146640000Y-131680000D02*
X152640000Y-131680000D01*
X152640000Y-130930000D02*
X146640000Y-130930000D01*
X152640000Y-131680000D02*
X152640000Y-130930000D01*
X154140000Y-130930000D02*
X154140000Y-131680000D01*
X154140000Y-131680000D02*
X155940000Y-131680000D01*
X155190000Y-133180000D02*
X155190000Y-136130000D01*
X155190000Y-136130000D02*
X149640000Y-136130000D01*
X155940000Y-130930000D02*
X154140000Y-130930000D01*
X155940000Y-131680000D02*
X155940000Y-130930000D01*
X155940000Y-133180000D02*
X155190000Y-133180000D01*
X155950000Y-130920000D02*
X143330000Y-130920000D01*
X155950000Y-136890000D02*
X155950000Y-130920000D01*
D11*
%TO.C,A2*%
X142420000Y-128770000D02*
X162740000Y-128770000D01*
X162740000Y-128770000D02*
X162740000Y-113530000D01*
X162740000Y-113530000D02*
X142420000Y-113530000D01*
X142420000Y-113530000D02*
X142420000Y-128770000D01*
D12*
%TO.C,J2*%
X116536901Y-80604012D02*
X117420785Y-81487895D01*
X116947023Y-80604012D02*
X121168450Y-84825439D01*
X121168450Y-84825439D02*
X130092138Y-75901752D01*
X116961165Y-80604012D02*
X117491495Y-81134342D01*
X117491495Y-81134342D02*
X118764287Y-79861550D01*
X118552155Y-82195002D02*
X119082485Y-81664672D01*
X119082485Y-81664672D02*
X121168450Y-83750637D01*
X121168450Y-83750637D02*
X125092893Y-79826194D01*
X117420785Y-79720128D02*
X116536901Y-80604012D01*
X118233957Y-79331219D02*
X116961165Y-80604012D01*
X118764287Y-79861550D02*
X118233957Y-79331219D01*
X119294617Y-78270559D02*
X119824948Y-78800889D01*
X119824948Y-78800889D02*
X124067588Y-74558249D01*
X123537258Y-74027919D02*
X119294617Y-78270559D01*
X124067588Y-74558249D02*
X123537258Y-74027919D01*
X124597918Y-72967258D02*
X125128248Y-73497589D01*
X125128248Y-73497589D02*
X126401041Y-72224796D01*
X126931371Y-73815787D02*
X129017336Y-75901752D01*
X129017336Y-75901752D02*
X125092893Y-79826194D01*
X125870711Y-71694466D02*
X124597918Y-72967258D01*
X126401041Y-72224796D02*
X125870711Y-71694466D01*
X127461701Y-73285456D02*
X126931371Y-73815787D01*
X125870711Y-71680324D02*
X116947023Y-80604012D01*
X130092138Y-75901752D02*
X125870711Y-71680324D01*
D11*
%TO.C,A1*%
X121120000Y-128730000D02*
X141440000Y-128730000D01*
X141440000Y-128730000D02*
X141440000Y-113490000D01*
X141440000Y-113490000D02*
X121120000Y-113490000D01*
X121120000Y-113490000D02*
X121120000Y-128730000D01*
%TD*%
M02*
