%TF.GenerationSoftware,KiCad,Pcbnew,7.0.2*%
%TF.CreationDate,2023-05-25T17:28:33+02:00*%
%TF.ProjectId,robot2,726f626f-7432-42e6-9b69-6361645f7063,rev?*%
%TF.SameCoordinates,Original*%
%TF.FileFunction,Soldermask,Top*%
%TF.FilePolarity,Negative*%
%FSLAX46Y46*%
G04 Gerber Fmt 4.6, Leading zero omitted, Abs format (unit mm)*
G04 Created by KiCad (PCBNEW 7.0.2) date 2023-05-25 17:28:33*
%MOMM*%
%LPD*%
G01*
G04 APERTURE LIST*
G04 Aperture macros list*
%AMRoundRect*
0 Rectangle with rounded corners*
0 $1 Rounding radius*
0 $2 $3 $4 $5 $6 $7 $8 $9 X,Y pos of 4 corners*
0 Add a 4 corners polygon primitive as box body*
4,1,4,$2,$3,$4,$5,$6,$7,$8,$9,$2,$3,0*
0 Add four circle primitives for the rounded corners*
1,1,$1+$1,$2,$3*
1,1,$1+$1,$4,$5*
1,1,$1+$1,$6,$7*
1,1,$1+$1,$8,$9*
0 Add four rect primitives between the rounded corners*
20,1,$1+$1,$2,$3,$4,$5,0*
20,1,$1+$1,$4,$5,$6,$7,0*
20,1,$1+$1,$6,$7,$8,$9,0*
20,1,$1+$1,$8,$9,$2,$3,0*%
%AMHorizOval*
0 Thick line with rounded ends*
0 $1 width*
0 $2 $3 position (X,Y) of the first rounded end (center of the circle)*
0 $4 $5 position (X,Y) of the second rounded end (center of the circle)*
0 Add line between two ends*
20,1,$1,$2,$3,$4,$5,0*
0 Add two circle primitives to create the rounded ends*
1,1,$1,$2,$3*
1,1,$1,$4,$5*%
G04 Aperture macros list end*
%ADD10C,5.600000*%
%ADD11RoundRect,0.250000X0.725000X-0.600000X0.725000X0.600000X-0.725000X0.600000X-0.725000X-0.600000X0*%
%ADD12O,1.950000X1.700000*%
%ADD13R,1.700000X1.700000*%
%ADD14O,1.700000X1.700000*%
%ADD15RoundRect,0.250000X-0.600000X-0.725000X0.600000X-0.725000X0.600000X0.725000X-0.600000X0.725000X0*%
%ADD16O,1.700000X1.950000*%
%ADD17C,2.743200*%
%ADD18RoundRect,0.250000X-0.936916X-0.088388X-0.088388X-0.936916X0.936916X0.088388X0.088388X0.936916X0*%
%ADD19HorizOval,1.700000X-0.088388X-0.088388X0.088388X0.088388X0*%
%ADD20RoundRect,0.237500X0.237500X-0.300000X0.237500X0.300000X-0.237500X0.300000X-0.237500X-0.300000X0*%
%ADD21R,1.905000X2.000000*%
%ADD22O,1.905000X2.000000*%
%ADD23C,1.524000*%
%ADD24RoundRect,0.250000X0.088388X-0.936916X0.936916X-0.088388X-0.088388X0.936916X-0.936916X0.088388X0*%
%ADD25HorizOval,1.700000X-0.088388X0.088388X0.088388X-0.088388X0*%
G04 APERTURE END LIST*
D10*
%TO.C,H3*%
X148000000Y-76250000D03*
%TD*%
D11*
%TO.C,J5*%
X116805000Y-115700000D03*
D12*
X116805000Y-113200000D03*
X116805000Y-110700000D03*
X116805000Y-108200000D03*
%TD*%
D13*
%TO.C,M1*%
X178920000Y-94970000D03*
D14*
X178920000Y-97510000D03*
X178920000Y-100050000D03*
%TD*%
D15*
%TO.C,J6*%
X144280000Y-67715000D03*
D16*
X146780000Y-67715000D03*
X149280000Y-67715000D03*
X151780000Y-67715000D03*
%TD*%
D17*
%TO.C,J8*%
X116020000Y-127180000D03*
X119520000Y-127180000D03*
%TD*%
D13*
%TO.C,J12*%
X123990000Y-129990000D03*
D14*
X123990000Y-127450000D03*
X123990000Y-124910000D03*
X123990000Y-122370000D03*
X123990000Y-119830000D03*
X123990000Y-117290000D03*
%TD*%
D11*
%TO.C,J7*%
X178660000Y-114990000D03*
D12*
X178660000Y-112490000D03*
X178660000Y-109990000D03*
X178660000Y-107490000D03*
%TD*%
D18*
%TO.C,J1*%
X164729581Y-72247119D03*
D19*
X166497348Y-74014886D03*
X168265115Y-75782653D03*
X170032882Y-77550420D03*
%TD*%
D10*
%TO.C,H1*%
X130980000Y-131770000D03*
%TD*%
D13*
%TO.C,J9*%
X172250000Y-85330000D03*
D14*
X172250000Y-87870000D03*
X172250000Y-90410000D03*
X172250000Y-92950000D03*
X172250000Y-95490000D03*
X172250000Y-98030000D03*
X172250000Y-100570000D03*
X172250000Y-103110000D03*
X172250000Y-105650000D03*
X172250000Y-108190000D03*
%TD*%
D15*
%TO.C,J4*%
X137420000Y-131100000D03*
D16*
X139920000Y-131100000D03*
X142420000Y-131100000D03*
X144920000Y-131100000D03*
%TD*%
D13*
%TO.C,J10*%
X172260000Y-112250000D03*
D14*
X172260000Y-114790000D03*
X172260000Y-117330000D03*
X172260000Y-119870000D03*
X172260000Y-122410000D03*
X172260000Y-124950000D03*
X172260000Y-127490000D03*
X172260000Y-130030000D03*
%TD*%
D10*
%TO.C,H2*%
X165850000Y-131650000D03*
%TD*%
D20*
%TO.C,C8*%
X154860000Y-99832500D03*
X154860000Y-98107500D03*
%TD*%
%TO.C,C11*%
X141220000Y-100132500D03*
X141220000Y-98407500D03*
%TD*%
D21*
%TO.C,U3*%
X150500000Y-99015000D03*
D22*
X147960000Y-99015000D03*
X145420000Y-99015000D03*
%TD*%
D15*
%TO.C,J3*%
X151740000Y-131150000D03*
D16*
X154240000Y-131150000D03*
X156740000Y-131150000D03*
X159240000Y-131150000D03*
%TD*%
D23*
%TO.C,A2*%
X149540000Y-125270000D03*
X152080000Y-125270000D03*
X154620000Y-125270000D03*
X157160000Y-125270000D03*
X159700000Y-125270000D03*
X162240000Y-125270000D03*
X164780000Y-125270000D03*
X167320000Y-125270000D03*
X149540000Y-112570000D03*
X152080000Y-112570000D03*
X154620000Y-112570000D03*
X157160000Y-112570000D03*
X159700000Y-112570000D03*
X162240000Y-112570000D03*
X164780000Y-112570000D03*
X167320000Y-112570000D03*
%TD*%
D24*
%TO.C,J2*%
X126346699Y-78303301D03*
D25*
X128114466Y-76535534D03*
X129882233Y-74767767D03*
X131650000Y-73000000D03*
%TD*%
D23*
%TO.C,A1*%
X128240000Y-125230000D03*
X130780000Y-125230000D03*
X133320000Y-125230000D03*
X135860000Y-125230000D03*
X138400000Y-125230000D03*
X140940000Y-125230000D03*
X143480000Y-125230000D03*
X146020000Y-125230000D03*
X128240000Y-112530000D03*
X130780000Y-112530000D03*
X133320000Y-112530000D03*
X135860000Y-112530000D03*
X138400000Y-112530000D03*
X140940000Y-112530000D03*
X143480000Y-112530000D03*
X146020000Y-112530000D03*
%TD*%
D13*
%TO.C,J11*%
X124000000Y-112210000D03*
D14*
X124000000Y-109670000D03*
X124000000Y-107130000D03*
X124000000Y-104590000D03*
X124000000Y-102050000D03*
X124000000Y-99510000D03*
X124000000Y-96970000D03*
X124000000Y-94430000D03*
%TD*%
M02*
