%TF.GenerationSoftware,KiCad,Pcbnew,7.0.2*%
%TF.CreationDate,2023-05-25T17:28:33+02:00*%
%TF.ProjectId,robot2,726f626f-7432-42e6-9b69-6361645f7063,rev?*%
%TF.SameCoordinates,Original*%
%TF.FileFunction,Legend,Top*%
%TF.FilePolarity,Positive*%
%FSLAX46Y46*%
G04 Gerber Fmt 4.6, Leading zero omitted, Abs format (unit mm)*
G04 Created by KiCad (PCBNEW 7.0.2) date 2023-05-25 17:28:33*
%MOMM*%
%LPD*%
G01*
G04 APERTURE LIST*
%ADD10C,0.150000*%
%ADD11C,0.100000*%
%ADD12C,0.120000*%
G04 APERTURE END LIST*
D10*
%TO.C,H3*%
X147238095Y-72912619D02*
X147238095Y-71912619D01*
X147238095Y-72388809D02*
X147809523Y-72388809D01*
X147809523Y-72912619D02*
X147809523Y-71912619D01*
X148190476Y-71912619D02*
X148809523Y-71912619D01*
X148809523Y-71912619D02*
X148476190Y-72293571D01*
X148476190Y-72293571D02*
X148619047Y-72293571D01*
X148619047Y-72293571D02*
X148714285Y-72341190D01*
X148714285Y-72341190D02*
X148761904Y-72388809D01*
X148761904Y-72388809D02*
X148809523Y-72484047D01*
X148809523Y-72484047D02*
X148809523Y-72722142D01*
X148809523Y-72722142D02*
X148761904Y-72817380D01*
X148761904Y-72817380D02*
X148714285Y-72865000D01*
X148714285Y-72865000D02*
X148619047Y-72912619D01*
X148619047Y-72912619D02*
X148333333Y-72912619D01*
X148333333Y-72912619D02*
X148238095Y-72865000D01*
X148238095Y-72865000D02*
X148190476Y-72817380D01*
%TO.C,J5*%
X116526666Y-103292619D02*
X116526666Y-104006904D01*
X116526666Y-104006904D02*
X116479047Y-104149761D01*
X116479047Y-104149761D02*
X116383809Y-104245000D01*
X116383809Y-104245000D02*
X116240952Y-104292619D01*
X116240952Y-104292619D02*
X116145714Y-104292619D01*
X117479047Y-103292619D02*
X117002857Y-103292619D01*
X117002857Y-103292619D02*
X116955238Y-103768809D01*
X116955238Y-103768809D02*
X117002857Y-103721190D01*
X117002857Y-103721190D02*
X117098095Y-103673571D01*
X117098095Y-103673571D02*
X117336190Y-103673571D01*
X117336190Y-103673571D02*
X117431428Y-103721190D01*
X117431428Y-103721190D02*
X117479047Y-103768809D01*
X117479047Y-103768809D02*
X117526666Y-103864047D01*
X117526666Y-103864047D02*
X117526666Y-104102142D01*
X117526666Y-104102142D02*
X117479047Y-104197380D01*
X117479047Y-104197380D02*
X117431428Y-104245000D01*
X117431428Y-104245000D02*
X117336190Y-104292619D01*
X117336190Y-104292619D02*
X117098095Y-104292619D01*
X117098095Y-104292619D02*
X117002857Y-104245000D01*
X117002857Y-104245000D02*
X116955238Y-104197380D01*
%TO.C,M1*%
X178110476Y-93102619D02*
X178110476Y-92102619D01*
X178110476Y-92102619D02*
X178443809Y-92816904D01*
X178443809Y-92816904D02*
X178777142Y-92102619D01*
X178777142Y-92102619D02*
X178777142Y-93102619D01*
X179777142Y-93102619D02*
X179205714Y-93102619D01*
X179491428Y-93102619D02*
X179491428Y-92102619D01*
X179491428Y-92102619D02*
X179396190Y-92245476D01*
X179396190Y-92245476D02*
X179300952Y-92340714D01*
X179300952Y-92340714D02*
X179205714Y-92388333D01*
%TO.C,J6*%
X147696666Y-63627619D02*
X147696666Y-64341904D01*
X147696666Y-64341904D02*
X147649047Y-64484761D01*
X147649047Y-64484761D02*
X147553809Y-64580000D01*
X147553809Y-64580000D02*
X147410952Y-64627619D01*
X147410952Y-64627619D02*
X147315714Y-64627619D01*
X148601428Y-63627619D02*
X148410952Y-63627619D01*
X148410952Y-63627619D02*
X148315714Y-63675238D01*
X148315714Y-63675238D02*
X148268095Y-63722857D01*
X148268095Y-63722857D02*
X148172857Y-63865714D01*
X148172857Y-63865714D02*
X148125238Y-64056190D01*
X148125238Y-64056190D02*
X148125238Y-64437142D01*
X148125238Y-64437142D02*
X148172857Y-64532380D01*
X148172857Y-64532380D02*
X148220476Y-64580000D01*
X148220476Y-64580000D02*
X148315714Y-64627619D01*
X148315714Y-64627619D02*
X148506190Y-64627619D01*
X148506190Y-64627619D02*
X148601428Y-64580000D01*
X148601428Y-64580000D02*
X148649047Y-64532380D01*
X148649047Y-64532380D02*
X148696666Y-64437142D01*
X148696666Y-64437142D02*
X148696666Y-64199047D01*
X148696666Y-64199047D02*
X148649047Y-64103809D01*
X148649047Y-64103809D02*
X148601428Y-64056190D01*
X148601428Y-64056190D02*
X148506190Y-64008571D01*
X148506190Y-64008571D02*
X148315714Y-64008571D01*
X148315714Y-64008571D02*
X148220476Y-64056190D01*
X148220476Y-64056190D02*
X148172857Y-64103809D01*
X148172857Y-64103809D02*
X148125238Y-64199047D01*
%TO.C,J8*%
X117306667Y-121207526D02*
X117306667Y-122114669D01*
X117306667Y-122114669D02*
X117246190Y-122296097D01*
X117246190Y-122296097D02*
X117125238Y-122417050D01*
X117125238Y-122417050D02*
X116943809Y-122477526D01*
X116943809Y-122477526D02*
X116822857Y-122477526D01*
X118092857Y-121751811D02*
X117971905Y-121691335D01*
X117971905Y-121691335D02*
X117911428Y-121630859D01*
X117911428Y-121630859D02*
X117850952Y-121509907D01*
X117850952Y-121509907D02*
X117850952Y-121449430D01*
X117850952Y-121449430D02*
X117911428Y-121328478D01*
X117911428Y-121328478D02*
X117971905Y-121268002D01*
X117971905Y-121268002D02*
X118092857Y-121207526D01*
X118092857Y-121207526D02*
X118334762Y-121207526D01*
X118334762Y-121207526D02*
X118455714Y-121268002D01*
X118455714Y-121268002D02*
X118516190Y-121328478D01*
X118516190Y-121328478D02*
X118576667Y-121449430D01*
X118576667Y-121449430D02*
X118576667Y-121509907D01*
X118576667Y-121509907D02*
X118516190Y-121630859D01*
X118516190Y-121630859D02*
X118455714Y-121691335D01*
X118455714Y-121691335D02*
X118334762Y-121751811D01*
X118334762Y-121751811D02*
X118092857Y-121751811D01*
X118092857Y-121751811D02*
X117971905Y-121812288D01*
X117971905Y-121812288D02*
X117911428Y-121872764D01*
X117911428Y-121872764D02*
X117850952Y-121993716D01*
X117850952Y-121993716D02*
X117850952Y-122235621D01*
X117850952Y-122235621D02*
X117911428Y-122356573D01*
X117911428Y-122356573D02*
X117971905Y-122417050D01*
X117971905Y-122417050D02*
X118092857Y-122477526D01*
X118092857Y-122477526D02*
X118334762Y-122477526D01*
X118334762Y-122477526D02*
X118455714Y-122417050D01*
X118455714Y-122417050D02*
X118516190Y-122356573D01*
X118516190Y-122356573D02*
X118576667Y-122235621D01*
X118576667Y-122235621D02*
X118576667Y-121993716D01*
X118576667Y-121993716D02*
X118516190Y-121872764D01*
X118516190Y-121872764D02*
X118455714Y-121812288D01*
X118455714Y-121812288D02*
X118334762Y-121751811D01*
%TO.C,J12*%
X123180476Y-131782619D02*
X123180476Y-132496904D01*
X123180476Y-132496904D02*
X123132857Y-132639761D01*
X123132857Y-132639761D02*
X123037619Y-132735000D01*
X123037619Y-132735000D02*
X122894762Y-132782619D01*
X122894762Y-132782619D02*
X122799524Y-132782619D01*
X124180476Y-132782619D02*
X123609048Y-132782619D01*
X123894762Y-132782619D02*
X123894762Y-131782619D01*
X123894762Y-131782619D02*
X123799524Y-131925476D01*
X123799524Y-131925476D02*
X123704286Y-132020714D01*
X123704286Y-132020714D02*
X123609048Y-132068333D01*
X124561429Y-131877857D02*
X124609048Y-131830238D01*
X124609048Y-131830238D02*
X124704286Y-131782619D01*
X124704286Y-131782619D02*
X124942381Y-131782619D01*
X124942381Y-131782619D02*
X125037619Y-131830238D01*
X125037619Y-131830238D02*
X125085238Y-131877857D01*
X125085238Y-131877857D02*
X125132857Y-131973095D01*
X125132857Y-131973095D02*
X125132857Y-132068333D01*
X125132857Y-132068333D02*
X125085238Y-132211190D01*
X125085238Y-132211190D02*
X124513810Y-132782619D01*
X124513810Y-132782619D02*
X125132857Y-132782619D01*
%TO.C,J7*%
X174572619Y-111573333D02*
X175286904Y-111573333D01*
X175286904Y-111573333D02*
X175429761Y-111620952D01*
X175429761Y-111620952D02*
X175525000Y-111716190D01*
X175525000Y-111716190D02*
X175572619Y-111859047D01*
X175572619Y-111859047D02*
X175572619Y-111954285D01*
X174572619Y-111192380D02*
X174572619Y-110525714D01*
X174572619Y-110525714D02*
X175572619Y-110954285D01*
%TO.C,J1*%
X170035744Y-71772851D02*
X169530668Y-72277928D01*
X169530668Y-72277928D02*
X169395981Y-72345271D01*
X169395981Y-72345271D02*
X169261294Y-72345271D01*
X169261294Y-72345271D02*
X169126607Y-72277928D01*
X169126607Y-72277928D02*
X169059263Y-72210584D01*
X170035744Y-73187065D02*
X169631683Y-72783004D01*
X169833714Y-72985035D02*
X170540820Y-72277928D01*
X170540820Y-72277928D02*
X170372462Y-72311600D01*
X170372462Y-72311600D02*
X170237775Y-72311600D01*
X170237775Y-72311600D02*
X170136759Y-72277928D01*
%TO.C,H1*%
X130328095Y-128412619D02*
X130328095Y-127412619D01*
X130328095Y-127888809D02*
X130899523Y-127888809D01*
X130899523Y-128412619D02*
X130899523Y-127412619D01*
X131899523Y-128412619D02*
X131328095Y-128412619D01*
X131613809Y-128412619D02*
X131613809Y-127412619D01*
X131613809Y-127412619D02*
X131518571Y-127555476D01*
X131518571Y-127555476D02*
X131423333Y-127650714D01*
X131423333Y-127650714D02*
X131328095Y-127698333D01*
%TO.C,J9*%
X171916666Y-82462619D02*
X171916666Y-83176904D01*
X171916666Y-83176904D02*
X171869047Y-83319761D01*
X171869047Y-83319761D02*
X171773809Y-83415000D01*
X171773809Y-83415000D02*
X171630952Y-83462619D01*
X171630952Y-83462619D02*
X171535714Y-83462619D01*
X172440476Y-83462619D02*
X172630952Y-83462619D01*
X172630952Y-83462619D02*
X172726190Y-83415000D01*
X172726190Y-83415000D02*
X172773809Y-83367380D01*
X172773809Y-83367380D02*
X172869047Y-83224523D01*
X172869047Y-83224523D02*
X172916666Y-83034047D01*
X172916666Y-83034047D02*
X172916666Y-82653095D01*
X172916666Y-82653095D02*
X172869047Y-82557857D01*
X172869047Y-82557857D02*
X172821428Y-82510238D01*
X172821428Y-82510238D02*
X172726190Y-82462619D01*
X172726190Y-82462619D02*
X172535714Y-82462619D01*
X172535714Y-82462619D02*
X172440476Y-82510238D01*
X172440476Y-82510238D02*
X172392857Y-82557857D01*
X172392857Y-82557857D02*
X172345238Y-82653095D01*
X172345238Y-82653095D02*
X172345238Y-82891190D01*
X172345238Y-82891190D02*
X172392857Y-82986428D01*
X172392857Y-82986428D02*
X172440476Y-83034047D01*
X172440476Y-83034047D02*
X172535714Y-83081666D01*
X172535714Y-83081666D02*
X172726190Y-83081666D01*
X172726190Y-83081666D02*
X172821428Y-83034047D01*
X172821428Y-83034047D02*
X172869047Y-82986428D01*
X172869047Y-82986428D02*
X172916666Y-82891190D01*
%TO.C,J4*%
X140836666Y-127012619D02*
X140836666Y-127726904D01*
X140836666Y-127726904D02*
X140789047Y-127869761D01*
X140789047Y-127869761D02*
X140693809Y-127965000D01*
X140693809Y-127965000D02*
X140550952Y-128012619D01*
X140550952Y-128012619D02*
X140455714Y-128012619D01*
X141741428Y-127345952D02*
X141741428Y-128012619D01*
X141503333Y-126965000D02*
X141265238Y-127679285D01*
X141265238Y-127679285D02*
X141884285Y-127679285D01*
%TO.C,J10*%
X178110476Y-102812619D02*
X178110476Y-103526904D01*
X178110476Y-103526904D02*
X178062857Y-103669761D01*
X178062857Y-103669761D02*
X177967619Y-103765000D01*
X177967619Y-103765000D02*
X177824762Y-103812619D01*
X177824762Y-103812619D02*
X177729524Y-103812619D01*
X179110476Y-103812619D02*
X178539048Y-103812619D01*
X178824762Y-103812619D02*
X178824762Y-102812619D01*
X178824762Y-102812619D02*
X178729524Y-102955476D01*
X178729524Y-102955476D02*
X178634286Y-103050714D01*
X178634286Y-103050714D02*
X178539048Y-103098333D01*
X179729524Y-102812619D02*
X179824762Y-102812619D01*
X179824762Y-102812619D02*
X179920000Y-102860238D01*
X179920000Y-102860238D02*
X179967619Y-102907857D01*
X179967619Y-102907857D02*
X180015238Y-103003095D01*
X180015238Y-103003095D02*
X180062857Y-103193571D01*
X180062857Y-103193571D02*
X180062857Y-103431666D01*
X180062857Y-103431666D02*
X180015238Y-103622142D01*
X180015238Y-103622142D02*
X179967619Y-103717380D01*
X179967619Y-103717380D02*
X179920000Y-103765000D01*
X179920000Y-103765000D02*
X179824762Y-103812619D01*
X179824762Y-103812619D02*
X179729524Y-103812619D01*
X179729524Y-103812619D02*
X179634286Y-103765000D01*
X179634286Y-103765000D02*
X179586667Y-103717380D01*
X179586667Y-103717380D02*
X179539048Y-103622142D01*
X179539048Y-103622142D02*
X179491429Y-103431666D01*
X179491429Y-103431666D02*
X179491429Y-103193571D01*
X179491429Y-103193571D02*
X179539048Y-103003095D01*
X179539048Y-103003095D02*
X179586667Y-102907857D01*
X179586667Y-102907857D02*
X179634286Y-102860238D01*
X179634286Y-102860238D02*
X179729524Y-102812619D01*
%TO.C,H2*%
X165088095Y-128312619D02*
X165088095Y-127312619D01*
X165088095Y-127788809D02*
X165659523Y-127788809D01*
X165659523Y-128312619D02*
X165659523Y-127312619D01*
X166088095Y-127407857D02*
X166135714Y-127360238D01*
X166135714Y-127360238D02*
X166230952Y-127312619D01*
X166230952Y-127312619D02*
X166469047Y-127312619D01*
X166469047Y-127312619D02*
X166564285Y-127360238D01*
X166564285Y-127360238D02*
X166611904Y-127407857D01*
X166611904Y-127407857D02*
X166659523Y-127503095D01*
X166659523Y-127503095D02*
X166659523Y-127598333D01*
X166659523Y-127598333D02*
X166611904Y-127741190D01*
X166611904Y-127741190D02*
X166040476Y-128312619D01*
X166040476Y-128312619D02*
X166659523Y-128312619D01*
%TO.C,C8*%
X154763333Y-96897380D02*
X154715714Y-96945000D01*
X154715714Y-96945000D02*
X154572857Y-96992619D01*
X154572857Y-96992619D02*
X154477619Y-96992619D01*
X154477619Y-96992619D02*
X154334762Y-96945000D01*
X154334762Y-96945000D02*
X154239524Y-96849761D01*
X154239524Y-96849761D02*
X154191905Y-96754523D01*
X154191905Y-96754523D02*
X154144286Y-96564047D01*
X154144286Y-96564047D02*
X154144286Y-96421190D01*
X154144286Y-96421190D02*
X154191905Y-96230714D01*
X154191905Y-96230714D02*
X154239524Y-96135476D01*
X154239524Y-96135476D02*
X154334762Y-96040238D01*
X154334762Y-96040238D02*
X154477619Y-95992619D01*
X154477619Y-95992619D02*
X154572857Y-95992619D01*
X154572857Y-95992619D02*
X154715714Y-96040238D01*
X154715714Y-96040238D02*
X154763333Y-96087857D01*
X155334762Y-96421190D02*
X155239524Y-96373571D01*
X155239524Y-96373571D02*
X155191905Y-96325952D01*
X155191905Y-96325952D02*
X155144286Y-96230714D01*
X155144286Y-96230714D02*
X155144286Y-96183095D01*
X155144286Y-96183095D02*
X155191905Y-96087857D01*
X155191905Y-96087857D02*
X155239524Y-96040238D01*
X155239524Y-96040238D02*
X155334762Y-95992619D01*
X155334762Y-95992619D02*
X155525238Y-95992619D01*
X155525238Y-95992619D02*
X155620476Y-96040238D01*
X155620476Y-96040238D02*
X155668095Y-96087857D01*
X155668095Y-96087857D02*
X155715714Y-96183095D01*
X155715714Y-96183095D02*
X155715714Y-96230714D01*
X155715714Y-96230714D02*
X155668095Y-96325952D01*
X155668095Y-96325952D02*
X155620476Y-96373571D01*
X155620476Y-96373571D02*
X155525238Y-96421190D01*
X155525238Y-96421190D02*
X155334762Y-96421190D01*
X155334762Y-96421190D02*
X155239524Y-96468809D01*
X155239524Y-96468809D02*
X155191905Y-96516428D01*
X155191905Y-96516428D02*
X155144286Y-96611666D01*
X155144286Y-96611666D02*
X155144286Y-96802142D01*
X155144286Y-96802142D02*
X155191905Y-96897380D01*
X155191905Y-96897380D02*
X155239524Y-96945000D01*
X155239524Y-96945000D02*
X155334762Y-96992619D01*
X155334762Y-96992619D02*
X155525238Y-96992619D01*
X155525238Y-96992619D02*
X155620476Y-96945000D01*
X155620476Y-96945000D02*
X155668095Y-96897380D01*
X155668095Y-96897380D02*
X155715714Y-96802142D01*
X155715714Y-96802142D02*
X155715714Y-96611666D01*
X155715714Y-96611666D02*
X155668095Y-96516428D01*
X155668095Y-96516428D02*
X155620476Y-96468809D01*
X155620476Y-96468809D02*
X155525238Y-96421190D01*
%TO.C,C11*%
X140407142Y-97147380D02*
X140359523Y-97195000D01*
X140359523Y-97195000D02*
X140216666Y-97242619D01*
X140216666Y-97242619D02*
X140121428Y-97242619D01*
X140121428Y-97242619D02*
X139978571Y-97195000D01*
X139978571Y-97195000D02*
X139883333Y-97099761D01*
X139883333Y-97099761D02*
X139835714Y-97004523D01*
X139835714Y-97004523D02*
X139788095Y-96814047D01*
X139788095Y-96814047D02*
X139788095Y-96671190D01*
X139788095Y-96671190D02*
X139835714Y-96480714D01*
X139835714Y-96480714D02*
X139883333Y-96385476D01*
X139883333Y-96385476D02*
X139978571Y-96290238D01*
X139978571Y-96290238D02*
X140121428Y-96242619D01*
X140121428Y-96242619D02*
X140216666Y-96242619D01*
X140216666Y-96242619D02*
X140359523Y-96290238D01*
X140359523Y-96290238D02*
X140407142Y-96337857D01*
X141359523Y-97242619D02*
X140788095Y-97242619D01*
X141073809Y-97242619D02*
X141073809Y-96242619D01*
X141073809Y-96242619D02*
X140978571Y-96385476D01*
X140978571Y-96385476D02*
X140883333Y-96480714D01*
X140883333Y-96480714D02*
X140788095Y-96528333D01*
X142311904Y-97242619D02*
X141740476Y-97242619D01*
X142026190Y-97242619D02*
X142026190Y-96242619D01*
X142026190Y-96242619D02*
X141930952Y-96385476D01*
X141930952Y-96385476D02*
X141835714Y-96480714D01*
X141835714Y-96480714D02*
X141740476Y-96528333D01*
%TO.C,U3*%
X147198095Y-102645119D02*
X147198095Y-103454642D01*
X147198095Y-103454642D02*
X147245714Y-103549880D01*
X147245714Y-103549880D02*
X147293333Y-103597500D01*
X147293333Y-103597500D02*
X147388571Y-103645119D01*
X147388571Y-103645119D02*
X147579047Y-103645119D01*
X147579047Y-103645119D02*
X147674285Y-103597500D01*
X147674285Y-103597500D02*
X147721904Y-103549880D01*
X147721904Y-103549880D02*
X147769523Y-103454642D01*
X147769523Y-103454642D02*
X147769523Y-102645119D01*
X148150476Y-102645119D02*
X148769523Y-102645119D01*
X148769523Y-102645119D02*
X148436190Y-103026071D01*
X148436190Y-103026071D02*
X148579047Y-103026071D01*
X148579047Y-103026071D02*
X148674285Y-103073690D01*
X148674285Y-103073690D02*
X148721904Y-103121309D01*
X148721904Y-103121309D02*
X148769523Y-103216547D01*
X148769523Y-103216547D02*
X148769523Y-103454642D01*
X148769523Y-103454642D02*
X148721904Y-103549880D01*
X148721904Y-103549880D02*
X148674285Y-103597500D01*
X148674285Y-103597500D02*
X148579047Y-103645119D01*
X148579047Y-103645119D02*
X148293333Y-103645119D01*
X148293333Y-103645119D02*
X148198095Y-103597500D01*
X148198095Y-103597500D02*
X148150476Y-103549880D01*
%TO.C,J3*%
X155156666Y-127062619D02*
X155156666Y-127776904D01*
X155156666Y-127776904D02*
X155109047Y-127919761D01*
X155109047Y-127919761D02*
X155013809Y-128015000D01*
X155013809Y-128015000D02*
X154870952Y-128062619D01*
X154870952Y-128062619D02*
X154775714Y-128062619D01*
X155537619Y-127062619D02*
X156156666Y-127062619D01*
X156156666Y-127062619D02*
X155823333Y-127443571D01*
X155823333Y-127443571D02*
X155966190Y-127443571D01*
X155966190Y-127443571D02*
X156061428Y-127491190D01*
X156061428Y-127491190D02*
X156109047Y-127538809D01*
X156109047Y-127538809D02*
X156156666Y-127634047D01*
X156156666Y-127634047D02*
X156156666Y-127872142D01*
X156156666Y-127872142D02*
X156109047Y-127967380D01*
X156109047Y-127967380D02*
X156061428Y-128015000D01*
X156061428Y-128015000D02*
X155966190Y-128062619D01*
X155966190Y-128062619D02*
X155680476Y-128062619D01*
X155680476Y-128062619D02*
X155585238Y-128015000D01*
X155585238Y-128015000D02*
X155537619Y-127967380D01*
D11*
%TO.C,A2*%
X127545714Y-110366904D02*
X128021904Y-110366904D01*
X127450476Y-110652619D02*
X127783809Y-109652619D01*
X127783809Y-109652619D02*
X128117142Y-110652619D01*
X128402857Y-109747857D02*
X128450476Y-109700238D01*
X128450476Y-109700238D02*
X128545714Y-109652619D01*
X128545714Y-109652619D02*
X128783809Y-109652619D01*
X128783809Y-109652619D02*
X128879047Y-109700238D01*
X128879047Y-109700238D02*
X128926666Y-109747857D01*
X128926666Y-109747857D02*
X128974285Y-109843095D01*
X128974285Y-109843095D02*
X128974285Y-109938333D01*
X128974285Y-109938333D02*
X128926666Y-110081190D01*
X128926666Y-110081190D02*
X128355238Y-110652619D01*
X128355238Y-110652619D02*
X128974285Y-110652619D01*
D10*
%TO.C,J2*%
X125872431Y-72997137D02*
X126377508Y-73502213D01*
X126377508Y-73502213D02*
X126444851Y-73636900D01*
X126444851Y-73636900D02*
X126444851Y-73771587D01*
X126444851Y-73771587D02*
X126377508Y-73906274D01*
X126377508Y-73906274D02*
X126310164Y-73973618D01*
X126242821Y-72761435D02*
X126242821Y-72694091D01*
X126242821Y-72694091D02*
X126276493Y-72593076D01*
X126276493Y-72593076D02*
X126444851Y-72424717D01*
X126444851Y-72424717D02*
X126545867Y-72391045D01*
X126545867Y-72391045D02*
X126613210Y-72391045D01*
X126613210Y-72391045D02*
X126714225Y-72424717D01*
X126714225Y-72424717D02*
X126781569Y-72492061D01*
X126781569Y-72492061D02*
X126848912Y-72626748D01*
X126848912Y-72626748D02*
X126848912Y-73434870D01*
X126848912Y-73434870D02*
X127286645Y-72997137D01*
D11*
%TO.C,A1*%
X126196904Y-126154285D02*
X126196904Y-125678095D01*
X126482619Y-126249523D02*
X125482619Y-125916190D01*
X125482619Y-125916190D02*
X126482619Y-125582857D01*
X126482619Y-124725714D02*
X126482619Y-125297142D01*
X126482619Y-125011428D02*
X125482619Y-125011428D01*
X125482619Y-125011428D02*
X125625476Y-125106666D01*
X125625476Y-125106666D02*
X125720714Y-125201904D01*
X125720714Y-125201904D02*
X125768333Y-125297142D01*
D10*
%TO.C,J11*%
X123190476Y-114002619D02*
X123190476Y-114716904D01*
X123190476Y-114716904D02*
X123142857Y-114859761D01*
X123142857Y-114859761D02*
X123047619Y-114955000D01*
X123047619Y-114955000D02*
X122904762Y-115002619D01*
X122904762Y-115002619D02*
X122809524Y-115002619D01*
X124190476Y-115002619D02*
X123619048Y-115002619D01*
X123904762Y-115002619D02*
X123904762Y-114002619D01*
X123904762Y-114002619D02*
X123809524Y-114145476D01*
X123809524Y-114145476D02*
X123714286Y-114240714D01*
X123714286Y-114240714D02*
X123619048Y-114288333D01*
X125142857Y-115002619D02*
X124571429Y-115002619D01*
X124857143Y-115002619D02*
X124857143Y-114002619D01*
X124857143Y-114002619D02*
X124761905Y-114145476D01*
X124761905Y-114145476D02*
X124666667Y-114240714D01*
X124666667Y-114240714D02*
X124571429Y-114288333D01*
D12*
%TO.C,J5*%
X114055000Y-118550000D02*
X115305000Y-118550000D01*
X114345000Y-118260000D02*
X120315000Y-118260000D01*
X120315000Y-118260000D02*
X120315000Y-105640000D01*
X114355000Y-118250000D02*
X115105000Y-118250000D01*
X115105000Y-118250000D02*
X115105000Y-116450000D01*
X116605000Y-118250000D02*
X116605000Y-117500000D01*
X116605000Y-117500000D02*
X119555000Y-117500000D01*
X119555000Y-117500000D02*
X119555000Y-111950000D01*
X114055000Y-117300000D02*
X114055000Y-118550000D01*
X114355000Y-116450000D02*
X114355000Y-118250000D01*
X115105000Y-116450000D02*
X114355000Y-116450000D01*
X114355000Y-114950000D02*
X115105000Y-114950000D01*
X115105000Y-114950000D02*
X115105000Y-108950000D01*
X114355000Y-108950000D02*
X114355000Y-114950000D01*
X115105000Y-108950000D02*
X114355000Y-108950000D01*
X114355000Y-107450000D02*
X115105000Y-107450000D01*
X115105000Y-107450000D02*
X115105000Y-105650000D01*
X116605000Y-106400000D02*
X119555000Y-106400000D01*
X119555000Y-106400000D02*
X119555000Y-111950000D01*
X114355000Y-105650000D02*
X114355000Y-107450000D01*
X115105000Y-105650000D02*
X114355000Y-105650000D01*
X116605000Y-105650000D02*
X116605000Y-106400000D01*
X114345000Y-105640000D02*
X114345000Y-118260000D01*
X120315000Y-105640000D02*
X114345000Y-105640000D01*
%TO.C,M1*%
X177590000Y-93640000D02*
X178920000Y-93640000D01*
X177590000Y-94970000D02*
X177590000Y-93640000D01*
X177590000Y-96240000D02*
X177590000Y-101380000D01*
X177590000Y-96240000D02*
X180250000Y-96240000D01*
X177590000Y-101380000D02*
X180250000Y-101380000D01*
X180250000Y-96240000D02*
X180250000Y-101380000D01*
%TO.C,J6*%
X141430000Y-64965000D02*
X141430000Y-66215000D01*
X141720000Y-65255000D02*
X141720000Y-71225000D01*
X141720000Y-71225000D02*
X154340000Y-71225000D01*
X141730000Y-65265000D02*
X141730000Y-66015000D01*
X141730000Y-66015000D02*
X143530000Y-66015000D01*
X141730000Y-67515000D02*
X142480000Y-67515000D01*
X142480000Y-67515000D02*
X142480000Y-70465000D01*
X142480000Y-70465000D02*
X148030000Y-70465000D01*
X142680000Y-64965000D02*
X141430000Y-64965000D01*
X143530000Y-65265000D02*
X141730000Y-65265000D01*
X143530000Y-66015000D02*
X143530000Y-65265000D01*
X145030000Y-65265000D02*
X145030000Y-66015000D01*
X145030000Y-66015000D02*
X151030000Y-66015000D01*
X151030000Y-65265000D02*
X145030000Y-65265000D01*
X151030000Y-66015000D02*
X151030000Y-65265000D01*
X152530000Y-65265000D02*
X152530000Y-66015000D01*
X152530000Y-66015000D02*
X154330000Y-66015000D01*
X153580000Y-67515000D02*
X153580000Y-70465000D01*
X153580000Y-70465000D02*
X148030000Y-70465000D01*
X154330000Y-65265000D02*
X152530000Y-65265000D01*
X154330000Y-66015000D02*
X154330000Y-65265000D01*
X154330000Y-67515000D02*
X153580000Y-67515000D01*
X154340000Y-65255000D02*
X141720000Y-65255000D01*
X154340000Y-71225000D02*
X154340000Y-65255000D01*
%TO.C,J8*%
X113270000Y-131160000D02*
X122270000Y-131160000D01*
X122270000Y-131160000D02*
X122270000Y-123160000D01*
X122270000Y-123160000D02*
X113270000Y-123160000D01*
X113270000Y-123160000D02*
X113270000Y-131160000D01*
X115270000Y-131160000D02*
X116770000Y-131160000D01*
X116770000Y-131160000D02*
X116770000Y-130310000D01*
X116770000Y-130310000D02*
X115270000Y-130310000D01*
X115270000Y-130310000D02*
X115270000Y-131160000D01*
X118770000Y-131160000D02*
X120270000Y-131160000D01*
X120270000Y-131160000D02*
X120270000Y-130310000D01*
X120270000Y-130310000D02*
X118770000Y-130310000D01*
X118770000Y-130310000D02*
X118770000Y-131160000D01*
%TO.C,J12*%
X125320000Y-131320000D02*
X123990000Y-131320000D01*
X125320000Y-129990000D02*
X125320000Y-131320000D01*
X125320000Y-128720000D02*
X125320000Y-115960000D01*
X125320000Y-128720000D02*
X122660000Y-128720000D01*
X125320000Y-115960000D02*
X122660000Y-115960000D01*
X122660000Y-128720000D02*
X122660000Y-115960000D01*
%TO.C,J7*%
X175910000Y-117840000D02*
X177160000Y-117840000D01*
X176200000Y-117550000D02*
X182170000Y-117550000D01*
X182170000Y-117550000D02*
X182170000Y-104930000D01*
X176210000Y-117540000D02*
X176960000Y-117540000D01*
X176960000Y-117540000D02*
X176960000Y-115740000D01*
X178460000Y-117540000D02*
X178460000Y-116790000D01*
X178460000Y-116790000D02*
X181410000Y-116790000D01*
X181410000Y-116790000D02*
X181410000Y-111240000D01*
X175910000Y-116590000D02*
X175910000Y-117840000D01*
X176210000Y-115740000D02*
X176210000Y-117540000D01*
X176960000Y-115740000D02*
X176210000Y-115740000D01*
X176210000Y-114240000D02*
X176960000Y-114240000D01*
X176960000Y-114240000D02*
X176960000Y-108240000D01*
X176210000Y-108240000D02*
X176210000Y-114240000D01*
X176960000Y-108240000D02*
X176210000Y-108240000D01*
X176210000Y-106740000D02*
X176960000Y-106740000D01*
X176960000Y-106740000D02*
X176960000Y-104940000D01*
X178460000Y-105690000D02*
X181410000Y-105690000D01*
X181410000Y-105690000D02*
X181410000Y-111240000D01*
X176210000Y-104940000D02*
X176210000Y-106740000D01*
X176960000Y-104940000D02*
X176210000Y-104940000D01*
X178460000Y-104940000D02*
X178460000Y-105690000D01*
X176200000Y-104930000D02*
X176200000Y-117550000D01*
X182170000Y-104930000D02*
X176200000Y-104930000D01*
%TO.C,J1*%
X164658870Y-68287321D02*
X163774987Y-69171205D01*
X164658870Y-68697443D02*
X160437443Y-72918870D01*
X160437443Y-72918870D02*
X169361130Y-81842558D01*
X164658870Y-68711585D02*
X164128540Y-69241915D01*
X164128540Y-69241915D02*
X165401332Y-70514707D01*
X163067880Y-70302575D02*
X163598210Y-70832905D01*
X163598210Y-70832905D02*
X161512245Y-72918870D01*
X161512245Y-72918870D02*
X165436688Y-76843313D01*
X165542754Y-69171205D02*
X164658870Y-68287321D01*
X165931663Y-69984377D02*
X164658870Y-68711585D01*
X165401332Y-70514707D02*
X165931663Y-69984377D01*
X166992323Y-71045037D02*
X166461993Y-71575368D01*
X166461993Y-71575368D02*
X170704633Y-75818008D01*
X171234963Y-75287678D02*
X166992323Y-71045037D01*
X170704633Y-75818008D02*
X171234963Y-75287678D01*
X172295624Y-76348338D02*
X171765293Y-76878668D01*
X171765293Y-76878668D02*
X173038086Y-78151461D01*
X171447095Y-78681791D02*
X169361130Y-80767756D01*
X169361130Y-80767756D02*
X165436688Y-76843313D01*
X173568416Y-77621131D02*
X172295624Y-76348338D01*
X173038086Y-78151461D02*
X173568416Y-77621131D01*
X171977426Y-79212121D02*
X171447095Y-78681791D01*
X173582558Y-77621131D02*
X164658870Y-68697443D01*
X169361130Y-81842558D02*
X173582558Y-77621131D01*
%TO.C,J9*%
X170920000Y-84000000D02*
X172250000Y-84000000D01*
X170920000Y-85330000D02*
X170920000Y-84000000D01*
X170920000Y-86600000D02*
X170920000Y-109520000D01*
X170920000Y-86600000D02*
X173580000Y-86600000D01*
X170920000Y-109520000D02*
X173580000Y-109520000D01*
X173580000Y-86600000D02*
X173580000Y-109520000D01*
%TO.C,J4*%
X134570000Y-128350000D02*
X134570000Y-129600000D01*
X134860000Y-128640000D02*
X134860000Y-134610000D01*
X134860000Y-134610000D02*
X147480000Y-134610000D01*
X134870000Y-128650000D02*
X134870000Y-129400000D01*
X134870000Y-129400000D02*
X136670000Y-129400000D01*
X134870000Y-130900000D02*
X135620000Y-130900000D01*
X135620000Y-130900000D02*
X135620000Y-133850000D01*
X135620000Y-133850000D02*
X141170000Y-133850000D01*
X135820000Y-128350000D02*
X134570000Y-128350000D01*
X136670000Y-128650000D02*
X134870000Y-128650000D01*
X136670000Y-129400000D02*
X136670000Y-128650000D01*
X138170000Y-128650000D02*
X138170000Y-129400000D01*
X138170000Y-129400000D02*
X144170000Y-129400000D01*
X144170000Y-128650000D02*
X138170000Y-128650000D01*
X144170000Y-129400000D02*
X144170000Y-128650000D01*
X145670000Y-128650000D02*
X145670000Y-129400000D01*
X145670000Y-129400000D02*
X147470000Y-129400000D01*
X146720000Y-130900000D02*
X146720000Y-133850000D01*
X146720000Y-133850000D02*
X141170000Y-133850000D01*
X147470000Y-128650000D02*
X145670000Y-128650000D01*
X147470000Y-129400000D02*
X147470000Y-128650000D01*
X147470000Y-130900000D02*
X146720000Y-130900000D01*
X147480000Y-128640000D02*
X134860000Y-128640000D01*
X147480000Y-134610000D02*
X147480000Y-128640000D01*
%TO.C,J10*%
X170930000Y-110920000D02*
X172260000Y-110920000D01*
X170930000Y-112250000D02*
X170930000Y-110920000D01*
X170930000Y-113520000D02*
X170930000Y-131360000D01*
X170930000Y-113520000D02*
X173590000Y-113520000D01*
X170930000Y-131360000D02*
X173590000Y-131360000D01*
X173590000Y-113520000D02*
X173590000Y-131360000D01*
%TO.C,C8*%
X154350000Y-99116267D02*
X154350000Y-98823733D01*
X155370000Y-99116267D02*
X155370000Y-98823733D01*
%TO.C,C11*%
X140710000Y-99416267D02*
X140710000Y-99123733D01*
X141730000Y-99416267D02*
X141730000Y-99123733D01*
%TO.C,U3*%
X153210000Y-102183000D02*
X153210000Y-97242000D01*
X153210000Y-102183000D02*
X142710000Y-102183000D01*
X153210000Y-99423000D02*
X151603000Y-99423000D01*
X153210000Y-97242000D02*
X142710000Y-97242000D01*
X149810000Y-102183000D02*
X149810000Y-100165000D01*
X149397000Y-99423000D02*
X149062000Y-99423000D01*
X146857000Y-99423000D02*
X146522000Y-99423000D01*
X146109000Y-102183000D02*
X146109000Y-100165000D01*
X144317000Y-99423000D02*
X142710000Y-99423000D01*
X142710000Y-102183000D02*
X142710000Y-97242000D01*
%TO.C,J3*%
X148890000Y-128400000D02*
X148890000Y-129650000D01*
X149180000Y-128690000D02*
X149180000Y-134660000D01*
X149180000Y-134660000D02*
X161800000Y-134660000D01*
X149190000Y-128700000D02*
X149190000Y-129450000D01*
X149190000Y-129450000D02*
X150990000Y-129450000D01*
X149190000Y-130950000D02*
X149940000Y-130950000D01*
X149940000Y-130950000D02*
X149940000Y-133900000D01*
X149940000Y-133900000D02*
X155490000Y-133900000D01*
X150140000Y-128400000D02*
X148890000Y-128400000D01*
X150990000Y-128700000D02*
X149190000Y-128700000D01*
X150990000Y-129450000D02*
X150990000Y-128700000D01*
X152490000Y-128700000D02*
X152490000Y-129450000D01*
X152490000Y-129450000D02*
X158490000Y-129450000D01*
X158490000Y-128700000D02*
X152490000Y-128700000D01*
X158490000Y-129450000D02*
X158490000Y-128700000D01*
X159990000Y-128700000D02*
X159990000Y-129450000D01*
X159990000Y-129450000D02*
X161790000Y-129450000D01*
X161040000Y-130950000D02*
X161040000Y-133900000D01*
X161040000Y-133900000D02*
X155490000Y-133900000D01*
X161790000Y-128700000D02*
X159990000Y-128700000D01*
X161790000Y-129450000D02*
X161790000Y-128700000D01*
X161790000Y-130950000D02*
X161040000Y-130950000D01*
X161800000Y-128690000D02*
X149180000Y-128690000D01*
X161800000Y-134660000D02*
X161800000Y-128690000D01*
D11*
%TO.C,A2*%
X148270000Y-126540000D02*
X168590000Y-126540000D01*
X168590000Y-126540000D02*
X168590000Y-111300000D01*
X168590000Y-111300000D02*
X148270000Y-111300000D01*
X148270000Y-111300000D02*
X148270000Y-126540000D01*
D12*
%TO.C,J2*%
X122386901Y-78374012D02*
X123270785Y-79257895D01*
X122797023Y-78374012D02*
X127018450Y-82595439D01*
X127018450Y-82595439D02*
X135942138Y-73671752D01*
X122811165Y-78374012D02*
X123341495Y-78904342D01*
X123341495Y-78904342D02*
X124614287Y-77631550D01*
X124402155Y-79965002D02*
X124932485Y-79434672D01*
X124932485Y-79434672D02*
X127018450Y-81520637D01*
X127018450Y-81520637D02*
X130942893Y-77596194D01*
X123270785Y-77490128D02*
X122386901Y-78374012D01*
X124083957Y-77101219D02*
X122811165Y-78374012D01*
X124614287Y-77631550D02*
X124083957Y-77101219D01*
X125144617Y-76040559D02*
X125674948Y-76570889D01*
X125674948Y-76570889D02*
X129917588Y-72328249D01*
X129387258Y-71797919D02*
X125144617Y-76040559D01*
X129917588Y-72328249D02*
X129387258Y-71797919D01*
X130447918Y-70737258D02*
X130978248Y-71267589D01*
X130978248Y-71267589D02*
X132251041Y-69994796D01*
X132781371Y-71585787D02*
X134867336Y-73671752D01*
X134867336Y-73671752D02*
X130942893Y-77596194D01*
X131720711Y-69464466D02*
X130447918Y-70737258D01*
X132251041Y-69994796D02*
X131720711Y-69464466D01*
X133311701Y-71055456D02*
X132781371Y-71585787D01*
X131720711Y-69450324D02*
X122797023Y-78374012D01*
X135942138Y-73671752D02*
X131720711Y-69450324D01*
D11*
%TO.C,A1*%
X126970000Y-126500000D02*
X147290000Y-126500000D01*
X147290000Y-126500000D02*
X147290000Y-111260000D01*
X147290000Y-111260000D02*
X126970000Y-111260000D01*
X126970000Y-111260000D02*
X126970000Y-126500000D01*
D12*
%TO.C,J11*%
X125330000Y-113540000D02*
X124000000Y-113540000D01*
X125330000Y-112210000D02*
X125330000Y-113540000D01*
X125330000Y-110940000D02*
X125330000Y-93100000D01*
X125330000Y-110940000D02*
X122670000Y-110940000D01*
X125330000Y-93100000D02*
X122670000Y-93100000D01*
X122670000Y-110940000D02*
X122670000Y-93100000D01*
%TD*%
M02*
