M48
; DRILL file {KiCad 7.0.2} date Tue May 23 14:15:12 2023
; FORMAT={-:-/ absolute / inch / decimal}
; #@! TF.CreationDate,2023-05-23T14:15:12+02:00
; #@! TF.GenerationSoftware,Kicad,Pcbnew,7.0.2
; #@! TF.FileFunction,Plated,1,2,PTH
FMAT,2
INCH
; #@! TA.AperFunction,Plated,PTH,ViaDrill
T1C0.0236
; #@! TA.AperFunction,Plated,PTH,ComponentDrill
T2C0.0300
; #@! TA.AperFunction,Plated,PTH,ComponentDrill
T3C0.0301
; #@! TA.AperFunction,Plated,PTH,ComponentDrill
T4C0.0374
; #@! TA.AperFunction,Plated,PTH,ComponentDrill
T5C0.0394
; #@! TA.AperFunction,Plated,PTH,ComponentDrill
T6C0.0472
; #@! TA.AperFunction,Plated,PTH,ComponentDrill
T7C0.0560
; #@! TA.AperFunction,Plated,PTH,ComponentDrill
T8C0.1260
%
G90
G05
T1
X5.6705Y-4.252
T2
X4.6516Y-3.8063
X4.6516Y-3.9063
X4.6516Y-4.0063
X4.6516Y-4.1063
X4.6516Y-4.3063
X4.6516Y-4.4063
X4.6516Y-4.5063
X4.6516Y-4.7063
X4.6516Y-4.8063
X4.6516Y-4.9063
X4.6516Y-5.0063
X4.6516Y-5.1063
X4.6516Y-5.2063
X4.8185Y-4.5181
X4.8185Y-5.0181
X4.9185Y-4.5181
X4.9185Y-5.0181
X5.0185Y-4.5181
X5.0185Y-5.0181
X5.1185Y-4.5181
X5.1185Y-5.0181
X5.2185Y-4.5181
X5.2185Y-5.0181
X5.3185Y-4.5181
X5.3185Y-5.0181
X5.4185Y-4.5181
X5.4185Y-5.0181
X5.5185Y-4.5181
X5.5185Y-5.0181
X5.6571Y-4.5197
X5.6571Y-5.0197
X5.7571Y-4.5197
X5.7571Y-5.0197
X5.8571Y-4.5197
X5.8571Y-5.0197
X5.9571Y-4.5197
X5.9571Y-5.0197
X6.0571Y-4.5197
X6.0571Y-5.0197
X6.1571Y-4.5197
X6.1571Y-5.0197
X6.2571Y-4.5197
X6.2571Y-5.0197
X6.3571Y-4.5197
X6.3571Y-5.0197
X6.5516Y-3.3465
X6.5516Y-3.4465
X6.5516Y-3.5465
X6.5516Y-3.6465
X6.5516Y-3.7465
X6.5516Y-3.8465
X6.5516Y-3.9465
X6.5516Y-4.0465
X6.5516Y-4.1465
X6.5516Y-4.2465
X6.5516Y-4.3465
X6.5516Y-4.5063
X6.5516Y-4.6063
X6.5516Y-4.7063
X6.5516Y-4.8063
X6.5516Y-4.9063
X6.5516Y-5.0063
X6.5516Y-5.1063
X6.5516Y-5.2063
T3
X4.6516Y-4.2063
T4
X4.3683Y-4.3476
X4.3683Y-4.4461
X4.3683Y-4.5445
X4.3683Y-4.6429
X4.744Y-3.1706
X4.8136Y-3.101
X4.8832Y-3.0314
X4.9528Y-2.9618
X5.1799Y-5.2492
X5.2783Y-5.2492
X5.3768Y-5.2492
X5.45Y-2.7537
X5.4752Y-5.2492
X5.5484Y-2.7537
X5.6469Y-2.7537
X5.7437Y-5.2512
X5.7453Y-2.7537
X5.8421Y-5.2512
X5.9406Y-5.2512
X6.039Y-5.2512
X6.2551Y-2.9322
X6.3247Y-3.0018
X6.3943Y-3.0714
X6.4639Y-3.141
X6.8035Y-4.3197
X6.8035Y-4.4181
X6.8035Y-4.5165
X6.8035Y-4.615
T5
X6.8138Y-3.8268
X6.8138Y-3.9268
X6.8138Y-4.0268
T6
X5.4949Y-3.986
X5.5949Y-3.986
X5.6949Y-3.986
T7
X4.4161Y-5.0256
X4.4161Y-5.1634
T8
X4.8433Y-5.276
X6.322Y-5.272
T0
M30
