M48
; DRILL file {KiCad 7.0.2} date Thu May 25 17:28:37 2023
; FORMAT={-:-/ absolute / inch / decimal}
; #@! TF.CreationDate,2023-05-25T17:28:37+02:00
; #@! TF.GenerationSoftware,Kicad,Pcbnew,7.0.2
; #@! TF.FileFunction,Plated,1,2,PTH
FMAT,2
INCH
; #@! TA.AperFunction,Plated,PTH,ComponentDrill
T1C0.0300
; #@! TA.AperFunction,Plated,PTH,ComponentDrill
T2C0.0374
; #@! TA.AperFunction,Plated,PTH,ComponentDrill
T3C0.0394
; #@! TA.AperFunction,Plated,PTH,ComponentDrill
T4C0.0472
; #@! TA.AperFunction,Plated,PTH,ComponentDrill
T5C0.0560
; #@! TA.AperFunction,Plated,PTH,ComponentDrill
T6C0.1260
%
G90
G05
T1
X5.0488Y-4.4303
X5.0488Y-4.9303
X5.1488Y-4.4303
X5.1488Y-4.9303
X5.2488Y-4.4303
X5.2488Y-4.9303
X5.3488Y-4.4303
X5.3488Y-4.9303
X5.4488Y-4.4303
X5.4488Y-4.9303
X5.5488Y-4.4303
X5.5488Y-4.9303
X5.6488Y-4.4303
X5.6488Y-4.9303
X5.7488Y-4.4303
X5.7488Y-4.9303
X5.8874Y-4.4319
X5.8874Y-4.9319
X5.9874Y-4.4319
X5.9874Y-4.9319
X6.0874Y-4.4319
X6.0874Y-4.9319
X6.1874Y-4.4319
X6.1874Y-4.9319
X6.2874Y-4.4319
X6.2874Y-4.9319
X6.3874Y-4.4319
X6.3874Y-4.9319
X6.4874Y-4.4319
X6.4874Y-4.9319
X6.5874Y-4.4319
X6.5874Y-4.9319
T2
X4.5986Y-4.2598
X4.5986Y-4.3583
X4.5986Y-4.4567
X4.5986Y-4.5551
X4.9743Y-3.0828
X5.0439Y-3.0132
X5.1135Y-2.9436
X5.1831Y-2.874
X5.4102Y-5.1614
X5.5087Y-5.1614
X5.6071Y-5.1614
X5.6803Y-2.6659
X5.7055Y-5.1614
X5.7787Y-2.6659
X5.8772Y-2.6659
X5.974Y-5.1634
X5.9756Y-2.6659
X6.0724Y-5.1634
X6.1709Y-5.1634
X6.2693Y-5.1634
X6.4854Y-2.8444
X6.555Y-2.914
X6.6246Y-2.9836
X6.6942Y-3.0532
X7.0339Y-4.2319
X7.0339Y-4.3303
X7.0339Y-4.4287
X7.0339Y-4.5272
T3
X4.8815Y-4.6177
X4.8815Y-4.7177
X4.8815Y-4.8177
X4.8815Y-4.9177
X4.8815Y-5.0177
X4.8815Y-5.1177
X4.8819Y-3.7177
X4.8819Y-3.8177
X4.8819Y-3.9177
X4.8819Y-4.0177
X4.8819Y-4.1177
X4.8819Y-4.2177
X4.8819Y-4.3177
X4.8819Y-4.4177
X6.7815Y-3.3594
X6.7815Y-3.4594
X6.7815Y-3.5594
X6.7815Y-3.6594
X6.7815Y-3.7594
X6.7815Y-3.8594
X6.7815Y-3.9594
X6.7815Y-4.0594
X6.7815Y-4.1594
X6.7815Y-4.2594
X6.7819Y-4.4193
X6.7819Y-4.5193
X6.7819Y-4.6193
X6.7819Y-4.7193
X6.7819Y-4.8193
X6.7819Y-4.9193
X6.7819Y-5.0193
X6.7819Y-5.1193
X7.0441Y-3.739
X7.0441Y-3.839
X7.0441Y-3.939
T4
X5.7252Y-3.8982
X5.8252Y-3.8982
X5.9252Y-3.8982
T5
X4.5677Y-5.0071
X4.7055Y-5.0071
T6
X5.1567Y-5.1878
X5.8268Y-3.002
X6.5295Y-5.1831
T0
M30
